/* XPM */
static char *_6f829def31b4cd5b1fd4190a6b31948SgDG6mkBdsVXIGjF[] = {
/* columns rows colors chars-per-pixel */
"48 49 156 2 ",
"   c None",
".  c #4F4C14",
"X  c #564316",
"o  c #584217",
"O  c #534D15",
"+  c #5B4B17",
"@  c #5B4318",
"#  c #5D4A19",
"$  c #4F5213",
"%  c #535514",
"&  c #5B5416",
"*  c #565A15",
"=  c #5B5C16",
"-  c #595218",
";  c #5B5D18",
":  c #614C1A",
">  c #615E16",
",  c #64531B",
"<  c #645B1A",
"1  c #6A5A1D",
"2  c #5E6117",
"3  c #5F6218",
"4  c #626217",
"5  c #636419",
"6  c #6B641C",
"7  c #66691A",
"8  c #6B6C1B",
"9  c #70671E",
"0  c #726D1E",
"q  c #796E1E",
"w  c #6F701D",
"e  c #73741E",
"r  c #79751F",
"t  c #77781F",
"y  c #78781F",
"u  c #6D5C21",
"i  c #726423",
"p  c #756C24",
"a  c #796E27",
"s  c #796E28",
"d  c #767421",
"f  c #7A7522",
"g  c #777821",
"h  c #7E7C26",
"j  c #7F7E26",
"k  c #7E7D25",
"l  c #7B7B22",
"z  c #7A7029",
"x  c #7C7628",
"c  c #7E7629",
"v  c #7D742A",
"b  c #7D742B",
"n  c #7F772C",
"m  c #7C752A",
"M  c #7E7829",
"N  c #7F7929",
"B  c #7D7B28",
"V  c #7E7A28",
"C  c #7E7B29",
"Z  c #7D7C28",
"A  c #7D7C29",
"S  c #7F7D28",
"D  c #7E7C29",
"F  c #807B22",
"G  c #807F23",
"H  c #817A24",
"J  c #827A26",
"K  c #807F24",
"L  c #807E25",
"P  c #807F25",
"I  c #807F26",
"U  c #817F26",
"Y  c #807E27",
"T  c #807F27",
"R  c #827F26",
"E  c #827F27",
"W  c #807D25",
"Q  c #80772C",
"!  c #807B2A",
"~  c #817C29",
"^  c #807D29",
"/  c #807E28",
"(  c #817F28",
")  c #837E29",
"_  c #827F29",
"`  c #817C2B",
"'  c #817E2A",
"]  c #817F2B",
"[  c #827E2B",
"{  c #837E2B",
"}  c #827F2B",
"|  c #847E2A",
" . c #867E2A",
".. c #80782C",
"X. c #80792D",
"o. c #827D2C",
"O. c #827C2E",
"+. c #837D2E",
"@. c #837D2F",
"#. c #847D2F",
"$. c #847E2F",
"%. c #857F2F",
"&. c #827F2A",
"*. c #808024",
"=. c #818025",
"-. c #828125",
";. c #828027",
":. c #838127",
">. c #828128",
",. c #828029",
"<. c #838129",
"1. c #83802A",
"2. c #83812B",
"3. c #848228",
"4. c #848229",
"5. c #84812B",
"6. c #84822A",
"7. c #85822B",
"8. c #83802C",
"9. c #84812C",
"0. c #85812C",
"q. c #84802D",
"w. c #84812D",
"e. c #85812D",
"r. c #86812D",
"t. c #84822C",
"y. c #85822C",
"u. c #85832C",
"i. c #85822D",
"p. c #86832D",
"a. c #87832D",
"s. c #84802E",
"d. c #85822E",
"f. c #86832F",
"g. c #87832F",
"h. c #87842C",
"j. c #87842D",
"k. c #87842F",
"l. c #85812C",
"z. c #88832E",
"x. c #88822F",
"c. c #88842E",
"v. c #89842F",
"b. c #88842F",
"n. c #868230",
"m. c #878330",
"M. c #878331",
"N. c #888331",
"B. c #888430",
"V. c #898430",
"C. c #888431",
"Z. c #898431",
"A. c #898531",
"S. c #8A8531",
"D. c #8A8632",
"F. c #888431",
/* pixels */
"                                                                                                ",
"                                                                                                ",
"                                                                                                ",
"                                                                                                ",
"                                                                                                ",
"                                                                                                ",
"                                                                                                ",
"                                                                                                ",
"                                          u u u                                                 ",
"                                      : : p X.n a                                               ",
"                                    i a p Q M.M.z u   :                                         ",
"                            1 u 1 u b %.%.X.I i.o.s a X.s u                                     ",
"                            a M a a #.Z.i.j l k I ~ o.M.c u                                     ",
"                            c i.` M #.Z.s.l l y k 2.C.s.z 6 i a s i                             ",
"                            1 c Z d l s.M.i.3.:.k *.j g 8 0 c o.$.X.i                           ",
"                        1 1 9 f f r g l i.Z.C.3.:.3.i.B 8 w l o.i.o.a                           ",
"                      1 9 0 r f f J ~ j J i.C.z.~ i.C.Z w 8 e l *.j g 6 1 ,                     ",
"                      1 e t l l  .z.z.I F G i.3.h f f p 0 g M o.2.l g z d z i                   ",
"                      6 e t I i.v.D.z.H F F -.y t 0 r 9 p Z M.M.>.l e Z I h i                   ",
"                1 1 6 8 8 l k.C.v.h.v. .l y y t e t t 0 0 ~ k.i.*.g e d f p 1                   ",
"              6 0 0 r e d Z C.k.G I v.C.3.t e e y y l t e l N.M.~ g w 8 8 6 ,                   ",
"              d l k y w 8 h k.:.l l 3.h.:.l e t y y k l t g i.M.i.Z w w 8 8 6 1                 ",
"              0 g d w 8 0 g k G y e l *.k e w e y *.:.2.I k Z 2.2.j e 7 8 e e 8 #               ",
"              1 8 8 8 l h l k l t e t y y e 7 w t y :.M.v.3.k k l g w 3 7 e e 0 :               ",
"              : 6 8 m s.i.2.G G y w e t t w 7 7 e t h 2.Z.i.3.~ e w 7 2 3 w e 6 #               ",
"              1 8 f o.i. .l G G G t w w w 8 8 8 e y j 3.M.C.M.s.d w 7 7 4 5 6 6 1               ",
"              6 e g Z 2.j f r l y t w 8 8 7 w e t y I z.i.s.~ :.g w 8 7 4 > 5 8 r 6 1           ",
"              1 8 w w Z I J q q e e 8 8 8 w t k G l f M.~ g e l l g 8 7 3 5 8 t f g p           ",
"              # 9 d 8 A z.i.H 0 w w 8 8 8 g ~ k.~ d 0 d w w 8 d g 8 5 5 3 7 8 w t g 1           ",
"              i n A m A z.z.) r w 7 7 8 w j C.k.h 0 8 5 2 5 8 6 5 3 ; 2 3 7 7 8 8 1             ",
"            , ` s.i.s.Z h ~ -.y 7 7 7 8 8 f h l e e w 4 % ; 8 7 3 * * 7 w w 8 8 <               ",
"            1 r Z Z d 8 8 e y w 7 7 4 7 8 8 8 8 e l l 8 * = 5 3 * 2 5 t t w 8 8 ,               ",
"            , 9 g 8 7 7 5 7 7 7 4 > > 4 4 4 4 6 e r y t 3 = ; ; ; 3 8 l f 8 8 e 6               ",
"              , 8 8 8 7 2 3 7 7 4 > > 4 4 > 4 7 8 e r e 8 5 ; 3 ; 3 5 8 8 4 6 e 8 o             ",
"              @ < 8 8 2 % = 3 5 > = 2 2 = 2 8 e e 8 6 8 e 7 ; 3 3 ; % < & & - 5 6               ",
"                # ; = % % % ; 2 = * = = = 5 e e e 7 5 e w 7 ; 3 7 3 * & * $ O o                 ",
"                  O $ % % & & > * * = * * ; 7 8 5 * 2 w w 3 % 3 8 7 3 ; ; $ O                   ",
"                    O + & + & * 2 2 2 2 * % * ; * % * 5 7 * % = 7 7 3 ; - * +                   ",
"                            + & 4 4 2 = % % % * * * % * * % o # < 3 = - o                       ",
"                              + = 2 = % O $ % % & * = ; ; -     X - + o                         ",
"                                + % % X X X X X o + = - + @                                     ",
"                                  o X             o o o                                         ",
"                                                                                                ",
"                                                                                                ",
"                                                                                                ",
"                                                                                                ",
"                                                                                                ",
"                                                                                                ",
"                                                                                                "
};
