/* XPM */
static char *result[] = {
/* columns rows colors chars-per-pixel */
"48 48 152 2 ",
"   c #211F30",
".  c #351E35",
"X  c #2F2D2D",
"o  c #23312B",
"O  c #233928",
"+  c #2D3929",
"@  c #2C342C",
"#  c #373D2B",
"$  c #3A392A",
"%  c #2C2730",
"&  c #2C2D32",
"*  c #3D2234",
"=  c #3D2A31",
"-  c #343B32",
";  c #471E39",
":  c #5F1D3F",
">  c #41382F",
",  c #432D33",
"<  c #4F2138",
"1  c #412B3A",
"2  c #552639",
"3  c #5B243A",
"4  c #44313B",
"5  c #543432",
"6  c #6F2D38",
"7  c #603931",
"8  c #2B5D1E",
"9  c #286A19",
"0  c #277515",
"q  c #317916",
"w  c #39731B",
"e  c #2E4A25",
"r  c #2F5824",
"t  c #2B5521",
"y  c #2F6121",
"u  c #64661E",
"i  c #67691E",
"p  c #6B6E1D",
"a  c #6E731A",
"s  c #72751B",
"d  c #76791E",
"f  c #79791F",
"g  c #494A26",
"h  c #4D422A",
"j  c #4D4D29",
"k  c #514429",
"l  c #564A2E",
"z  c #4E5129",
"x  c #475D26",
"c  c #505124",
"v  c #5D5C21",
"b  c #465234",
"n  c #585839",
"m  c #43642C",
"M  c #5C7C22",
"N  c #566B30",
"B  c #5F6F36",
"V  c #586738",
"C  c #587035",
"Z  c #626425",
"A  c #6F7529",
"S  c #737624",
"D  c #797720",
"F  c #777924",
"G  c #797B21",
"H  c #767A2C",
"J  c #7A7D2D",
"K  c #646730",
"L  c #6F7138",
"P  c #757A33",
"I  c #797B31",
"U  c #7B7E39",
"Y  c #6C1E40",
"T  c #791E44",
"R  c #474445",
"E  c #594B44",
"W  c #7F534A",
"Q  c #676A41",
"!  c #787953",
"~  c #81273E",
"^  c #827C25",
"/  c #867A28",
"(  c #8D7E2B",
")  c #8E1F47",
"_  c #871C48",
"`  c #8B1C49",
"'  c #931E49",
"]  c #9A1B4C",
"[  c #A31E4C",
"{  c #892145",
"}  c #952743",
"|  c #9A2D40",
" . c #9B2446",
".. c #883142",
"X. c #AE2D44",
"o. c #A62449",
"O. c #AB244A",
"+. c #B12D44",
"@. c #B3254B",
"#. c #B8274A",
"$. c #C32D49",
"%. c #CA2F48",
"&. c #CC3048",
"*. c #CF384B",
"=. c #D23F4F",
"-. c #BF5356",
";. c #B45957",
":. c #CD5457",
">. c #DB565A",
",. c #DE5D5D",
"<. c #CE7967",
"1. c #EB7C6B",
"2. c #5A881E",
"3. c #4A971E",
"4. c #468918",
"5. c #5B9B27",
"6. c #698037",
"7. c #7D813D",
"8. c #779634",
"9. c #799D30",
"0. c #7B8243",
"q. c #858125",
"w. c #8A8126",
"e. c #8E8729",
"r. c #94842E",
"t. c #9A882F",
"y. c #94892A",
"u. c #808235",
"i. c #82833D",
"p. c #9B8531",
"a. c #9D8832",
"s. c #A38B34",
"d. c #81AA38",
"f. c #8EAF3F",
"g. c #84AC31",
"h. c #848340",
"j. c #898547",
"k. c #83854B",
"l. c #89864B",
"z. c #8C8A52",
"x. c #8C8B5A",
"c. c #828452",
"v. c #918957",
"b. c #918E5F",
"n. c #8A8D63",
"m. c #938F66",
"M. c #988D63",
"N. c #969163",
"B. c #989263",
"V. c #969175",
"C. c #A69777",
"Z. c #F18B72",
/* pixels */
"s s s s s s s s s s s s s s s s s s s s s s s s s s s s s s s s s s s s s s s s s s s s s s s s ",
"s s s s s s s s s s s s s s s s s s s s s s s s s s s s s s s s s s s s s s s s s s s s s s s s ",
"s s s s s s s s s s s s s d d s s s s s s s s s s s s s s s s s s d s s s s s s s s s s s s s s ",
"s s s s s s s s s s s s s d a d s s s s s s s s s s s s s s s s s s s s s s s s s s s s s s s s ",
"s s s s s s s s s s s s s s a f s s s s s s s s s G u.J s s s s s s s s s s s s s s s s s s s s ",
"s s s S j.F s s s s s s s s a a s s s s s s s s s s v.l.s s s s s s s s s s s s s s s s s s s s ",
"s s s s x.S s s s s s s d s a s s s s s s d s s s s s s s s s s s s s s s s s s d s s s s s s s ",
"s s s s s s s s s s s s s s s s s s s s d s s s s s s s s s s J s s s s s s f d a s s s s s s s ",
"s s s s s s s s s s s s s s s s s s d x.k.s s a s s s s s s H C.z.l.s s s s s a s s s s f s s s ",
"s s s s s s s s s s s s s s s s s s a P A s s a s s s s s s j.H 7.s s s s s s s s s s s N.x.7.s ",
"s s s s s s s s s s s s s s s s s Z X       % X u a s s s s s s s s s s s s s s s s s s S H 7.s ",
"s s s s s s s s s s s s s s s s s u X & - - - # v a s s s s s s s s s s s s s s s s s s s s s s ",
"s s s s s s s s s s s s s s s s s u X V f.f.9.M # c s s s s s s s s s s s s s s s s s s s s s s ",
"s s s s s s s s s s s s s s s s s u X N g.6.8.9.- g s s s s s s s s s s s s s s s s s s s s s s ",
"s s s s s s s s s s s s s s s s a u X x 2.@ N d.b j i a s s s s s s s s s s s s s s s s s s s s ",
"s s s s s s s s s s s s s s s s s u X t q o r 3.d.B $ i s s s s 7.s s s s s s s s s s s s s s s ",
"s s s d s s s s s s s s s s s s v g m w 0 o O y 5.m X u s s s s ( / s s s s s s s s s s s s s s ",
"s F d s s s s s s s s s s s s s g @ 2.4.9 + X + 9 e = v p s s y./ f t.s s s s F s s s s s s s s ",
"s d s 7.n.0.s s s s s s s s s s g o q 8 # Q i v + 2 T = c s s p.d s s s s s s s s s s s s s s s ",
"s s H m.l.l.s s s s s s s s s s g % l > X i v k 6 } O.~ 7 c p s s s s s s s s s s s s s s s s s ",
"s 7.7.l.b.l.s s s s s s s s a i k ; ) Y = v k ; +.*.=.=...5 v p s s s s s s s s s s s s s s s s ",
"s a a k.a s s s s s s s s a i # 6 +.$.o.T = 3 ' $.>.1.1.:.~ , c s s s s s s s s s s s s s G s s ",
"s s s s s s s s s s s s d Z n ..-.>.=.@._ . : [ $.,.Z.Z.,.+., h s s s s s s s s s s s s s a s s ",
"s s s s s s s s s s s s s z > <.Z.1.=.#._ . : [ $.,.Z.Z.,.+.* g s s s s s s s s s s s s s s s s ",
"s s s s s s s s s s s s s g 4 <.Z.1.=.@.` . : [ $.,.Z.Z.,.X.* g s s s s s s s s s d s s s s s s ",
"s s s s s s s s s s s s s g 4 <.Z.1.=.@.` . : [ $.,.Z.Z.,.X.* g s s s s s s s s s s s s s s s s ",
"s s s s s s s s s s s s s g 1 <.Z.1.=.@._ . : [ $.>.1.1.>.X.* g s s s s s s s s s s s s s s s s ",
"s s s s s s s s s s s s s g 4 <.Z.1.=.#._ . : [ $.=.=.=.*.X.* g s s s s s s s s s s s s s s G s ",
"s s s s s s s s s s s s s g 1 -.,.>.*.@._ . : [ %.&.&.&.&.X.; g s s s s s s s s s s s f y.s s s ",
"s s s s s s s s s s s s s g . +.&.&.&.@._ . : [ $.&.&.&.&.X.* g s s s s s s s s s s s f r.s s s ",
"s s s s s s d s s s s s s g , X.&.&.&.@._ . : o.$.&.&.&.%.X.* c s s s s s s s s s s s s s s s s ",
"s s s s s s s s s s s s s g * +.&.&.&.@._ . : ] @.$.&.&.#. .* g s s s s s s s s s s s s s s s s ",
"s d d s s s s s s s s s s g . X.%.&.$.@.` ; : ` ] @.$.$.o.T 1 n s s s s s s s s s s s s s s s s ",
"s p.t.s.s s s s s s s s s g . ) #.$.O.[ ] ` : ; ` ] [ [ Y , v p s s s s s s s s s s s s s s s s ",
"s s d f s s s s s s s s s K E 3 ` O.[ ] ' Y 5 h 3 : : : 5 c p s s s s s s s s s s s s s s s s s ",
"s s s s s s s s s s s s s S ! R 3 _ _ _ T = j u $ X X X c s s s s s s s s s s s s s s s s s s s ",
"s s s s s s s s s s s s s s S L h . . . = v p s i u u u p s s s s s s s s s s s s s s s s s s s ",
"s s s s s s s s s s s s s s s s g       X u s s s s s s s s s s s s s s s s s s s s s s s s s s ",
"s s s s s s s s s s s s s s s s s s s s s s s s s s s s s s s s s s s s s s s s s s s s s s s s ",
"s f s s s s s s s s s s d d s s s s s s s s s s s s s s s s s s s s s d s s s s s s s s s s s s ",
"s a s s s s s s s s s s s f e.s s s s s s s s s s s s s s s s s s s s s s s s s s s s s s s s s ",
"d a s s s s s s s s s s s d s.a.s s s s s d s s s s s s s s s s s s s s s s s s s s s s s s s s ",
"s s s s s s s s s s s s s s s s s s q.s.q.s s s s s d s s s s s s s s s s s s s s s s s s s f s ",
"s s s s s s s F B.s s s s s s s d s s ^ / e.s s s s s s d s s s s s s s s s s s s s s H x.J d s ",
"s d d s s s s F j.s s s s s s s s s d f y.^ s s s s J F k.s s s s s s s s s s s s s H H c.k.s s ",
"i.J s d d s s s s s s s s s s s s s s w./ s s s s s N.z.I s s s s s s s s s s s s s M.z.d H s s ",
"B.i.s 7.s s s s s s s s f f f s s s s s s s s s s s a s s s s s s s s s s s s s s s a a s s s s ",
"s s I m.0.I s s s s s s s ^ / s s s s d s s d s s s s s s s s s s s s s s s s s s d s s s s s s "
};
