/* XPM */
static char *f2b200d9a50a41a6c1aeb6439fe17005A2krUYhgE3hayQjG[] = {
/* columns rows colors chars-per-pixel */
"48 48 139 2 ",
"   c None",
".  c #4D2712",
"X  c #522D16",
"o  c #532F1A",
"O  c #56331C",
"+  c #59361D",
"@  c #5D391F",
"#  c #573722",
"$  c #593720",
"%  c #5C3B23",
"&  c #5B3E2A",
"*  c #613E24",
"=  c #5E432F",
"-  c #5F4631",
";  c #634126",
":  c #65442A",
">  c #69462A",
",  c #67492C",
"<  c #6A4A2D",
"1  c #614732",
"2  c #634A35",
"3  c #6D4E32",
"4  c #644D3B",
"5  c #684F39",
"6  c #6E5134",
"7  c #67513E",
"8  c #6C533C",
"9  c #715436",
"0  c #755837",
"q  c #735639",
"w  c #765A3B",
"e  c #795D3E",
"r  c #7B603F",
"t  c #675340",
"y  c #6A5642",
"u  c #6C5A46",
"i  c #6E5D49",
"p  c #735C45",
"a  c #795D46",
"s  c #785F47",
"d  c #7A5E40",
"f  c #725F49",
"g  c #765F49",
"h  c #715E4B",
"j  c #7A6040",
"k  c #7B6040",
"l  c #7A6140",
"z  c #7B6041",
"x  c #7B6141",
"c  c #7C6040",
"v  c #7D6140",
"b  c #7C6041",
"n  c #7C6141",
"m  c #7D6141",
"M  c #7D6240",
"N  c #7C6241",
"B  c #7D6241",
"V  c #7D6341",
"C  c #7E6240",
"Z  c #7E6241",
"A  c #7E6341",
"S  c #7D6042",
"D  c #7D6142",
"F  c #7E6142",
"G  c #7F6143",
"H  c #7E6342",
"J  c #7E6243",
"K  c #7E6343",
"L  c #7E6442",
"P  c #7F6442",
"I  c #7E6344",
"U  c #7E6245",
"Y  c #7F6444",
"T  c #7E6445",
"R  c #7F6446",
"E  c #7E6447",
"W  c #7D6242",
"Q  c #73604A",
"!  c #746049",
"~  c #756049",
"^  c #75624C",
"/  c #74624E",
"(  c #79614B",
")  c #7A634C",
"_  c #7B634C",
"`  c #7A634D",
"'  c #7E654F",
"]  c #766552",
"[  c #786751",
"{  c #796751",
"}  c #7A6750",
"|  c #7F6750",
" . c #786751",
".. c #7A6953",
"X. c #7E6953",
"o. c #7A6954",
"O. c #7B6A54",
"+. c #7D6B54",
"@. c #7C6C55",
"#. c #7B6B56",
"$. c #7C6C59",
"%. c #7F705D",
"&. c #806343",
"*. c #806443",
"=. c #816344",
"-. c #806544",
";. c #806445",
":. c #806545",
">. c #826545",
",. c #806645",
"<. c #806546",
"1. c #816749",
"2. c #846748",
"3. c #836949",
"4. c #83684A",
"5. c #846A4A",
"6. c #856A4B",
"7. c #856B4B",
"8. c #866B4B",
"9. c #856B4C",
"0. c #876D4F",
"q. c #896F4E",
"w. c #8A704E",
"e. c #8A714F",
"r. c #806D58",
"t. c #816F5B",
"y. c #897050",
"u. c #8A7051",
"i. c #8A7252",
"p. c #8B7353",
"a. c #8C7352",
"s. c #8C7454",
"d. c #8E7555",
"f. c #80705E",
"g. c #917859",
"h. c #927A59",
"j. c #937B5A",
"k. c #947C5D",
"l. c #827361",
/* pixels */
"                                                                                                ",
"                                                                                                ",
"                                                                                                ",
"                                                                                                ",
"                                                                                                ",
"                                  > > > =.2.e 0 e =.=.6 > ;                                     ",
"                                e 2.=.> a.w.=.0 =.8.8.6 6 9 < *                                 ",
"                            * e j.j.a.> d.a.8.C 8.a.u.6 &.>.>.e * :                             ",
"                          e 3 &.j.k.a.; e w 0 9 0 e C < v 2.8.2.; 3                             ",
"                        e q.9 0 v 2.e > C v w 0 0 v C 9 > e r &.3 d < +                         ",
"                        =.q.< 3 8.=.v > v v e w e C C 9 N N r k 3 N q $                         ",
"                      q 2.v > 9 2.>.v < v v e 0 e v C 9 e k k k 9 k I 9                         ",
"                    3 =.e q 3 w *.*.N 3 N d e e e C N 0 e N d k 9 e N >.;                       ",
"                    3 e e w 3 e =.>.v 3 e N e e e r &.q e N k k 0 r e e w                       ",
"                    < w w w 3 w &.&.e 3 N r e e C &.N 0 w w d k 9 e e e 8                       ",
"                    % * ; > > > < q w 3 r e e e r *.N 0 3 a 3 < : > : ; @                       ",
"                    % 8 p ! ) ) s r.1.< d d d e d &.C 9 1.r.` g ! p p 8 ,                       ",
"                    ; 8 ! ^ } O.r.X.X.a 9 e w e N N e d } o.} g ! ! f 8 ,                       ",
"                    + , 6 7 8 8 y g u * e d e e N &.r 3 8 ~ y 5 6 5 2 , &                       ",
"                    + @ * @ + = * * > 9 d d w e N &.N q : ; * * * @ = = +                       ",
"                    % 6 0 q , 6 d w 3 9 e e d w L L r q e 9 e k q w q 9 :                       ",
"                    @ 3 0 0 < 0 d e 3 9 e e w w L L V q e e k e 6 q 9 9 :                       ",
"                    @ 6 q q 6 0 e e 3 9 e d w e k L k q e l r e 6 q 9 9 :                       ",
"                    @ 3 q q 3 w e e q 3 w w w d I L k q d e e e 6 q 9 6 :                       ",
"                    + 6 9 q 3 q w w w 3 w q 3 9 9 e r w e e e e 6 9 9 6 :                       ",
"                    @ 6 q 9 6 q w w 0 9 q 9 6 8 5 9 e 0 e e w e 3 9 9 6 :                       ",
"                    + 3 q 9 6 w w q 9 3 9 3 ~ @.@.q 9 w r r e w 3 6 8 6 ;                       ",
"                    + 6 q 9 6 0 9 0 9 3 9 1 7 6 u 3 8 9 e w w q < 6 6 3 ;                       ",
"                    + < 9 9 6 w 9 q 9 6 6 = 3 7 7 , < 9 w e w w , 6 6 3 ;                       ",
"                    + 3 9 9 3 w 9 3 6 3 6 ; + $ $ * 9 9 w 6 w w < 3 3 3 ;                       ",
"                    X % ; ; ; ; > 5 3 3 q 6 ; % % < 0 6 < p , : * * * % O                       ",
"                    $ u ] ] X.t.t.@.r.5 6 q 9 6 9 w 9 8 t.o.@.] ] } / h 2                       ",
"                    # 2 p i / / } } ] p 3 9 9 6 6 8 9 w ! ^ ^ i i i u 8 ,                       ",
"                    X + % % % & % 2 1 * q 9 6 6 9 0 9 , = 7 = @ % % % + O                       ",
"                    X @ ; : % ; < * * , q 9 6 6 6 9 9 < < O ; = ; ; = @ +                       ",
"                    + , 6 6 ; < 8 3 3 : 9 9 6 < 6 9 9 , 9 9 0 r : < 3 , %                       ",
"                    O , 6 6 : < 9 9 3 : 9 9 3 , 2 6 6 , 8 r q w : 3 3 , %                       ",
"                    . O O $ % $ # # $ o o o X X X O O + + O + O O X O . .                       ",
"                    % h o.#.$.@.$.$.%.%.%.l.$.h %.%.%.%.%.$.#.#.@.#.#.] 7                       ",
"                    # t / h h / / / ] ] ] ] / u ^ #.$.o.] / / / f i i u 1                       ",
"                    O 2 t t t t y u u u u u y t u i i u u u y y t 4 t 2 &                       ",
"                    # 1 4 t y y y y y u u u u 4 t i i i u u u t y t t 2 &                       ",
"                    O & - - - - 1 2 2 2 - 2 2 - 2 2 4 2 - 2 1 1 1 1 - & #                       ",
"                                                                                                ",
"                                                                                                ",
"                                                                                                ",
"                                                                                                ",
"                                                                                                "
};
