/* XPM */
static char *result[] = {
/* columns rows colors chars-per-pixel */
"48 48 115 2 ",
"   c #4D2712",
".  c #522D16",
"X  c #542F19",
"o  c #543614",
"O  c #593D17",
"+  c #56321B",
"@  c #59351D",
"#  c #5C3B1D",
"$  c #593720",
"%  c #5C3B23",
"&  c #5B3E29",
"*  c #613E24",
"=  c #5E431C",
"-  c #61461E",
";  c #645617",
":  c #65561A",
">  c #665A19",
",  c #6B5B1E",
"<  c #705A1F",
"1  c #6B651A",
"2  c #6E6A1C",
"3  c #706C1E",
"4  c #6E731A",
"5  c #72751B",
"6  c #76791E",
"7  c #79791F",
"8  c #5D4420",
"9  c #5F4827",
"0  c #5E432F",
"q  c #5F4631",
"w  c #634226",
"e  c #654B25",
"r  c #65442A",
"t  c #69462A",
"y  c #664C2C",
"u  c #6A4A2D",
"i  c #675123",
"p  c #6B5424",
"a  c #6E5D25",
"s  c #67522F",
"d  c #6D542A",
"f  c #745C21",
"g  c #604732",
"h  c #634A35",
"j  c #6C4E32",
"k  c #644D3B",
"l  c #684F38",
"z  c #6E5134",
"x  c #67513E",
"c  c #6C533C",
"v  c #715436",
"b  c #745B35",
"n  c #735639",
"m  c #765A3B",
"M  c #795D3D",
"N  c #6F6620",
"B  c #706423",
"V  c #746A28",
"C  c #737726",
"Z  c #767924",
"A  c #7A7B20",
"S  c #79732E",
"D  c #767A2B",
"F  c #7A7D2C",
"G  c #796D33",
"H  c #7B603F",
"J  c #777C33",
"K  c #797B31",
"L  c #675340",
"P  c #6A5642",
"I  c #6C5A46",
"U  c #6E5D49",
"Y  c #735C45",
"T  c #7A5E41",
"R  c #715E4B",
"E  c #7D6241",
"W  c #74624D",
"Q  c #7B634D",
"!  c #766552",
"~  c #796751",
"^  c #7B6B55",
"/  c #7C6C59",
"(  c #7F705D",
")  c #847A26",
"_  c #806544",
"`  c #836749",
"'  c #856A4B",
"]  c #896F4E",
"[  c #8A714F",
"{  c #806E5A",
"}  c #8B7252",
"|  c #80705E",
" . c #937A5A",
".. c #827361",
"X. c #7D813D",
"o. c #7B8243",
"O. c #878226",
"+. c #8A8126",
"@. c #94852D",
"#. c #82833D",
"$. c #9B8531",
"%. c #A28D32",
"&. c #848340",
"*. c #83854B",
"=. c #89864B",
"-. c #828452",
";. c #8B8952",
":. c #8C8B5B",
">. c #918E5F",
",. c #8A8D63",
"<. c #938F66",
"1. c #988D63",
"2. c #969163",
"3. c #989263",
"4. c #969175",
/* pixels */
"5 5 5 5 5 5 5 5 5 5 5 5 5 5 5 5 5 5 5 5 5 5 5 5 5 5 5 5 5 5 5 5 5 5 5 5 5 5 5 5 5 5 5 5 5 5 5 5 ",
"5 5 5 5 5 5 5 5 5 5 5 5 5 5 5 5 5 5 5 5 5 5 5 5 5 5 5 5 5 5 5 5 5 5 5 5 5 5 5 5 5 5 5 5 5 5 5 5 ",
"5 5 5 5 5 5 5 5 5 5 5 5 5 5 5 5 5 5 5 5 5 5 5 5 5 5 5 5 5 5 5 5 5 6 5 5 5 5 5 5 5 5 5 5 5 5 5 5 ",
"5 5 5 5 5 5 5 5 5 5 5 5 5 7 5 6 5 5 5 5 5 5 5 5 5 7 5 5 5 5 5 5 5 5 5 5 5 5 5 5 5 5 5 5 5 5 5 5 ",
"5 5 5 5 5 5 5 5 5 5 5 5 7 5 4 ) 5 5 5 3 B B < 1 B B G S 5 5 5 5 5 5 5 5 5 5 5 5 5 5 5 5 5 5 5 5 ",
"5 5 5 Z =.Z 5 5 5 5 5 5 5 4 4 5 3 a f d _ _ _ v _ _ _ n p i 1 5 5 5 5 5 5 5 5 5 5 5 5 5 5 5 5 5 ",
"5 5 5 5 ;.C 5 5 5 5 5 5 5 5 5 < b ` _ t ] [ ` n _ _ ' v j v d i 5 5 5 5 5 5 5 5 6 5 5 5 5 5 5 5 ",
"5 5 5 5 5 5 5 5 5 5 5 5 5 B * n  . .] t } } ' _ ' [ } n T _ _ M # i 3 5 5 5 Z 6 4 5 5 5 5 5 5 5 ",
"5 5 5 5 5 5 5 5 5 5 5 5 3 m u _  . .[ w _ v _ v n _ _ * _ ` ] ` r u a 5 5 5 5 4 5 5 5 5 6 5 6 5 ",
"5 5 5 5 5 5 5 5 5 5 5 1 m ] v _ _ _ _ w _ _ v v v _ ) j * _ _ _ j T u : 5 5 5 5 5 5 5 5 <.:.F 5 ",
"5 5 5 5 5 5 5 5 5 5 5 a _ ] u j ` _ _ w _ v m v v _ b v _ T T T j E n - 5 5 5 5 5 5 5 5 C D X.5 ",
"5 5 5 5 5 5 5 5 5 5 3 b _ _ u v ` _ _ - _ _ _ m _ _ _ j m _ T T z E E m : 5 5 5 5 5 5 5 5 5 5 5 ",
"5 5 5 5 5 5 5 5 5 3 a E T M z m _ _ _ t m _ n m m M _ n T T T T v H E E i 2 5 5 5 5 5 5 5 5 5 5 ",
"5 5 5 5 5 5 5 5 5 2 d M M m j m _ _ _ j _ m M m _ _ _ n m _ T M v H M M b 1 5 5 5 5 5 5 5 5 5 5 ",
"5 5 5 5 5 5 5 5 5 2 d m m m z M _ _ _ t _ _ n _ _ _ _ v M M M T v H M M b 1 5 5 5 5 5 5 5 5 5 5 ",
"5 5 5 5 5 5 5 5 5 2 - * w t w t * j _ j m m _ b m _ _ n u T j t r r r w = 1 5 5 5 5 5 5 5 5 5 5 ",
"5 5 5 5 4 5 5 5 5 1 e c T W Q Q _ { ` * T M M M _ _ _ j ` { R T T R Y c s 1 5 5 5 5 5 5 5 5 5 5 ",
"6 6 5 6 5 5 5 5 5 1 e c R W Q ^ ' { { R v T M M _ M M T ~ ~ ~ ~ R W R c y 1 5 Z 5 5 5 5 5 5 5 5 ",
"5 6 5 X.,.*.5 5 5 1 - r l c c c Y R Y * T M m M M _ _ j n R P l l l h h e 1 5 5 5 5 5 5 5 5 5 5 ",
"5 5 D 1.=.*.5 5 5 2 - # # % @ * * * * v M T M M _ M M v t * * * * * w 8 = 1 5 5 5 5 5 5 5 5 5 5 ",
"5 X.X.=.>.=.5 5 5 1 e j v m r v _ n j v M M T m _ E E n M v M T z m n v e 1 5 5 5 5 5 5 5 5 5 5 ",
"5 4 5 *.5 5 5 5 5 1 - j m m u m T M j v M M m M E E H n T M M T z m v z u 1 5 5 5 5 5 5 5 7 6 5 ",
"5 5 5 5 5 5 5 5 5 1 - v m v z v M M j j M M m m E E H v M E M M z n n v i 1 5 5 5 5 5 5 5 4 5 5 ",
"5 5 5 5 5 5 5 5 5 1 - j v m u m m M n v M m m T E E E n T M M M z m z v e 1 5 5 5 5 5 5 5 5 5 5 ",
"5 5 5 5 5 5 5 5 5 1 = s v m z m m m n j m m z z m M H m M M M M z v n z e 1 5 5 5 5 5 5 5 5 5 5 ",
"5 5 5 5 5 5 5 5 5 1 - j n v j v m M n v n z z v c v M v H M M m j v z z y 1 5 5 5 5 5 5 5 5 5 5 ",
"5 5 5 5 5 5 5 5 5 1 = j v v z m m n v j v j W ^ ^ c v b H m m M j z z j e 1 5 5 5 5 5 5 5 5 5 5 ",
"5 5 5 5 5 5 5 5 5 2 = j v m z m v n v j v g c l Y l v v M m m m j z z z e 1 5 5 5 5 5 5 6 5 A 5 ",
"5 5 5 5 5 5 5 5 6 1 - j n n j m n v v z z 0 h l P r j z M m m m t z z j e 1 5 5 5 5 5 6 @.6 4 5 ",
"5 5 5 5 5 5 6 5 5 1 = u v n j m v z z j z w # $ $ w v z M z m m t j z l e 1 5 5 5 5 5 7 @.6 5 5 ",
"5 5 5 5 5 5 4 5 5 1 O % * * * t * l j j m j % # % u n z t Y r r * * % # # 1 5 5 5 5 5 5 5 5 5 5 ",
"5 5 5 5 5 5 5 5 5 1 - I ! ! { { { / { j z m n z n m n v { ^ / ~ ! ~ ! Y s 1 5 5 5 5 5 5 5 5 5 5 ",
"5 5 5 5 5 5 5 5 5 1 = l I R R ! W ~ ~ Y u m v z z m z n Q W W U R U U c 9 1 5 5 5 5 5 5 5 5 5 5 ",
"5 $.%.%.5 5 5 5 5 1 O $ % % % % % h h w n z v s z m n y & x & % $ % $ $ O 1 5 5 5 5 5 5 5 5 5 5 ",
"5 5 7 A 5 5 5 5 5 1 O # w r % w u w % r n n z z z v z j y @ w r 0 w w * = 1 5 5 5 5 5 5 5 5 5 5 ",
"5 5 5 5 5 5 5 5 5 1 - t d u 0 j z z z r z n z y j c j y n z m m w j j t e 1 5 5 5 5 5 5 5 5 5 5 ",
"5 5 5 5 5 5 5 5 4 1 = t z j r j c v z r v c j u j z v y v m n m w u j u w 1 5 5 5 5 5 5 5 5 5 5 ",
"5 5 5 5 5 5 5 5 5 1 O + @ % $ $ $ $ @ + X X . . . + + $ $ @ + $ + + X   o 1 5 5 5 5 5 5 5 5 5 4 ",
"5 5 5 5 5 5 5 5 5 1 w R ^ / / / / / ( ( { ../ R / ..../ / / / / ^ / ! ! l 1 4 5 5 5 5 5 5 5 5 5 ",
"5 5 5 5 5 5 5 5 5 1 8 P R R R R R ! ! ! ! ! W I ! ^ ! ^ ! ! R W W U U I s 1 5 5 5 5 5 5 5 5 5 5 ",
"6 4 5 5 5 5 5 5 5 1 = q L L L L P P I I I I P x I U U I U I P P x x L q 9 1 5 5 5 5 5 5 5 5 5 5 ",
"5 4 5 5 5 5 5 5 5 1 8 q L L L L P P P I I U P x P U U U I P P P P P L q 9 1 5 5 5 5 5 5 5 5 5 5 ",
"5 5 5 5 5 5 5 5 5 1 = 8 0 q q q g h h h q h q 0 q k q k q q y q q q 0 0 = 1 5 5 5 5 5 5 6 6 7 5 ",
"5 5 5 5 5 5 5 Z 3.5 > ; ; : : : > ; ; , a f ; ; : : > > > > ; ; ; ; ; ; > 2 5 5 5 5 5 D ;.F 6 5 ",
"6 5 5 5 5 5 5 Z *.5 5 5 4 5 5 4 5 6 5 7 @.) 5 5 4 5 F Z *.5 5 5 5 5 4 5 5 5 5 5 5 Z Z D o.-.5 5 ",
"#.X.5 5 5 6 5 5 5 5 5 5 4 5 4 6 5 4 5 +.) 5 5 5 5 5 2.;.A 5 5 5 5 5 5 5 5 5 5 5 5 5 1.;.C J 5 5 ",
">.#.5 X.5 5 5 5 5 5 5 5 6 6 7 5 5 5 5 5 5 5 6 5 5 5 4 4 5 5 5 5 5 5 5 5 5 5 5 5 5 5 4 4 5 5 5 5 ",
"5 4 X.3.X.X.5 5 5 5 5 5 5 O.) 5 5 5 5 5 6 6 6 5 5 5 5 5 5 5 5 5 5 5 5 5 5 5 5 5 5 5 5 5 5 5 5 5 "
};
