/* XPM */
static char *_0db5141d672429bac8cbb43dd193a76JqDovU66LfhY64iE[] = {
/* columns rows colors chars-per-pixel */
"48 48 179 2 ",
"   c #6E731A",
".  c #72751B",
"X  c #76791E",
"o  c #79791F",
"O  c #6F7723",
"+  c #6F7825",
"@  c #6C7A2B",
"#  c #717723",
"$  c #777A24",
"%  c #7A7B20",
"&  c #757B2B",
"*  c #7A7D2C",
"=  c #6A7C34",
"-  c #677E3A",
";  c #697F3A",
":  c #797B31",
">  c #777C33",
",  c #847A26",
"<  c #7C8034",
"1  c #7D813D",
"2  c #5E8553",
"3  c #5C895E",
"4  c #648246",
"5  c #62834A",
"6  c #7B8243",
"7  c #6E8952",
"8  c #638755",
"9  c #5A8A62",
"0  c #558D6F",
"q  c #538F73",
"w  c #569072",
"e  c #5D9474",
"r  c #60957A",
"t  c #639475",
"y  c #7C9371",
"u  c #878226",
"i  c #8A8126",
"p  c #94852D",
"a  c #83833C",
"s  c #9B8531",
"d  c #A28D32",
"f  c #83854B",
"g  c #8A874C",
"h  c #848340",
"j  c #8C8A52",
"k  c #8C8B5B",
"l  c #828452",
"z  c #918E5F",
"x  c #8A8D63",
"c  c #938F66",
"v  c #988D63",
"b  c #969163",
"n  c #969175",
"m  c #3FA2B5",
"M  c #4E9281",
"N  c #4C958A",
"B  c #549583",
"V  c #5B9B85",
"C  c #559A8C",
"Z  c #4B9993",
"A  c #4D9D9A",
"S  c #539D94",
"D  c #629A83",
"F  c #56A097",
"G  c #5AA29D",
"H  c #57A29A",
"J  c #68A396",
"K  c #4E9FA1",
"L  c #4AA2A7",
"P  c #5CAAA5",
"I  c #55A4AF",
"U  c #5FA6AD",
"Y  c #57A9AB",
"T  c #44A9BC",
"R  c #54AEB8",
"E  c #56A9B7",
"W  c #6CB3B9",
"Q  c #3DADCF",
"!  c #2FACDA",
"~  c #3BB2DD",
"^  c #43ABC5",
"/  c #4AB1CA",
"(  c #58B8C9",
")  c #44AFD0",
"_  c #49B3D0",
"`  c #43B4DD",
"'  c #48BADE",
"]  c #52B9D2",
"[  c #6BB8C8",
"{  c #65BBC4",
"}  c #78BECA",
"|  c #6CBED6",
" . c #4DBCE1",
".. c #46BAE0",
"X. c #55BBE1",
"o. c #5DBEE2",
"O. c #60BFE3",
"+. c #6BC2CC",
"@. c #6AC6D8",
"#. c #6ECCDC",
"$. c #63C1D6",
"%. c #73CDDD",
"&. c #76C0D4",
"*. c #7CD1DE",
"=. c #51C0E3",
"-. c #5CC7E6",
";. c #64C2E4",
":. c #6AC5E5",
">. c #6CCBE6",
",. c #6BCEE9",
"<. c #70C6E6",
"1. c #71CCE4",
"2. c #79CAE7",
"3. c #76CDE9",
"4. c #7ACAE8",
"5. c #72D4EB",
"6. c #7DD3EB",
"7. c #7DDAED",
"8. c #77D3E3",
"9. c #81C7D4",
"0. c #88C3D0",
"q. c #88C8D8",
"w. c #84C9DD",
"e. c #94CCD7",
"r. c #88CFEA",
"t. c #8CCEE4",
"y. c #83D5EC",
"u. c #8BD4EB",
"i. c #82DBEF",
"p. c #88D9E6",
"a. c #92D3EC",
"s. c #9AD7ED",
"d. c #9DD8EE",
"f. c #A2DAEF",
"g. c #ACDEEF",
"h. c #ACDEF0",
"j. c #A6DCF0",
"k. c #B0DFF0",
"l. c #86E0F0",
"z. c #93E4F2",
"x. c #96E9F4",
"c. c #9FEFF7",
"v. c #B9E0EB",
"b. c #ACE2F2",
"n. c #A5EBF5",
"m. c #ACECF5",
"M. c #A4E5F3",
"N. c #B2E1F2",
"B. c #BCE5F3",
"V. c #B7EBF5",
"C. c #BCEEF6",
"Z. c #A0F0F7",
"A. c #ACF7FA",
"S. c #AFF8FA",
"D. c #A5F2F8",
"F. c #B0F1F8",
"G. c #BBF1F8",
"H. c #B4F8FA",
"J. c #BAF8FA",
"K. c #C7E9F5",
"L. c #CBEAF5",
"P. c #C1E6F4",
"I. c #DCEFF6",
"U. c #D6EFF8",
"Y. c #D3ECF4",
"T. c #C5F3F9",
"R. c #C3F9FB",
"E. c #CAFAFC",
"W. c #CDF6FA",
"Q. c #D4F1F8",
"!. c #DCF1F9",
"~. c #D5FBFD",
"^. c #DCFBFD",
"/. c #E5F5FA",
"(. c #EAF6FB",
"). c #E3FCFD",
"_. c #EDFBFD",
"`. c #F4FDFE",
"'. c #FEFFFF",
/* pixels */
". . . . . . . . . . . . . . . . . . . . . . . . . . . . . . . . . . . . . . . . . . . . . . . . ",
". . . . . . . . . . . . . . . . . . . . . . . . . . . . . . . . . . . . . . . . . . . . . . . . ",
". . . . . . . . . . . . . . . . . . . . . . . . . . . . . . . . . X . . . . . . . . . . . . . . ",
". . . . . . . . . . . . X X . . . . . . . . . . . . . . . . . . .   . . . . . . . . . . . . . . ",
". . . . . . . . . . . . & & B ` ` ` ` ` ~ ` ` ` ` ` S 7 @ . . . . . . . . . . . . . . . . . . . ",
". . . X g $ . . . . . = M Z W h.N.h.N.N.N.k.k.N.k.k.q.U Z 4 . . . . . . . . . . . . . . . . . . ",
". . . # j # . . . . 4 D q.a.B.'.'.'.'.'.'.'.'.'.'.'.L.f.a.J 2 + . . . . . . . . X . . . . . . . ",
". . . . . . . . . = D } Y.(._.'.'.`._._.`.`.'.'.'.'.`.(.(.9.H 7 O . . . . . X .   . . . . . . . ",
". . . . . . .   # N t./.'.'.'.'.'.E.H.S.J.~.'.'.'.'.'.'.'.G.6.E y j . . . . .   . . . . X . X . ",
". . . . . . . - N e.!.'.'.'.'.'.`._.).).)._.'.'.'.'.'.'.'._.T.8.E 8 . . . . . . . . . . c k * . ",
". . . . . . . 5 T k.'.'.'.'.`.^.^.^.~.).^.)._.'.'.'.'.'.'.'.).z...9 . . . . . . . . . . # * 1 . ",
". . . . . . = t [ L.'.'.'.'._.W.E.E.E.E.E.E.^.`.'.'.'.'.'.'._.m.>.V - . . . . . . . . . . . . . ",
". . . . . # 2 W v.(.'.'.'.`.`.`._.`._._.`._.`.'.'.'.'.'.'.'.`.^.n.( w @ . . . . . . . . . . . . ",
". . . . . O 9 | Y.'.'.(.r.:.f.'.'.'.'.'.'.'.'.'.'.'.'.'.'.'.'._.J.-.B @ . . . . . . . . . . . . ",
". . . . . O 9 | U.'.L.f.s.s.s.g./.'.!.a.a.a.a.f.`.'.'.'.'.'.'.).J.-.q @ . . . . . . . . . .   . ",
". . . . . - r w.!.'.f.O.U.`.k.O.L.'.P.~ o.O.' X./.'.'.'.'.'.'._.E.5.A 4 # . . . . . . . . . . . ",
". . . # . S } I.'.'.d.;.!.'.k.o.L.'.B.~ B./.d.;./.'.'.'.'.'.'.'.`.H.#.L = . . . . . . . . . . . ",
". X X & . K 4.`.'.'.d.O.!.'.N.o.K.'.B.` U.'.N.;./.'.'.'.'.'.'.'.'.E.5.T - . . X . . . . . . . . ",
". X # , x I 4.(.'.'.V.6.s.j.u.y.Q.'.U.,.s.f.u.y.(.'.'.'.'.'.'.'.'.E.5.T - . $ . . . . . . . . . ",
". . & v f I 4.(.'.'.).G.4.;.3.z.V.K.V.l.>.:.u.G.'.'.'.'.'.'.'.'.'.E.5.T -   . . . . . . . . . . ",
". , 6 k z I 2.(.'.'.`._.U.L.s.;.:.<.:.:.h.L.U.(.'.'.'.'.'.'.'.'.'.E.5.T = . . . . . . . . . . . ",
".     f . K 2.`.'.'.'.'.`.h.r.K.K.K.L.B.r.B.'.'.'.'.'.'.'.'.'.'.'.E.5.T < . . . . . . . . $ X . ",
". . . . . K 4.(.'.'.'.'.`.a.o.h.h.h.h.f.-.f.'.'.'.'.'.'.'.'.'.'.'.E.5.m -   . . . . . . .   . . ",
". . . . . K 4.`.'.'.'.'.(.a.! ! ! ! ! ! ` f.'.'.'.'.'.'.'.'.'.'.'.E.5.m 4   . . . . . . . . . . ",
". . . . . K 2.(.'.'.'.'.(.a.! ! ! ! ! ! ` d.'.'.'.'.'.'.'.'.'.'.'.E.5.T = . . . . . . . . . . . ",
". . . . . K 2.`.'.'.'.'.(.a.! ! ! ! ! ! ` d.`.'.'.'.'.'.'.'.'.'.'.E.5.T - . . . . . . . . . . . ",
". . . . . K 2.`.'.'.'.'.`.a.! ! ! ! ! ! ' f.'.'.'.'.'.'.'.'.'.'.'.E.5.T - . . . . . . . . .   . ",
". . . . . K 2.(.'.'.'.'.(.a.! ! ! ! ! ! ` s.'.'.'.'.'.'.'.'.'.`.`.E.5.T - . . . . . . . . . < . ",
". . . . . K 4.`.'.'.'.'.`.u.! ! ! ! ! ! ` d.'.'.'.'.'.'.'.`.).E.`.E.8.T < . . . . . . . i <   . ",
". . . . . K 4.(.'.'.'.'.(.s.;.N.g.O.O.h.;.f.'.'.'.'.'.'.'.'.`._.`.E.5.T < . . . . . . u i < . . ",
". . . .   K 4.(.'.'.'.'.`.h.4.h.f.o.O.f.y.V.'.'.'.'.'.'.'.).^.).`.E.5.m @   . . . . . . . . . . ",
". .   . . K 4.`.'.'.'.'.`.^.M.2.2.<.:.r.V.^.`._.'.'.'.'.'.E.H.E._.J.5.m 4   . . . . . . . . . . ",
". , , . . K 4.(.'.'.'.'.'.`._.U.Q.Q.U.!._.`.).~.`.'.'.'.'.E.S.R._.E.5.T 4       . . . . . . . . ",
". , s d . K 4.`.'.'.'.'.'.'.'.`.~.E.~.'.'.'.`._.'.'.'.'.'._.)._.'.E.5.T <       . . . . . . . . ",
". . o o . K 4.(.'.'._.^.'.'.'.`.).~.).'.'.'.`.).'.'.'.`.~.`.'.'.'.E.z.#.V 5 . . . . . . . . . . ",
". . . . . K 4.(.'.'.^.R._.'.'.'.'._.`.'.'.'.^.R.`.'.'.`.J.).'.'.'.R.A.x./ 0 . . . . . . . . . . ",
". . . . . A 4.`.'.'.~.R.`.'.'.'.'.~.~.'.'.'.^.R.`.'.'.`.H.).'.'.`.R.A.x._ w   . . . . . . . . . ",
". . . . X K 4.(.'.'.~.J._.'.'.'.'._._.'.'.'.).R.`.'.'._.H.).'.`.~.J.S.x.) w X   . . . . . . . . ",
". . . . . K 4.`.'.'.K.z.W.`.'.'.'.'.'.'.'.'.).R.`.'.'./.i.G.^.E.H.A.A.c.1.Y w 3 <   . . . . . . ",
". o . . . K <./.'.'.d. .i.G.)._._.)._._.)._.T.n.^.`.'.U.~ l.S.A.S.A.A.A.D.7.=.( w @   . . . . . ",
"X   . . . A $.V.).`.s.` ] p.A.V.F.F.F.F.F.F.p.@.V.^.`.Q.~ 7.c.c.Z.Z.x.x.Z.x.7.#.R 2             ",
". . . . . 4 V %.m.R.7.^ w G =.=.=.=.=.=.=.' Y e $.z.R.n.~ ' =.=.=.=.=...=.=.=...Q 3 <   <   <   ",
". . . . . # 5 P %.i.{ B - 3 Z Z Z Z F G S Z 9 4 C +.7.%.A Z Z Z Z Z N Z Z Z N Z N 4         <   ",
". . . . . . # 8 ) ~ A =   + @ @ @ @ + < < a & . < L ~ T 8 @ @ @ 4 < @ @ < < < . <     < a <     ",
"X X X . . . . $ f . . . . . . . . X . o p u . .   . < # f . . .     <   . . . .   < X < g 6 . . ",
"a $ X X . X . . . . . . . . . . .   . u , . . .     b j : . . .         . . . . . . b g < X . . ",
"v a   < X . . . . . . . X X % . . . . . . . . . . .     . . . . .     < . . . . . .     . . . . ",
"  . & n 6 > . . . . . .   u , . . . . . X X X . . . . . . . . . .       . . . . . . . . . . . . "
};
