/* XPM */
static char *_3246106a07346c3c61f44503fac5f3bawLyJrdRaZCPplql[] = {
/* columns rows colors chars-per-pixel */
"48 48 191 2 ",
"   c #72751B",
".  c #74771D",
"X  c #73761C",
"o  c #74781E",
"O  c #71751B",
"+  c #75781D",
"@  c #76791E",
"#  c #71761D",
"$  c #71741B",
"%  c #76791F",
"&  c #75781F",
"*  c #6E731B",
"=  c #7A7D22",
"-  c #787C22",
";  c #808235",
":  c #7C7E2D",
">  c #74771F",
",  c #898748",
"<  c #777A27",
"1  c #70741C",
"2  c #71751C",
"3  c #6C721B",
"4  c #6F731A",
"5  c #918957",
"6  c #8A854A",
"7  c #73761F",
"8  c #8B8956",
"9  c #747726",
"0  c #72761D",
"q  c #6F731B",
"w  c #767A20",
"e  c #787B21",
"r  c #7B7D2F",
"t  c #777A20",
"y  c #6F741C",
"u  c #8A8A59",
"i  c #82854A",
"p  c #777927",
"a  c #A69777",
"s  c #8E8D59",
"d  c #8C8B51",
"f  c #6D721A",
"g  c #75781E",
"h  c #727832",
"j  c #6F7529",
"k  c #898547",
"l  c #767A2E",
"z  c #7B7E39",
"x  c #737622",
"c  c #908E66",
"v  c #8D8D5E",
"b  c #7B7E2A",
"n  c #70741B",
"m  c #727726",
"M  c #78782F",
"N  c #7F813E",
"B  c #797C21",
"V  c #787C21",
"C  c #777B2D",
"Z  c #94832F",
"A  c #807C25",
"S  c #6F741B",
"D  c #777A1F",
"F  c #86884B",
"G  c #7B7D40",
"H  c #6E731A",
"J  c #94892A",
"K  c #867A28",
"L  c #797720",
"P  c #9A882F",
"I  c #73771E",
"U  c #81833C",
"Y  c #8A8D63",
"T  c #80864C",
"R  c #787A2A",
"E  c #8D8755",
"W  c #98956F",
"Q  c #85874A",
"!  c #76771D",
"~  c #96832F",
"^  c #7A791F",
"/  c #6F721A",
"(  c #75792A",
")  c #968F65",
"_  c #85864D",
"`  c #85854A",
"'  c #76792A",
"]  c #70731A",
"[  c #81803C",
"{  c #7B803B",
"}  c #8A874F",
"|  c #918E5F",
" . c #88844A",
".. c #6E721A",
"X. c #838549",
"o. c #777B21",
"O. c #70741A",
"+. c #747824",
"@. c #7A7F36",
"#. c #787B20",
"$. c #858A5A",
"%. c #808344",
"&. c #77781D",
"*. c #91862C",
"=. c #787A20",
"-. c #73771D",
";. c #94822D",
":. c #77771E",
">. c #74771C",
",. c #73761D",
"<. c #7B7E22",
"1. c #72751C",
"2. c #71751D",
"3. c #7F8135",
"4. c #777B25",
"5. c #78781E",
"6. c #777825",
"7. c #908C5E",
"8. c #808040",
"9. c #998331",
"0. c #9C8731",
"q. c #A28D32",
"w. c #828244",
"e. c #7C7A20",
"r. c #7A7F30",
"t. c #8E8A5B",
"y. c #727724",
"u. c #787926",
"i. c #878645",
"p. c #717522",
"a. c #868759",
"s. c #9D9776",
"d. c #73751C",
"f. c #747724",
"g. c #75791F",
"h. c #757823",
"j. c #6F741A",
"k. c #8E8729",
"l. c #77771D",
"z. c #A48B35",
"x. c #9D8832",
"c. c #72761C",
"v. c #76741F",
"b. c #828023",
"n. c #A38A35",
"m. c #807F23",
"M. c #797B20",
"N. c #767823",
"B. c #989263",
"V. c #807C22",
"C. c #867C27",
"Z. c #8D7E2B",
"A. c #787A1F",
"S. c #767B2C",
"D. c #8B8958",
"F. c #787D2E",
"G. c #777A1E",
"H. c #75771D",
"J. c #858449",
"K. c #75791E",
"L. c #7D7B20",
"P. c #97862E",
"I. c #837A25",
"U. c #7B7E2B",
"Y. c #757924",
"T. c #828648",
"R. c #787B28",
"E. c #828452",
"W. c #80854E",
"Q. c #84863E",
"!. c #777A25",
"~. c #8A8126",
"^. c #857C26",
"/. c #959063",
"(. c #8C8950",
"). c #797A30",
"_. c #969163",
"`. c #8B8950",
"'. c #74751E",
"]. c #797930",
"[. c #988D63",
"{. c #848340",
"}. c #7B7F2F",
"|. c #7A7B1F",
" X c #777C33",
".X c #969175",
"XX c #7B8243",
"oX c #797E33",
"OX c #878226",
"+X c #837926",
"@X c #767A1F",
/* pixels */
"                                                                                                ",
"                                                                                                ",
"                            .                                   X o O                           ",
"                        + @ # .                   .   .           $ O                           ",
"                      X % & * = X               X - ; :                                         ",
"      > , <             1 2 3 4                   4 5 6                                         ",
"      7 8 9               0 q                       $ $                         w               ",
"                                      X e .                   r             t & y               ",
"                                    % u i                   p a s d         O f $     X g   %   ",
"                                    2 h j                   k l z x                     c v b   ",
"                                    O 2 n                   $                           m M N   ",
"                                                                                                ",
"                                                                                                ",
"                                                                                                ",
"                                                                .                               ",
"                                        X                       B . % X                         ",
"                                    X V C g o                 g Z A S                           ",
"X D . .                             2 F G 1 H                 J K L P         @                 ",
"X I 0 U Y T                         R E W Q                 ! ~ ^   /     I % 2                 ",
"  0 ( ) _ `                           n ' $                   ]           n I O                 ",
"  [ { } |  .                                                                                    ",
"  ..] X.]                                       X . g t                                 X e g   ",
"                        X e X X X                 e * O                                 $ ..    ",
"                          q 1 o.                  O.                                            ",
"                            $ ..                                                                ",
"                                                                                                ",
"                                B X                                                             ",
"                                +.@.% .                                               X D X #.  ",
"            %   .               $.%.n                                                 &.*.=.q   ",
"            I -.0               / $                         .                         ^ ;.:.    ",
"            O.O.                          D             >.. ,.<.X                               ",
"                                        1.2.X           O o 3.4.X                               ",
"  5.!                                     n O             6.7.8.                                ",
"  9.0.q.                  D g @ X                         w.$                                   ",
"  ] 5.e.                -.r.t.y.u.i.              . .                                           ",
"                          p.a.s.d.f.              X g.                                          ",
"                            h.z                     4                                           ",
"                                                                                                ",
"X X                                                                 @                           ",
"  D                     @ +                                       . X                           ",
"D j.                    O t k.        X                           O O                           ",
"O.O                     O l.z.x.    . c.% D                                             X       ",
"                X           ] v.    b.n.m.-.                                          . -.g M.  ",
"              N.B.c.            + X n V.C.Z.        A.X @ X                           S.D.F.-.  ",
"G.X H.X       p J.O             >.K.  L.P.I.      . U.Y.T.                        D R.' E.W.O.  ",
"Q.!.-.+   .                       4   ~.^.        O /.(.).                        X _.`.'.].    ",
"[.{.O.}.%               @ &.|.              >.      ..]                             ..]         ",
"n    X.XXXoX            O OX+X          @ -.@X                                                  "
};
