/* XPM */
static char *_630aaee17214b1bb5537b06b01efbaaXv2mz1P7UC516XLt[] = {
/* columns rows colors chars-per-pixel */
"48 48 169 2 ",
"   c #291F32",
".  c #351E35",
"X  c #1F2C2E",
"o  c #22222F",
"O  c #28262E",
"+  c #222E2B",
"@  c #2E2D2D",
"#  c #22302B",
"$  c #2E352D",
"%  c #2D3929",
"&  c #233928",
"*  c #363E2A",
"=  c #3A3A2A",
"-  c #33352D",
";  c #2F2032",
":  c #242E35",
">  c #3E2234",
",  c #312332",
"<  c #373C33",
"1  c #313034",
"2  c #441E38",
"3  c #5E1D3E",
"4  c #541D3C",
"5  c #621F3E",
"6  c #412534",
"7  c #4E2237",
"8  c #473131",
"9  c #552D35",
"0  c #6A2839",
"q  c #75273C",
"w  c #7B2C3D",
"e  c #633C31",
"r  c #793839",
"t  c #72313B",
"y  c #25531F",
"u  c #2B5D1E",
"i  c #315F1F",
"p  c #19651F",
"a  c #277515",
"s  c #227018",
"d  c #247A1C",
"f  c #347917",
"g  c #276819",
"h  c #105A27",
"j  c #2F4328",
"k  c #374E23",
"l  c #38442B",
"z  c #245220",
"x  c #2B5321",
"c  c #375923",
"v  c #196B27",
"b  c #1D7023",
"n  c #267325",
"m  c #297D30",
"M  c #4B7A1E",
"N  c #64671F",
"B  c #67691E",
"V  c #6B6E1D",
"C  c #72751B",
"Z  c #76781E",
"A  c #79781F",
"S  c #78771E",
"D  c #4A4A26",
"F  c #434726",
"G  c #524529",
"H  c #435E25",
"J  c #4A5C26",
"K  c #465329",
"L  c #505124",
"P  c #5C5E21",
"I  c #54542D",
"U  c #496027",
"Y  c #4E642A",
"T  c #5E6020",
"R  c #516C26",
"E  c #5B7C22",
"W  c #5E7236",
"Q  c #696924",
"!  c #747721",
"~  c #767823",
"^  c #7C7A22",
"/  c #777A29",
"(  c #797B2C",
")  c #787128",
"_  c #7C7E34",
"`  c #313741",
"'  c #761C44",
"]  c #722140",
"[  c #3F404D",
"{  c #2E6B48",
"}  c #464453",
"|  c #777847",
" . c #85343D",
".. c #827C24",
"X. c #897F27",
"o. c #807F35",
"O. c #8E1F47",
"+. c #881C48",
"@. c #921E48",
"#. c #A41F4C",
"$. c #9B2D44",
"%. c #AC2C45",
"&. c #AB214B",
"*. c #B12D44",
"=. c #B92A48",
"-. c #AB3F41",
";. c #B33144",
":. c #BA3845",
">. c #B73347",
",. c #C42D49",
"<. c #CA2F48",
"1. c #C13E45",
"2. c #C2324B",
"3. c #CB3048",
"4. c #D83D49",
"5. c #D03448",
"6. c #C44346",
"7. c #C84346",
"8. c #DB434A",
"9. c #E0464A",
"0. c #2E8810",
"q. c #348B11",
"w. c #3E8E13",
"e. c #318417",
"r. c #3C8023",
"t. c #46801A",
"y. c #468918",
"u. c #448E17",
"i. c #4D9316",
"p. c #479115",
"a. c #539617",
"s. c #59941D",
"d. c #5A881E",
"f. c #658E1F",
"g. c #60961F",
"h. c #649B1B",
"j. c #6A9E1C",
"k. c #6B961F",
"l. c #709D1E",
"z. c #72A11D",
"x. c #458622",
"c. c #5E8122",
"v. c #658B20",
"b. c #7E803D",
"n. c #71942D",
"m. c #7CAA24",
"M. c #78A621",
"N. c #4D9158",
"B. c #7F8140",
"V. c #81813C",
"C. c #81AB2B",
"Z. c #87B32C",
"A. c #8EAF3F",
"S. c #87A93A",
"D. c #8BB730",
"F. c #8FBA33",
"G. c #95BF37",
"H. c #9CC53C",
"J. c #97C139",
"K. c #A0C83F",
"L. c #84854A",
"P. c #868548",
"I. c #898852",
"U. c #A4CC42",
"Y. c #739883",
"T. c #71A580",
"R. c #83AF94",
"E. c #B8C4BF",
"W. c #DADADD",
/* pixels */
"C C C C C C C C C C C C C C C C C C C C C C C C C C C C C C C C C C C C C C C C C C C C C C C C ",
"C C C C C C C C C C C C C C C C C C C C C C C C C C C C C C C C C C C C C C C C C C C C C C C C ",
"C C C C C C C C C C C C C C C C C C C C C C C C C C C C C C C C C C C C C C C C C C C C C C C C ",
"C C C C C C C C C C C C C C C C C C C C Z Z C Z C C C C C C C C Z C C Z C C C C C C C C C C C C ",
"C C C C C C C C C C C C C C C C C C C ! ( b./ C C C C C C C C C C C C C C C C C C C ! ~ ! C C C ",
"C C C C C C C C C C C C C C C C C C C ! ^ V./ C C C C C C C C C C C C C C C C C C C / / ~ C C C ",
"C C C C C C C C C C C C C C C Z C C C C Z Z C C C C C C C C C C C C C C C C C C C C ~ / / C C C ",
"C C C C C C C C C C C V L D D D F L V C C C T D D D D D D F D P C C C V L D D D P C ! ~ ! C C C ",
"C ! ! ~ ! C C C C C B P * $ $ $ $ * P V C Q D $ % $ $ $ $ - $ D N C V T 8 6 6 6 G N C C C C C C ",
"C ( V.b./ C C C C C L * E v.v.v.f.E = L B = J v.f.f.f.f.f.v.v.J = N D 8 -.7.6.6.r * N C C C C C ",
"! / _ ( ! C C C C C D O K U U J U K O - F O * U J J J U U U J l O F 9 q 2.8.4.4.w @ N C C C C C ",
"C ! ! ! C C C C C B G > 6 6 6 6 > 6 > > > > > > 6 6 > > 6 6 6 > > . 3 @.=.=.*.%.t = N C C C C C ",
"C C C C C C C C B = r 7.7.6.1.;.:.6.;.*.*.*.*.>.1.:.*.6.6.6.6.:.%.O.3 4 @.5 > > G N C C C C C C ",
"C C C C C C C C N $ 9  .>.>.2.<.2.2.<.<.5.<.<.<.2.2.3.2.2.2.>.$.q 5 .   4 3 5 q e L V C C C C C ",
"C C C C C C C C N @ ; 4 @.#.#.,.=.&.,.3.3.3.<.,.&.=.,.&.#.#.#.] . . . .   5 %.<.q @ N C C C C C ",
"C C C C C C C C N @ 0 *.,.,.<.<.<.,.<.3.3.3.3.<.,.<.3.,.,.,.3.=.%.O.+.' . q 3.8.w @ N C C C C C ",
"C C C C C C C C N @ 4 q q q q q q q q q q q q q q q q q q q q q q 5 3 4   q 5.9. .@ V C C C C C ",
"C C C C C C C V T % X : [ } } } } [ : + X X ` } } } } } ` + + # # # # + o 0 ;.8. .@ Q Z / C Z C ",
"C C C C C C C L % g v { E.W.W.W.W.E.{ p d h Y.W.W.W.W.W.Y.h s a a a a g + ; 9 7.O.1 | B.B./ C C ",
"C C C C C C C D # t.e.m T.R.R.R.R.T.m e.u.d N.R.R.R.R.R.N.d u.i.i.i.i.y.u & ; t e I | I.I.( / ! ",
"C C C C C C C D $ f.a.0.v v v v v v e.a.h.w.n b v v v v d w.j.z.z.z.z.j.u.y o @ J Z b.P.P.b./ ! ",
"C C C C C C C D $ f.j.h.h.g.g.h.g.h.h.j.M.h.g.g.g.g.g.g.h.j.l.z.z.z.z.z.h.H @ P V C C b.( Z C C ",
"C C C C C C C D $ v.l.j.x.r.r.r.f x.m M f r.r.r.r.r.r.r.r.x.j.z.z.z.z.z.l.U @ N C C C Z ! C C C ",
"C C C C C C C D $ f.l.s.n v v v v v n v v v v v v v v v v n s.j.z.z.z.z.z.U @ N C C C C Z C C C ",
"C C C C C C C D $ f.a.w.s.g.s.g.g.g.g.s.g.g.h.s.g.g.g.g.g.s.w.a.z.z.z.z.z.U @ N C C C C C C C C ",
"C C C C C C C D $ f.s.a.z.z.z.z.h.i.i.i.i.i.i.a.h.M.z.z.z.l.a.s.z.z.z.z.z.U @ N C C C C C C C C ",
"C C C C C C C L = E g.j.z.z.z.z.a.q.q.q.q.q.q.w.h.z.z.z.z.z.z.z.z.z.j.k.f.J = N C C C C C C C C ",
"C C C A S C C V P = i w.h.z.z.z.j.j.h.j.j.h.j.j.z.z.z.z.z.z.z.z.z.l.a.f j D V C C C C C C C C C ",
"C C Z ..A C C C V L k u y.i.a.j.z.z.z.z.z.z.z.z.z.z.z.z.z.z.z.z.j.a.f x F T C C C C C C C C C C ",
"C C S ..A Z C C C C L % g a f h.z.z.z.z.z.z.z.z.z.z.z.z.z.j.z.z.j.w.u @ N C C C C C C C C C C C ",
"C C C S C C C C C C V P % # j g.z.z.z.z.z.z.z.z.z.z.z.z.a.w.j.z.j.j.H @ N C C C C C C C C C C C ",
"C C C C C C C C C C C N @ l R k.m.D.D.D.D.D.D.D.D.D.Z.z.M i g.z.z.z.U @ N C C C C C C C C C C C ",
"C C C C C C C C C C C N @ J z.z.F.U.U.U.U.U.U.U.U.U.H.C.Y $ d.h.j.h.H @ N C C C C C C C S S Z C ",
"C C C C C C C C C C C N @ H z.J.U.U.U.U.U.U.U.U.U.U.K.K.W # f q.q.q.x @ N C C C C C C A X.X...A ",
"C C C C C C C C C C C N - U C.H.U.U.U.U.U.U.U.U.U.U.U.U.n.U y y z z k L V C C C C C C C ....A S ",
"C C C C C C C C C C C N @ R z.H.U.U.U.U.U.U.U.U.U.U.U.U.D.f.l $ # o D Z C C C C C C C C C C C C ",
"C C C C C C C C C C C B @ U z.K.U.U.U.U.U.U.U.U.U.U.U.U.D.l.f.t.g + D C C C C C C C C C C C C C ",
"C C C C C C C C C C T D J E z.Z.J.U.U.U.U.U.U.K.U.U.U.F.C.l.z.h.u.x k L V C C C C C C C C C C C ",
"C C C C C C C C C C D - k.z.z.z.C.A.A.A.A.A.A.A.A.A.S.k.k.z.z.z.j.q.z @ N C C C C C C C C C C C ",
"C C C C C C C C C C D - f.z.z.z.R < < < < < < < < < < $ R l.z.z.h.q.y $ N C C C C C C C C Z C C ",
"C C C C C C C C C C D # M i.i.i.c O F D D D D D D D F ; c i.i.i.p.0.y @ N C C C C C C C C C C C ",
"C C C C C C C C C C L & g a a a x = N C C C C C C Z Q = x a a a a a y * B C C C C C C C C C C C ",
"Z Z ! / ! C C C C C V P % + & + F B C C C C C C C Z ~ ) L # # # + # F B C C C / Z C C C C C C C ",
"C ~ _ _ ( ! Z C C C C V L D D D P C Z ! ~ S Z C C Z ^ X.Q D D D D D T C C C ! _ ( C C C C C C C ",
"C / _ B._ ( Z C C C C C C C C C C C ! ( ( / ~ C C Z ......Z Z C C C C C C C ! _ ( C C C C C ! ! ",
"C ! / / o.o.! C C C C C C C C C C C ! ( o.o.( C C C Z ..A Z C C C C C C C C C ! ! C C Z Z ! b.V.",
"C C ! ! C ^ C C C C C C C C C C C C C ! / ( ! C C C C S Z C C V C A A A C C C C C C ~ _ _ ( ( V.",
"C C C C C C C C C C C C C C C C C C C C C C C C C C Z C C C C C Z ..A A C C C C C ! ( b.L._ ^ ( "
};
