/* XPM */
static char *result[] = {
/* columns rows colors chars-per-pixel */
"48 48 169 2 ",
"   c #291F32",
".  c #351E35",
"X  c #1F2C2E",
"o  c #22222F",
"O  c #28262E",
"+  c #222E2B",
"@  c #2E2D2D",
"#  c #22302B",
"$  c #2E352D",
"%  c #2D3929",
"&  c #233928",
"*  c #363E2A",
"=  c #3A3A2A",
"-  c #33352D",
";  c #2F2032",
":  c #242E35",
">  c #3E2234",
",  c #312332",
"<  c #373C33",
"1  c #313034",
"2  c #441E38",
"3  c #5E1D3E",
"4  c #541D3C",
"5  c #621F3E",
"6  c #412534",
"7  c #4E2237",
"8  c #473131",
"9  c #552D35",
"0  c #6A2839",
"q  c #75273C",
"w  c #7B2C3D",
"e  c #633C31",
"r  c #793839",
"t  c #72313B",
"y  c #25531F",
"u  c #2B5D1E",
"i  c #315F1F",
"p  c #19651F",
"a  c #277515",
"s  c #227018",
"d  c #247A1C",
"f  c #347917",
"g  c #276819",
"h  c #105A27",
"j  c #2F4328",
"k  c #374E23",
"l  c #38442B",
"z  c #245220",
"x  c #2B5321",
"c  c #375923",
"v  c #196B27",
"b  c #1D7023",
"n  c #267325",
"m  c #297D30",
"M  c #4B7A1E",
"N  c #64671F",
"B  c #67691E",
"V  c #6B6E1D",
"C  c #72751B",
"Z  c #76781E",
"A  c #79781F",
"S  c #78771E",
"D  c #4A4A26",
"F  c #434726",
"G  c #524529",
"H  c #435E25",
"J  c #4A5C26",
"K  c #465329",
"L  c #505124",
"P  c #5C5E21",
"I  c #54542D",
"U  c #496027",
"Y  c #4E642A",
"T  c #5E6020",
"R  c #516C26",
"E  c #5B7C22",
"W  c #5E7236",
"Q  c #696924",
"!  c #747721",
"~  c #767823",
"^  c #7C7A22",
"/  c #777A29",
"(  c #797B2C",
")  c #787128",
"_  c #7C7E34",
"`  c #313741",
"'  c #761C44",
"]  c #722140",
"[  c #3F404D",
"{  c #2E6B48",
"}  c #464453",
"|  c #777847",
" . c #85343D",
".. c #827C24",
"X. c #897F27",
"o. c #807F35",
"O. c #8E1F47",
"+. c #881C48",
"@. c #921E48",
"#. c #A41F4C",
"$. c #9B2D44",
"%. c #AC2C45",
"&. c #AB214B",
"*. c #B12D44",
"=. c #B92A48",
"-. c #AB3F41",
";. c #B33144",
":. c #BA3845",
">. c #B73347",
",. c #C42D49",
"<. c #CA2F48",
"1. c #C13E45",
"2. c #C2324B",
"3. c #CB3048",
"4. c #D83D49",
"5. c #D03448",
"6. c #C44346",
"7. c #C84346",
"8. c #DB434A",
"9. c #E0464A",
"0. c #2E8810",
"q. c #348B11",
"w. c #3E8E13",
"e. c #318417",
"r. c #3C8023",
"t. c #46801A",
"y. c #468918",
"u. c #448E17",
"i. c #4D9316",
"p. c #479115",
"a. c #539617",
"s. c #59941D",
"d. c #5A881E",
"f. c #658E1F",
"g. c #60961F",
"h. c #649B1B",
"j. c #6A9E1C",
"k. c #6B961F",
"l. c #709D1E",
"z. c #72A11D",
"x. c #458622",
"c. c #5E8122",
"v. c #658B20",
"b. c #7E803D",
"n. c #71942D",
"m. c #7CAA24",
"M. c #78A621",
"N. c #4D9158",
"B. c #7F8140",
"V. c #81813C",
"C. c #81AB2B",
"Z. c #87B32C",
"A. c #8EAF3F",
"S. c #87A93A",
"D. c #8BB730",
"F. c #8FBA33",
"G. c #95BF37",
"H. c #9CC53C",
"J. c #97C139",
"K. c #A0C83F",
"L. c #84854A",
"P. c #868548",
"I. c #898852",
"U. c #A4CC42",
"Y. c #739883",
"T. c #71A580",
"R. c #83AF94",
"E. c #B8C4BF",
"W. c #DADADD",
/* pixels */
"C C C C C C C C C C C C C C C C C C C C C C C C C C C C C C C C C C C C C C C C C C C C C C C C ",
"C C C C C C C C C C C C C C C C C C C C C C C C C C C C C C C C C C C C C C C C C C C C C C C C ",
"C C C C C C C C C C C C C C C C C C C C C C C C C C C C C C C C C C C C C C C C C C V C C C C C ",
"C C C C C C C C C C C C C C C C C C C C C C C C C C Z C C C C C C C C C C C C C C C C C C C C C ",
"C C C ! C Z C C C C C C C C C C C C C C C C C C C ^ ( / Z C C C C C C C C C C C C C C C C C C C ",
"C C Z ~ / / C C C C V C C C C C C C C C C C C C C / V._ / C C C C C C C C C C C C C C C C C C C ",
"C C C / ( ( C C C C C C C C C C C C C C C C C C C Z Z Z C C C C C C C C C C C Z C C C C C C C C ",
"C C C ! ~ ~ C P D D D K V C C C T D D D D D D D D T C C C V L D D D D L V C C C C C C C C C C C ",
"C C C C C C N G 6 6 6 8 T V C B D - $ - $ $ $ $ $ D B C V P * - $ $ $ * P V C C C C C Z ! / ! C ",
"C C C C C B = r 6.6.6.-.8 L B = J v.v.v.v.f.f.f.v.J = N D * E v.f.f.f.E = L C C C C C / b.b.( Z ",
"C C C V C B @ w 4.4.4.1.q 9 8 O l U U U J J U U U l O F - @ K U U U U K O D C C C C C / ( b./ Z ",
"C C C C C B = 0 *.*.=.=.O.3 > . > > 6 6 6 > 6 > > > > > > > 6 > > 6 6 6 6 G B C C C C C C C V C ",
"C C C C C C N G 6 > 5 @.2 5 O.%.:.6.6.6.1.;.:.6.;.*.*.=.%.;.6.:.;.1.6.6.1.r = N C C C C C C C C ",
"C C C C C B L e q 5 3 4   2 5 q $.2.:.2.2.<.<.2.<.3.3.3.3.3.2.2.<.<.2.>. .9 @ N C C C C C C C C ",
"C C C C C N @ q <.&.0   . . . . ] #.#.#.#.,.=.&.<.<.3.3.3.,.#.=.,.#.#.@.7 , @ N C C C C C C C C ",
"C C C C C N @  .4.<.0 . ' +.@.%.=.,.,.,.,.<.<.<.<.<.3.3.3.<.,.<.3.,.,.,.*.0 @ N C C C C C C C C ",
"C C C C C B $  .9.5.q   4 3 5 q ] w q q q q q q w q q q q q q q ] q w q q 7 @ B C C C C C C C C ",
"C Z Z / ! Q @  .8.=.0 o + # + & # # X ` } } } } } ` X X X : [ } } } } [ : X % P V C C C C C C C ",
"C Z / V.L.| 1  .7.9 O + g a a a a s h Y.W.W.W.W.W.Y.h s p { E.W.W.W.W.E.{ v g % L C C C C C C C ",
"! ~ _ L.I.| I e t , & u y.i.i.i.i.u.d N.R.R.R.R.R.N.d u.e.N.N.R.R.R.R.T.m e.M & D C C C C C C C ",
"! / b.L.P.P.Z D @ o x u.h.z.z.z.M.h.w.d v v v v v d w.j.a.0.b v v v v b e.a.f.$ D C C C C C C C ",
"C C C _ ( ! C V P O H j.z.z.z.z.z.l.j.g.g.g.g.g.g.h.h.z.l.h.g.g.g.g.g.g.h.h.f.$ D C C C C C C C ",
"C C C ~ C C C C B @ J z.z.z.z.z.z.j.x.r.r.r.r.r.r.r.r.r.r.r.r.r.x.r.f x.k.z.f.$ D C C C C C C C ",
"C C C C C C C C N @ U z.z.z.z.z.j.s.n v v v v v v v v v v v v v v v v n s.j.f.$ D C C C C C C C ",
"C C C C C C C C N @ J z.z.z.z.z.a.w.s.g.g.g.h.s.g.g.g.g.g.g.g.s.g.g.g.s.w.a.f.@ D C C C C C C C ",
"C C C C C C C C N @ U z.z.z.z.z.s.a.j.z.z.z.z.z.a.i.i.i.i.i.i.h.z.z.z.j.a.h.f.% D C C C C C C C ",
"C C C C C C C C B = J g.h.l.z.z.z.z.z.z.z.z.z.j.u.q.q.q.q.q.q.a.z.z.z.j.j.g.E = L C C C C C C C ",
"C C C C C C C C C B D j f a.z.z.z.z.z.z.z.z.z.z.h.h.j.h.j.h.h.l.z.z.z.j.w.i = T V C Z A A A C C ",
"C C C C C C C C C C T F x f a.j.z.z.z.z.z.z.z.z.z.z.z.z.z.z.z.z.j.a.i.y.u k L C C C C A ..S C C ",
"C C C C V C C C C C C N @ x w.j.z.z.j.z.z.z.z.z.z.z.z.z.z.z.z.z.h.f a g % L C C C C Z A ..C C C ",
"C C C C C C C C C C C N @ H j.z.z.j.w.a.z.z.z.z.z.z.z.z.z.z.z.z.f.j # % P V C C C C C C C C C C ",
"C C C C C C C C C C C Q @ J z.z.z.g.i t.z.Z.D.D.D.D.D.D.D.D.F.m.h.R * @ N C C C C C C C C C C C ",
"C C S S C C C C C C C B @ H h.h.h.d.% Y C.H.U.U.U.U.U.U.U.U.U.F.M.z.U @ N C C C C C C C C V C C ",
"Z V.V.V...C C C C C C B @ y q.q.q.f # W H.U.U.U.U.U.U.U.U.U.U.K.J.M.U @ N C C C C C C C C C C C ",
"C ......C C C C C C C C L k y y z x J n.U.U.U.U.U.U.U.U.U.U.U.U.H.m.U @ N C C C C C C C C C C C ",
"C C C C C C C C C C C C C D o + $ l f.D.U.U.U.U.U.U.U.U.U.U.U.U.H.m.U @ N C C C C C C C C C C C ",
"C C C C C C C C C C C C C D + g t.g.l.D.U.U.U.U.U.U.U.U.U.U.U.U.H.M.U @ B C C C C C C C C C C C ",
"C C C C C C C C C C C V L k u y.g.z.z.C.F.K.U.K.U.U.U.U.U.U.U.J.D.z.E J D N C C C C C C C C C C ",
"C C C C C C C C C C C N @ y q.h.z.z.z.k.k.S.A.A.A.A.A.A.A.A.A.S.z.z.z.f.$ D C C C C C C C C C C ",
"C C C C C C C C C C C B @ y q.h.z.z.z.R - < < = l < < < < < < R z.z.z.f.$ D C C C C C C C C C C ",
"C C C C C C C C C C C N @ y 0.p.a.i.i.c ; F D D D D D D D F O c i.i.i.t.% D C C C C C C C C C C ",
"C C C C C C C C C C C B = x a a a a a x = Q C C C C C C C B = y a a a g % L C V C C C C C C C C ",
"C C C C C C C / S C C C B F + + # # + L ) S C C C C C C C C B F # # # % P V C C C C C Z / ! Z Z ",
"C C C V C C C ( ( S C C C T D D D D D Q V...S C C Z ^ ! ! Z C T D D D L B C C C C C C ! b.( ! C ",
"^ C C C C C C ( _ Z C C C C C C C Z C ......S C C ! / ( / Z Z C C C C C C C C C C C ( _ b._ / C ",
"V.b.Z Z Z C C ! Z C C C C C C C C C S A ..S C C C ~ V._ ( Z C C C C C C C C C C C / V._ / / ! C ",
"b.b./ b._ ! C C C C C C S A S C C C C S S C C C C ! / / C C C C C C C C C C C C C ! ( / ! C C C ",
"/ ( ( P.B./ Z C C C C C S A ..C C C C C C Z Z C C C C C C C C C C C C C C C C C C C C C C C C C "
};
