/* XPM */
static char *_9c691eddc3241fbdac802fe319a1948xFdKvBpZtLiL3Ey7[] = {
/* columns rows colors chars-per-pixel */
"48 48 189 2 ",
"   c #6E731C",
".  c #72751B",
"X  c #76791E",
"o  c #79791F",
"O  c #5C6F2E",
"+  c #4D6B3B",
"@  c #556D34",
"#  c #667225",
"$  c #6B7322",
"%  c #61712A",
"&  c #69762C",
"*  c #737726",
"=  c #767924",
"-  c #7A7B21",
";  c #767A2B",
":  c #7A7D2C",
">  c #797B31",
",  c #777C33",
"<  c #6E7837",
"1  c #3C6C4D",
"2  c #3C654A",
"3  c #2E6556",
"4  c #29615A",
"5  c #28695F",
"6  c #356551",
"7  c #356852",
"8  c #2F755C",
"9  c #3B7152",
"0  c #135D6F",
"q  c #185E69",
"w  c #15646F",
"e  c #18676F",
"r  c #166E75",
"t  c #1C6C72",
"y  c #1B7471",
"u  c #1D7A71",
"i  c #177479",
"p  c #197B7B",
"a  c #286965",
"s  c #21736A",
"d  c #227B6C",
"f  c #236E76",
"g  c #276F78",
"h  c #237475",
"j  c #277B76",
"k  c #2B7E75",
"l  c #287079",
"z  c #2C7A7A",
"x  c #247A79",
"c  c #327A7D",
"v  c #3F7072",
"b  c #377364",
"n  c #456B42",
"m  c #416948",
"M  c #497246",
"N  c #43724C",
"B  c #467043",
"V  c #837C25",
"C  c #8D7E2B",
"Z  c #7D813D",
"A  c #1B827D",
"S  c #1F917F",
"D  c #298A6C",
"F  c #27886B",
"G  c #29966F",
"H  c #218572",
"J  c #258D72",
"K  c #2E8579",
"L  c #288877",
"P  c #348D7B",
"I  c #368D71",
"U  c #259372",
"Y  c #2C9574",
"T  c #279973",
"R  c #2A9D73",
"E  c #22957D",
"W  c #249C7C",
"Q  c #35937A",
"!  c #39967D",
"~  c #339E78",
"^  c #3A9C7D",
"/  c #399476",
"(  c #2BA172",
")  c #2EAC73",
"_  c #27A27A",
"`  c #32A576",
"'  c #31AC74",
"]  c #3BAC7A",
"[  c #38A57A",
"{  c #31B273",
"}  c #39B877",
"|  c #3CB47A",
" . c #3CB979",
".. c #39B677",
"X. c #7B8243",
"o. c #76845D",
"O. c #429879",
"+. c #43B47E",
"@. c #43BD7C",
"#. c #47A67D",
"$. c #45C07E",
"%. c #49C47F",
"&. c #858125",
"*. c #8A8126",
"=. c #94852D",
"-. c #82833D",
";. c #808235",
":. c #9B8531",
">. c #9D8832",
",. c #A38B34",
"<. c #83854B",
"1. c #89864B",
"2. c #848340",
"3. c #8B8952",
"4. c #8C8B5B",
"5. c #858752",
"6. c #918C5B",
"7. c #8A8D63",
"8. c #938F66",
"9. c #988D63",
"0. c #969163",
"q. c #989263",
"w. c #969175",
"e. c #347782",
"r. c #407F89",
"t. c #388882",
"y. c #3D9180",
"u. c #438E85",
"i. c #4A9189",
"p. c #459486",
"a. c #539A8D",
"s. c #518B93",
"d. c #578A99",
"f. c #5C9998",
"g. c #509392",
"h. c #43A580",
"j. c #46AC82",
"k. c #4BAB84",
"l. c #4BB283",
"z. c #4EB984",
"x. c #51BA86",
"c. c #56B989",
"v. c #57A290",
"b. c #62AE93",
"n. c #65B593",
"m. c #6593A1",
"M. c #749EAA",
"N. c #4BC580",
"B. c #4FC982",
"V. c #55C386",
"C. c #54CC84",
"Z. c #58CD86",
"A. c #58C688",
"S. c #5BCB89",
"D. c #5DD389",
"F. c #61C48E",
"G. c #62D68B",
"H. c #64D88C",
"J. c #69DA8F",
"K. c #69D68F",
"L. c #72C299",
"P. c #72CB97",
"I. c #6DDB91",
"U. c #6AD691",
"Y. c #73D696",
"T. c #72DD94",
"R. c #78DC99",
"E. c #7FD09F",
"W. c #7EE29B",
"Q. c #78E097",
"!. c #7DC7A0",
"~. c #82E49D",
"^. c #83C9A3",
"/. c #8ED6A7",
"(. c #84D2A2",
"). c #8DE8A4",
"_. c #92EAA6",
"`. c #9BEDAC",
"'. c #AAF3B4",
"]. c #B1F6B8",
"[. c #9DBDC3",
"{. c #A6C3C9",
"}. c #A1C0C5",
"|. c #B2CAD0",
" X c #BCD1D6",
".X c #D7E3E7",
"XX c #DAE6E8",
"oX c #E1EAED",
"OX c #FCFCFD",
/* pixels */
". . . . . . . . . . . . . . . . . . . . . . . . . . . . . . . . . . . . . . . . . . . . . . . . ",
". . . . . . . . . . . . . . . . . . . . . . . . . . . . . . . . . . . . . . . . . . . . . . . . ",
". . . . . . . . . . . . . . . . . . . . . . . . . . . . . . . . . X . . . . . . . . . . . . . . ",
". . . . . . . . . . . . X X . . . . . . . . . . . X . . . . . . . .   . . . . . . . . . . . . . ",
". . . . . . . . . . . . X X   - . . . . . . . . . = C : . . . . . . . . . . . . . . . . . . . . ",
". . . = 1.= . . . . . .   .     . . . . . . . . .   4.1.. . . . . . . . . . . . . . . . . . . . ",
". . . . 3.* . . . . . . . .   . . . . . . . . . . . . . . . . . . . . . . . . . X . . . . . . . ",
". . . . . . . . . . . . . . . . . . # # & M a y t t t t N % % <   . . . . . X =   . . . . . . . ",
". . . . . . . . . . . . . . . .   * m a a I l.A.V.x.V.x./ a a v o.5.. . . . .   . . . . X . X . ",
". . . . . .     . . . . . . . # 2 6 O.+.k.V.U.~.I.H.H.H.S.l.k.#.b 6 %   . . . . . . . . 0.4.: . ",
". . . . . . . . . . . . . . # 9 / ! V.K.K.J.J.~.I.H.H.H.H.H.H.S.#.D 9 # . . . . . . . . * > Z . ",
". . . . . . . . . . . . X # M O.Y.~.J.H.H.H.H.H.H.H.H.H.H.H.H.H.H.@.U 1 O $ . . . . . . .   . . ",
". . . . . . . . . . . . # 1 I T.'.].~.G.J.H.H.H.H.H.H.H.H.H.H.H.H.D.$.D 8 @ . . . . . . . . . . ",
". . . . . . . . . . . O n D +.T._.`.R.T.J.H.H.H.H.H.H.H.H.H.H.J.R.H.%.' T 8 O   . . . . . . . . ",
". . . . . . . . . .   6 s @.Z.l.x.F.K.~.R.J.H.H.H.H.H.H.H.H.H.J._.T.H.@.{ T 4 # . . . . . . . . ",
". . . . . . . . . . # 7 H @.z.t.u.l.G.J.H.S.S.S.S.G.H.H.H.H.H.J.T.I.J.$.{ R 5 % . . . . . . . . ",
". . . . . . . . . . m F [ l.i. X{.f.x.H.h.j j z K A.H.H.H.H.H.H.H._.`.I.%.{ D 1   . . . . . . . ",
"X X . X . . . . . . 3 U  .l.s.OXXXm.j.H.P d.{.[.e.V.H.H.H.H.H.H.H.`.'.Q.C.{ T 5 $   . . . . . . ",
". . . -.4.X.. . . . 3 U  .l.s.OXXXm.j.H.Q M.oX.Xr.V.K.H.H.H.H.H.H.W.W.J.B.{ ( 5 $ . . . . . . . ",
". . ; 0.5.5.. . $ n D | C.l.s.OXXXm.l.H.P M.oX.Xr.V.H.H.H.H.H.H.H.J.~.T.D.%.) J 7 % . . . . . . ",
". -.Z 1.6.1.. . # 4 Y C.H.l.s.OXXXm.j.H.Q M.oX.Xr.V.H.H.H.H.H.H.H.H.W.Q.H.C.) ( w @ . . . . . . ",
".     <.  . . . # 4 T C.G.z.p.|.[.g.l.G.^ f.[.[.t.A.H.G.H.H.H.H.H.H.H.H.H.B.{ ( 0 @ . . . X . . ",
". . . . . . . . # 4 Y C.D.Z.[ z K ` A.K.%.~ k K ] D.G.K.H.H.G.H.H.H.H.H.H.C.{ ( w @ . . .   . . ",
". . . . . . . . # 4 R C.D.A.V.A.A.Z.Z.Z.Z.A.x.z.V.G.G.Z.S.H.H.H.H.H.H.H.H.Z.{ ( 0 @ . . . . . . ",
". . . . . . . . # 4 T @.j.f K S.G.Z.P r k.k.j t h z.! t ^ A.H.H.H.H.H.H.H.C.{ ( w @ . . . . . . ",
". . . . . . . . # 4 U H u A A K x.! p r b.b.h p t l.P r p ! H.H.H.H.H.H.H.Z.{ ( w @ . . . . . . ",
". . . . . . . . # 4 U u r S S j L.u.p A t.t.A T h n.a.r i K H.H.H.H.H.H.H.Z.{ ( 0 @ . . . . . . ",
". . . . . . . .   4 U y r t.( j ^.i.p S J S _ ( h ^.a.r i K K.H.H.H.H.H.H.C.{ ( 0 @ . . X . o . ",
". . . . . . X . $ 4 U u r E T c ^.u.p W { ) { ( x ^.a.r i K H.H.H.H.H.H.H.C.{ ( w @ . o =.o   . ",
". . . . . . . . # 4 U u r W T c ^.i.p _ { ) { _ H v.t.p i K H.H.H.C.B.D.H.C.{ R 0 @ . o =.. . . ",
". . . . . . .   # 4 U u r W T c ^.i.p W { { { ) E H L S i K H.H.Z. .{ %.Z.Z.{ ( q @ . . . . . . ",
". . . . . . . . # 4 U u r E T c ^.i.p _ { { { { { ' { _ i L H.D. .{ { { $.B.{ R w @ . . . . . . ",
". X . . . . .   % 5 U u r W T k ^.u.p W { ' ) ) ) { { _ i K H.D.@.{ { } $.B.{ ( e +   . . . . . ",
". :.>.,.. . .   7 D ( u r S T h c.P p W { T u u ( { { _ i K H.H.C.} { %.N. .{ ) R 8 @ . . . . . ",
". . o o . . . # 5 R { ( H y H [ V.| u y u p.n.k.H u u y H ] Z.%.D.C.C.@. .) ) ' { d +   . . . . ",
". . . . . . % 7 D ) { { ) J R C.D.Z.` U J l.T.S.R J J J ] C.D.Z.D.%.@.} R d u H ) G 8 @ . . . . ",
". . . . . . @ 0 u u ( ) ) } C.H.H.H.C.C.C.Z.G.G.%.C.%.C.%.$.] Q P ) { U ! b.[ J u R j + . . . . ",
". . . . . . @ 0 L H F H A R @.%.B.%.%.%.%.%.%.%.%.%.%.%.[ D L Q H H H t O.R.Z.` w u e + . . . . ",
". . . . . # n u @...H y u H ' { { } @.N.A.A.A.$.V.@.} { T u Y @...H y u P V.%.) u j k N % . . . ",
". o . . . + s R ( ( R R R R ( ( ` +.V.P././.(.F.(.V.] ( R R R ( ( R R R T R ( ( T +.x.D 2 . . . ",
"X   . . . + q e e e e e e e w e e e t f l l l t g t t e w e e w e e e e w e e e w e t w 2 . . . ",
"  . . . . . . . . . . . . X ,.:.. . X . X X . . . .   .   . . .   .   .   . . . . . . . . . . . ",
". . . . . . . . . . . . . .   . . . &.,.&.. . . . . . . . . . . . . . . . . . . . . . X . X o . ",
". . . . . . . = q.. . . . . . X X . . V V C . . . . o . X . . . . . . . . . . . . . . ; 3.: X . ",
"X . X . . . . * <.. . . . . . . . o . o =.V . . . . : = <.. . . . . . . . . . . . X = ; 5.<.  . ",
"-.= . X . X . . . . . . . . . . .   . *.V . . . . . 0.3.: . . . . . . . . . . . . X 0.3.. > . . ",
"9.-.. Z X . . . . . . . o o o . . . . . . . X . . .     . . . . . . . . . . . . . .     . . . . ",
". . , 8.X.> . . . . . . . V V . . . . . o . X . . . . . . . . X . . . . . . . . . . . . . . . . "
};
