/* XPM */
static char *_e61b817b7f74bedff2a1d105e697de6i1ITDMfakd9kY1zr[] = {
/* columns rows colors chars-per-pixel */
"48 48 185 2 ",
"   c #6E731C",
".  c #72751B",
"X  c #76791E",
"o  c #797A1F",
"O  c #5F702C",
"+  c #4C6A3C",
"@  c #47693F",
"#  c #536C36",
"$  c #577136",
"%  c #657126",
"&  c #6B7322",
"*  c #647229",
"=  c #6F7529",
"-  c #727624",
";  c #777924",
":  c #797B21",
">  c #767A2C",
",  c #7A7D2D",
"<  c #757A33",
"1  c #797B31",
"2  c #7B7E39",
"3  c #3F6647",
"4  c #37644D",
"5  c #3B674B",
"6  c #3F6D4B",
"7  c #26615E",
"8  c #2A635A",
"9  c #2F6A5C",
"0  c #306656",
"q  c #356B53",
"w  c #3A685D",
"e  c #16666F",
"r  c #196F6F",
"t  c #1A736F",
"y  c #146573",
"u  c #196771",
"i  c #166D76",
"p  c #1C6B72",
"a  c #1C7570",
"s  c #1D7C70",
"d  c #197A7A",
"f  c #2D7663",
"g  c #2D7A61",
"h  c #247F6A",
"j  c #327361",
"k  c #236E76",
"l  c #217375",
"z  c #297F77",
"x  c #257379",
"c  c #287179",
"v  c #247B74",
"b  c #31797E",
"n  c #446843",
"m  c #416F48",
"M  c #496B49",
"N  c #44724A",
"B  c #48744A",
"V  c #406F50",
"C  c #506D50",
"Z  c #427754",
"A  c #5C7A51",
"S  c #837C25",
"D  c #8D7E2B",
"F  c #7D813D",
"G  c #1E8273",
"H  c #1B847E",
"J  c #2B8266",
"K  c #24846D",
"L  c #2B866A",
"P  c #288C6D",
"I  c #2A916F",
"U  c #228372",
"Y  c #248C72",
"T  c #2A8D75",
"R  c #2B8279",
"E  c #208A7A",
"W  c #348976",
"Q  c #348A7A",
"!  c #358571",
"~  c #259272",
"^  c #299672",
"/  c #299C72",
"(  c #259C7C",
")  c #24977A",
"_  c #3D9375",
"`  c #35927B",
"'  c #39957C",
"]  c #3C9B7D",
"[  c #2BA273",
"{  c #2DAC75",
"}  c #29A378",
"|  c #33AB76",
" . c #36A778",
".. c #3DA57D",
"X. c #3BAA7B",
"o. c #36A978",
"O. c #31B274",
"+. c #38B777",
"@. c #3DB67A",
"#. c #3DBA79",
"$. c #7B8243",
"%. c #41A67E",
"&. c #43BC7D",
"*. c #48BE7F",
"=. c #45B37F",
"-. c #45C17D",
";. c #49C37F",
":. c #858125",
">. c #8C8428",
",. c #94852D",
"<. c #82833D",
"1. c #878236",
"2. c #9B8632",
"3. c #A48B35",
"4. c #83854B",
"5. c #89864B",
"6. c #878444",
"7. c #8C8A52",
"8. c #8C8B5A",
"9. c #828452",
"0. c #918C5B",
"q. c #8A8D63",
"w. c #938F66",
"e. c #988D63",
"r. c #969163",
"t. c #989263",
"y. c #969175",
"u. c #A69777",
"i. c #347A81",
"p. c #2D8580",
"a. c #3D8286",
"s. c #3C8A85",
"d. c #358883",
"f. c #3D9380",
"g. c #4B898F",
"h. c #448989",
"j. c #429184",
"k. c #4C978B",
"l. c #42A280",
"z. c #46AB81",
"x. c #4BAD85",
"c. c #4BA380",
"v. c #4DB583",
"b. c #4FB984",
"n. c #51BE85",
"m. c #5FB190",
"M. c #66B794",
"N. c #76BD9D",
"B. c #6B9BA4",
"V. c #4CC581",
"C. c #4EC882",
"Z. c #51C484",
"A. c #55CD85",
"S. c #59CE87",
"D. c #57C288",
"F. c #5AC589",
"G. c #5BCB89",
"H. c #5AD087",
"J. c #5DD289",
"K. c #61CA8D",
"L. c #62D68B",
"P. c #64D88C",
"I. c #68D98E",
"U. c #68C392",
"Y. c #76CA9A",
"T. c #6DDB91",
"R. c #72DC94",
"E. c #75D996",
"W. c #7BE199",
"Q. c #84AAB4",
"!. c #93B5BE",
"~. c #81E39D",
"^. c #86CCA4",
"/. c #8ED6A7",
"(. c #82D2A1",
"). c #89E6A1",
"_. c #8DE8A3",
"`. c #9CEEAC",
"'. c #93EAA7",
"]. c #A8F2B3",
"[. c #C8D9DE",
"{. c #D7E4E6",
"}. c #E1EAED",
"|. c #E7EEF0",
" X c #F5F8F9",
/* pixels */
". . . . . . . . . . . . . . . . . . . . . . . . . . . . . . . . . . . . . . . . . . . . . . . . ",
". . . . . . . . . . . . . . . . . . . . . . . . . . . . . . . . . . . . . . . . . . . . . . . . ",
". . . . . . . . . . . . . . X . . . . . . . . . . . . . . . . . . . . . . . . . . . . . . . . . ",
". . . . . . . . . . . . . X . . . . . . . . . . . . . X . . . . . . . . . . . . . . . . . . . . ",
". . . . . . . . . . . . X .   o . . . . . . . . . o 1., . . . . . . . . . . . . . . . . . . . . ",
". . . . 6.; . . . . . . . .     . . . . . . . . .   0.6.. . . . . . . . . . . . . . . . . . . . ",
". . . - 7.> . . . . . . . . . . . . . . . . . . . . . . . . . . . . . . . . . . X . . . . . . . ",
". . . . . . . . . . . . . . . . . . . . : X . . . . . . . . . , . . . . . . o X   . . . . . . . ",
". . . . . . . . . . . . . . . . . . - 8.4.. . . . . . . . . ; u.0.7.. . . . .   . . . . : . X . ",
". . . . . . . . . . . . . . . . . .   < = . . . . . . . . . 6.> 2 - . . . . . . . . . . w.8.: . ",
". . . . . . . . . . . . . . . . . . . .   . . . . . . . . . . . . . . . . . . . . . . . - < F . ",
". . . . . . . . . . . . . . . . . . . . . . . . . . . . . . . . . . . . . . . . . . . . . . . . ",
". . . . . . . . . . . . . . . . . . . . . . . . . . . . . . . . . . . . . . . . . . . . . . . . ",
". . . . . . . . . . . . . . . . . . . . . . . . . . . . . . . . . . . . . . . . . . . . . . . . ",
". . . . . . . . . . . . . . . . .     . . . . & . . & . . . . . . . . . . . . . . . . . . . . . ",
". . . . . . . . . . . . . . .   @ n n n n n n n n n n n n n + & : . X . . . . . . . . . . . . . ",
". . . . . . . . . . . . % n 5 6 _ ] ] ] ] ] ] ] ] ] ] ] ] ] _ m C M % . . . . . . . . . . . . . ",
". : . . . . . . . . * # N ! Q ' K.E.T.P.L.L.L.L.L.L.L.L.L.L.F.' W W A + % . . X . . . . . . . . ",
". - . <.q.4.. . . * Z ! l.G.P.P.T.).T.P.P.P.P.P.P.P.P.P.P.P.P.P.P.L.] K m * o   . . . . . . . . ",
". . > e.4.4.. . * B %.E.R.I.P.P.L.T.P.P.P.P.P.P.P.P.P.P.P.P.P.P.P.P.H.;.L m & X . . . . . . . . ",
". D $.9.w.4.. % q _ ~.].`.T.P.P.L.P.P.P.P.P.P.P.P.P.P.P.P.P.P.P.P.P.P.P.+.Y m O . . . . . . . . ",
". .   4.. . % m T *.W.`.'.T.T.P.P.P.P.P.P.P.P.P.P.P.P.P.P.P.P.P.P.P.T.I.-.O.J 6 & . . . . X X . ",
". . . . . . 4 K V.L.L.F.F.U.(.K.L.P.P.P.P.P.P.P.P.P.P.P.P.P.P.P.P.I.~.W.J.-.O.K n . . . .   . . ",
". . . . . & q Y V.L.x.a.i.a.h.s.D.L.L.G.F.F.S.F.F.S.G.L.P.P.P.P.P.P.R.T.I.;.O.Y 6 % . . . . . . ",
". . . . & 5 P &.L.x.B.{.}.}.}.[.h.F.G.R i.a.a.a.a.b ] J.P.P.P.P.P.P.P.'.].W.-.{ h 5 . . . . . . ",
". . . .   4 ~ ;.P.z.B.|. X X X{.a.n.G.z !.[.[.[.[.Q.Q G.P.P.P.P.P.P.T.`.].W.-.O.K q . . . . . . ",
". . . . % q ^ ;.P.C.f.g.g.g.g.g. .G.L.@.h.g.g.g.g.j.&.L.P.P.P.P.P.P.P.W.W.W.-.O.U q   . . . . . ",
". . . . m J &.L.P.J.C.v.v.v.v.b.A.L.P.G.n.b.b.v.v.n.J.L.P.P.P.P.P.P.P.P.~.W.H.-.[ J n   o . o . ",
". . . . 0 Y A.L.J.v.R z R ' G.L.F.` R R R b.l.z R R l.b.z Q J.P.P.P.P.P.W.I.I.;.O.~ 4 & >.o . . ",
". . . . 0 Y A.L.v.R d d d d ] D.` d d d i m.j.i d i j.M.y d ] G.P.P.J.;.-.H.P.;.O.~ 4 - ,.X . . ",
". . . . 0 Y Z.P.' i ) } } ) c Y.l H ) } H f.Q H } G k.N.y d l F.P.P.;.O.O.+.H.;.O.~ 4   . . . . ",
". . . . 0 Y A.P.' i ( O.{ / b ^.x H { O.} G ) { O.) d.k.d H l F.P.P.+.O.O.O.;.;.| ~ 4 & . . . . ",
". o . + g [ C.P.] i ( { O./ v M.l H { O.O.O.~ U / { ) Y ) H x F.L.L.Z.+.O.&.;.#.O.[ g + . . . . ",
". ,.1.w ^ O.C.P.l.s H Y ~ Y T Z.U d U ~ ~ Y ' j.T Y ~ Y Y d Y G.L.A.J.;.-.V.#.O.O.O.P 0 . . . . ",
".   $ f [ O.-.S.A.| s s v Y ;.J.&.Y s s s s U.W...s s s s Y ;.L.L.;.J.A.Z.#./ Y Y / / g #   . . ",
".   9 U ~ { O.&.A.V.@.@.#.&.L.L.J.&.@.@.@.@.A.P.A.&.@.@.@.&.J.S.A.=.v.+.O.[ ` Q v G [ ~ 0   . . ",
". & 8 l a Y / / / X.A.A.A.A.A.A.A.A.S.A.H.A.A.A.A.A.S.A.S.A.;.[ ^ R a Y ~ t M.~.;.Y t G 8 % . . ",
". O f %.| Y a a t Y +.+.&.&.Z.Z.Z.Z.Z.Z.V.Z.Z.Z.Z.;.;.V.#.+.{ v v =.| K t t z.J.-.^ a v f O   . ",
"* 7 Y [ [ / / / / / /  .n.K./././././././././././.Y.U.Y.=.[ [ / / [ [ / / / [ [ [ / X.b.%.9   . ",
"* 7 e e e e e e e e u u r p c x c c c c c c c c k k x k r u u e e e e e e e e e e u u p u 7   . ",
"X   . . . . . . . . . . . X >.. . . . . . . . . . . . . . . . . .   . . . . . . . . . . . . . . ",
". . . . . . . . . . . . . X 3.2.. . . . o o . . . . . . . . . . . . . . . . . . . . . . . . . . ",
". . . . . . . . X . . . . . . . . . :.3.:.. . . . . . . . . . . . . . . . . . . . . . X . . o . ",
". . . . . . . ; t.. . . . . . . . . . S S >.. . . . o . X . . . . . . . . . . . . . . > 7.F . . ",
"X X X . . . . ; 6.. . . . . . . . . . o ,.S . . . X F . 4.. . . . . . . . . . . . X ; > 4.9.  . ",
"<.; . X . . . . . . . . . . . . . . . >.:.. . . . . t.5.> . . . . . . . . . . . . X t.5.. 1 . . ",
"e.6.. F X . . . . . . . X o o . . . . . . . . . . .     . . . . . . . . . . . . . .   . . . . . ",
"  . 1 w.$.1 . . . . . . . >.S . . . . . X X X . . . . . . . . . . . . . . . . . . . . . . . . . "
};
