/* XPM */
static char *_3a90ab89d31489db1a5a51a83ad1e59vGCVZmWDCcxPHOzW[] = {
/* columns rows colors chars-per-pixel */
"48 48 65 1 ",
"  c #2E0500",
". c #381000",
"X c #3A1300",
"o c #3B1400",
"O c #3C1500",
"+ c #3E1801",
"@ c #45210B",
"# c #54321C",
"$ c #563621",
"% c #593A26",
"& c #554131",
"* c #5C4633",
"= c #62503D",
"- c #5B5246",
"; c #615142",
": c #665646",
"> c #625A4E",
", c #685A4A",
"< c #695A4A",
"1 c #6A5C4C",
"2 c #765C4C",
"3 c #645D51",
"4 c #696256",
"5 c #666359",
"6 c #67645D",
"7 c #68645A",
"8 c #68635C",
"9 c #68645C",
"0 c #6F6A5C",
"q c #7B6352",
"w c #696861",
"e c #6F6D64",
"r c #716B60",
"t c #736D63",
"y c #747062",
"u c #737065",
"i c #74716A",
"p c #76736B",
"a c #77756D",
"s c #7A796C",
"d c #7B7971",
"f c #807769",
"g c #867C72",
"h c #858079",
"j c #848179",
"k c #86877B",
"l c #86837C",
"z c #87847C",
"x c #88877B",
"c c #89867D",
"v c #87887C",
"b c #88887C",
"n c #88887D",
"m c #8B8A80",
"M c #898982",
"N c #8E8B83",
"B c #8B8D82",
"V c #8F8F86",
"C c #8F9187",
"Z c #959890",
"A c #BDAFA7",
"S c #C1B5AE",
"D c #C4BCB5",
"F c #D3CAC5",
"G c white",
/* pixels */
"GGGGGGGGGGGGGGGGGGGGGGGGGGGGGGGGGGGGGGGGGGGGGGGG",
"GGGGGGGGGGGGGGGGGGGGGGGGGGGGGGGGGGGGGGGGGGGGGGGG",
"GGGGGGGGGGGGGGGGGGGGGGGGGGGGGGGGGGGGGGGGGGGGGGGG",
"GGGGGGGGGGGGGGGGGGGGGGGGGGGGGGGGGGGGGGGGGGGGGGGG",
"GGGGGGGGGGGGGGGGGGGGGGGGGGGGGGGGGGGGGGGGGGGGGGGG",
"GGGGGGGGGGGGGGGGGGGGGGGGGGGGGGGGGGGGGGGGGGGGGGGG",
"GGGGGGGGGGGGGGGGGGGGGGGGGGGGGGGGGGGGGGGGGGGGGGGG",
"GGGGGGGGGGGGGGGGGGGGGGGGGGGGGGGGGGGGGGGGGGGGGGGG",
"GGGGGGGGGGGGGGGGGGGGGGGGGGGGGGGGGGGGGGGGGGGGGGGG",
"GGGGGGGGGGGGGGGGGGGGGGGGGGGGGGGGGGGGGGGGGGGGGGGG",
"GGGGGGGGGGGGGGGGGGGGGGGGGGGGGGGGGGGGGGGGGGGGGGGG",
"GGGGGGGGGGGGGGGGGGGGGGGGGGGGGGGGGGGGGGGGGGGGGGGG",
"GGGGGGGGGGGGGGGGGGGGGGGGGGGGGGGGGGGGGGGGGGGGGGGG",
"GGGGGGGGGGGGGGGGGGGGGGGGGGGGGGGGGGGGGGGGGGGGGGGG",
"GGGGGGGGGGGGGGGGGGGGGGGGGGGGGGGGGGGGGGGGGGGGGGGG",
"GGGGGGGGGGGGGGGGGGGGGGGGGGGGGGGGGGGGGGGGGGGGGGGG",
"GGGGGGGGGGGGGGGGGGGGGGGGGGGGGGGGGGGGGGGGGGGGGGGG",
"GGGGGGGGGGGGGGGGGGGGGGGGGGGGGGGGGGGGGGGGGGGGGGGG",
"GGGGGGGGGGGGGGGGGGGGGGGGGGGGGGGGGGGGGGGGGGGGGGGG",
"GGGGGGGGGGGGGGGGGGGGGGGGGGGGGGGGGGGGGGGGGGGGGGGG",
"GGGGGGGGGGGGGGGGGGGGGGGGGGGGGGGGGGGGGGGGGGGGGGGG",
"DAAAAAAAAAAAAAAAAAAAAAAAASSAAAAAAAAAAAAAAAAAAAAA",
"*1<<<<<<<<<<,,,,<<<<<<<<<==<<<<<<<<<<<<<<<<<<<<<",
"<BvvvvvvvvvvvvvvvvvvvvvvCgfZkvnnnvvvvvnxvvvvvvvv",
"$CvnnvnnxnnxxnlvnnnvnvzNl&;3Vmczcvnvcncvnvnvnvnn",
"%mhlzhzhllllglmghhlzzzz4-&:sy0rrthzlhllllglzhhll",
"@w597777999999665759555e>2q0udpap588999866795557",
"F oOOOOOOOOOOOOOOOOOOoXX#GG#X+XoOOOOOOOOOXOOOOOO",
"GGGGGGGGGGGGGGGGGGGGGGGGGGGGGGGGGGGGGGGGGGGGGGGG",
"GGGGGGGGGGGGGGGGGGGGGGGGGGGGGGGGGGGGGGGGGGGGGGGG",
"GGGGGGGGGGGGGGGGGGGGGGGGGGGGGGGGGGGGGGGGGGGGGGGG",
"GGGGGGGGGGGGGGGGGGGGGGGGGGGGGGGGGGGGGGGGGGGGGGGG",
"GGGGGGGGGGGGGGGGGGGGGGGGGGGGGGGGGGGGGGGGGGGGGGGG",
"GGGGGGGGGGGGGGGGGGGGGGGGGGGGGGGGGGGGGGGGGGGGGGGG",
"GGGGGGGGGGGGGGGGGGGGGGGGGGGGGGGGGGGGGGGGGGGGGGGG",
"GGGGGGGGGGGGGGGGGGGGGGGGGGGGGGGGGGGGGGGGGGGGGGGG",
"GGGGGGGGGGGGGGGGGGGGGGGGGGGGGGGGGGGGGGGGGGGGGGGG",
"GGGGGGGGGGGGGGGGGGGGGGGGGGGGGGGGGGGGGGGGGGGGGGGG",
"GGGGGGGGGGGGGGGGGGGGGGGGGGGGGGGGGGGGGGGGGGGGGGGG",
"GGGGGGGGGGGGGGGGGGGGGGGGGGGGGGGGGGGGGGGGGGGGGGGG",
"GGGGGGGGGGGGGGGGGGGGGGGGGGGGGGGGGGGGGGGGGGGGGGGG",
"GGGGGGGGGGGGGGGGGGGGGGGGGGGGGGGGGGGGGGGGGGGGGGGG",
"GGGGGGGGGGGGGGGGGGGGGGGGGGGGGGGGGGGGGGGGGGGGGGGG",
"GGGGGGGGGGGGGGGGGGGGGGGGGGGGGGGGGGGGGGGGGGGGGGGG",
"GGGGGGGGGGGGGGGGGGGGGGGGGGGGGGGGGGGGGGGGGGGGGGGG",
"GGGGGGGGGGGGGGGGGGGGGGGGGGGGGGGGGGGGGGGGGGGGGGGG",
"GGGGGGGGGGGGGGGGGGGGGGGGGGGGGGGGGGGGGGGGGGGGGGGG",
"GGGGGGGGGGGGGGGGGGGGGGGGGGGGGGGGGGGGGGGGGGGGGGGG"
};
