/* XPM */
static char *b5e108244659487d9a1f8cce98783b7brRyI11VtQzkXJyLf[] = {
/* columns rows colors chars-per-pixel */
"48 48 125 2 ",
"   c #130000",
".  c #2C0000",
"X  c #330600",
"o  c #360A00",
"O  c #390D00",
"+  c #371000",
"@  c #3B1400",
"#  c #3E1D04",
"$  c #3F1E08",
"%  c #411600",
"&  c #431C01",
"*  c #401F08",
"=  c #442003",
"-  c #482302",
";  c #43230B",
":  c #49270D",
">  c #4F2A0C",
",  c #502703",
"<  c #512806",
"1  c #512B0A",
"2  c #482911",
"3  c #542D13",
"4  c #553115",
"5  c #5B3611",
"6  c #5A351C",
"7  c #5D391C",
"8  c #623E1A",
"9  c #5C3B22",
"0  c #623E22",
"q  c #5E412C",
"w  c #644225",
"e  c #6A4726",
"r  c #6A4B26",
"t  c #65452B",
"y  c #68472B",
"u  c #67492C",
"i  c #6B4C2E",
"p  c #6D502D",
"a  c #624630",
"s  c #644B35",
"d  c #6C4E31",
"f  c #654C39",
"g  c #714F31",
"h  c #6F5233",
"j  c #66513E",
"k  c #6B523B",
"l  c #725435",
"z  c #755937",
"x  c #785B36",
"c  c #735739",
"v  c #755A3B",
"b  c #795D3D",
"n  c #7B613F",
"m  c #675341",
"M  c #6A5642",
"N  c #6C5A46",
"B  c #6D5C49",
"V  c #715740",
"C  c #735A44",
"Z  c #7B5E40",
"A  c #735E4A",
"S  c #7C6242",
"D  c #74624E",
"F  c #7A644E",
"G  c #766451",
"H  c #7A6651",
"J  c #766A56",
"K  c #7A6A56",
"L  c #756959",
"P  c #7B6D5A",
"I  c #7F715D",
"U  c #806644",
"Y  c #826947",
"T  c #836A4B",
"R  c #886F4E",
"E  c #836A55",
"W  c #886F51",
"Q  c #8C7354",
"!  c #81735F",
"~  c #927B5A",
"^  c #957D5D",
"/  c #957F5F",
"(  c #827562",
")  c #847964",
"_  c #897D69",
"`  c #907867",
"'  c #998460",
"]  c #9A826D",
"[  c #8C8171",
"{  c #A28C7D",
"}  c #A58F7F",
"|  c #BFB3B0",
" . c #C3B5AB",
".. c #C1B3AE",
"X. c #CABDB4",
"o. c #CABEB7",
"O. c #CBBFB9",
"+. c #CBC1BA",
"@. c #CEC2BB",
"#. c #CEC3BC",
"$. c #D1C5BF",
"%. c #D0C6BE",
"&. c #D3CAC5",
"*. c #D3CBC6",
"=. c #D5CBC5",
"-. c #D9D0CA",
";. c #D9D1CC",
":. c #DDD5CF",
">. c #DED6D1",
",. c #DFD9D3",
"<. c #E0D9D3",
"1. c #E1DAD3",
"2. c #E1DBD4",
"3. c #E3DDD9",
"4. c #E7E2DE",
"5. c #ECE7E4",
"6. c #EFEDEB",
"7. c #F0ECE9",
"8. c #F0EDED",
"9. c #F1EEEC",
"0. c #F3F0EE",
"q. c #F3F1F0",
"w. c #FCFCFB",
"e. c #FDFDFD",
"r. c white",
/* pixels */
"r.r.r.r.r.r.r.r.r.r.r.r.r.r.r.r.r.r.r.r.r.r.r.r.r.r.r.r.r.r.r.r.r.r.r.r.r.r.r.r.r.r.r.r.r.r.r.r.",
"r.r.r.r.r.r.r.r.r.r.r.r.r.r.r.r.r.r.r.r.r.r.r.r.r.r.r.r.r.r.r.r.r.r.r.r.r.r.r.r.r.r.r.r.r.r.r.r.",
"r.r.r.r.r.r.r.r.r.r.r.r.r.r.r.r.r.r.r.r.w.r.r.r.r.r.r.r.r.r.r.r.r.r.r.r.r.r.r.r.r.r.r.r.r.r.r.r.",
"r.r.r.r.r.r.r.r.r.r.r.r.r.r.r.r.r.r.r.r.r.4.:.2.,.,.<.>.4.r.r.r.r.r.r.r.r.r.r.r.r.r.r.r.r.r.r.r.",
"r.r.r.r.r.r.r.r.r.r.r.r.r.r.r.r.r.8. .} ] r 5 8 , < 8 5 r ] {  .7.r.r.r.r.r.r.r.r.r.r.r.r.r.r.r.",
"r.r.r.r.r.r.r.r.r.r.r.r.r.r.r.r.X.0 x g e U ~ ~ g z Q Q b 7 8 w 4 $.r.r.r.r.r.r.r.r.r.r.r.r.r.r.",
"r.r.r.r.r.r.r.r.r.r.r.r.r.r.<.t & ' ^ ~ U T ^ ^ v Z ^ ^ U l Z U S o u 2.r.r.r.r.r.r.r.r.r.r.r.r.",
"r.r.r.r.r.r.r.r.r.r.r.r.r.<.T r l ^ Q W g i g x g e v v g d v T Q d 3 C 3.r.r.r.r.r.r.r.r.r.r.r.",
"r.r.r.r.r.r.r.r.r.r.r.r.5.E x Q e b U b g v S Z g g b U x 0 l U S i S 7 F 6.r.r.r.r.r.r.r.r.r.r.",
"r.r.r.r.r.r.r.r.r.r.r.r.-.l R v 0 U T n z c S U l l U U z x Z Z S t S S w >.r.r.r.r.r.r.r.r.r.r.",
"r.r.r.r.r.r.r.r.r.r.r.7.] i S h i T U n l v Z S l l U n v l b Z S h v T w ` 0.r.r.r.r.r.r.r.r.r.",
"r.r.r.r.r.r.r.r.r.r.r.=.8 T l l g Y U U l v b U l l n U x l Z b S h b b Y > ;.r.r.r.r.r.r.r.r.r.",
"r.r.r.r.r.r.r.r.r.r.r.$.5 S v l g Y U Z c v b U l z U S x c Z Z S c b b T 1 *.r.r.r.r.r.r.r.r.r.",
"r.r.r.r.r.r.r.r.r.r.r.$.> c l d i Z c z l v U b l v U U b g l z v d l l n & *.r.r.r.r.r.r.r.r.r.",
"r.r.r.r.r.r.r.r.r.r.r.@.% t t t y y V E g c b Z l v U S b y H c i t t t u O =.r.r.r.r.r.r.r.r.r.",
"r.r.r.r.r.r.r.r.r.r.r.#.3 ) ) ) _ _ ` E F l b U l v U S g E ! ( ) P ! ( ) : =.r.r.r.r.r.r.r.r.r.",
"r.r.r.r.r.r.r.r.r.r.r.+.= k k k C M A H k l b S l v U n z d H A j k k j f @ &.r.r.r.r.r.r.r.r.r.",
"r.r.r.r.r.r.r.r.r.r.r.@.O 6 6 6 6 6 t s w b b S h v U S b 0 s 9 6 6 6 6 7 o *.r.r.r.r.r.r.r.r.r.",
"r.r.r.r.r.r.r.r.r.r.r.+.& h h i w Z i 0 k b v S l v U S v z w i v h h h v # =.r.r.r.r.r.r.r.r.r.",
"r.r.r.r.r.r.r.r.r.r.r.+.- n b l i U S c d v v S l v U n v c b S S l z c S # *.r.r.r.r.r.r.r.r.r.",
"r.r.r.r.r.r.r.r.r.r.r.+.= b z h d Z b c i v b b l b U S v c b b S h k z b & =.r.r.r.r.r.r.r.r.r.",
"r.r.r.r.r.r.r.r.r.r.r.X.= v l h d S v c h c b S l b Y S v c v b Z h h h c @ *.w.r.r.r.r.r.r.r.r.",
"r.r.r.r.r.r.r.r.r.r.r.X.= n z h g S v v l c b l 0 y c Z v c b v b h h l v & &.w.r.r.r.r.r.r.r.r.",
"r.r.r.r.r.r.r.r.r.r.r.+.= b h h d Z l c l l h k C C l z v v v b S d h h v # &.r.r.r.r.r.r.r.r.r.",
"r.r.r.r.r.r.r.r.r.r.r.+.& b l h h b k l h l i D ( ( C d v v v v b i h h v # *.r.r.r.r.r.r.r.r.r.",
"r.r.r.r.r.r.r.r.r.r.r.O.& b z h h n l z h l u k s d s u c c v v b u d h v @ *.r.r.r.r.r.r.r.r.r.",
"r.r.r.r.r.r.r.r.r.r.r.X.= b c l h n h h h z q q s f q t l v z v S i d l v & *.r.r.r.r.r.r.r.r.r.",
"r.r.r.r.r.r.r.r.r.r.r.+.@ i u w w i u h i c i 9 9 9 9 d l d l d d 9 w w u O *.r.r.r.r.r.r.r.r.r.",
"r.r.r.r.r.r.r.r.r.r.r.+.& V k k V v A D i h c i 7 q h c h d G C k j k k k @ *.r.r.r.r.r.r.r.r.r.",
"r.r.r.r.r.r.r.r.r.r.r.+.; G G G P P P P D i l n i h c c d F P K G D D D H # *.r.r.r.r.r.r.r.r.r.",
"r.r.r.r.r.r.r.r.r.r.r.+.+ f s s k f C D t i l c d p c c d a A M s s s s f + *.r.r.r.r.r.r.r.r.r.",
"r.r.r.r.r.r.r.r.r.r.r.@.X 6 9 6 6 9 9 9 q h l z s i l l d 9 9 9 6 9 6 6 7 X *.r.r.r.r.r.r.r.r.r.",
"r.r.r.r.r.r.r.r.r.r.r.+.@ d i w 9 l u t u h h l u i h k d d t d l w t u d O =.r.r.r.r.r.r.r.r.r.",
"r.r.r.r.r.r.r.r.r.r.r.+.& n z h t b v l d h b b u u n v d h v S S i d h v @ =.r.r.r.r.r.r.r.r.r.",
"r.r.r.r.r.r.r.r.r.r.r.+.X 7 7 6 4 9 6 6 4 3 4 4 3 3 3 4 3 4 7 7 9 3 3 4 3 . *.r.r.r.r.r.r.r.r.r.",
"r.r.r.r.r.r.r.r.r.r.r.+.; H D D G D G G G G H I s j I J J G G G D G B D J # *.r.r.r.r.r.r.r.r.r.",
"r.r.r.r.r.r.r.r.r.r.r.+.2 ( K P P K P I I I I [ k N [ I ) I P P P K K L ) ; *.r.r.r.r.r.r.r.r.r.",
"r.r.r.r.r.r.r.r.r.r.r.+.# N j j m m M N B N N G a s D B B B N N M m f f M @ *.r.r.r.r.r.r.r.r.r.",
"r.r.r.r.r.r.r.r.r.r.r.+.# B m B B B B B B B B L s f L D B D B B B B B M B @ *.r.r.r.r.r.r.r.r.r.",
"r.r.r.r.r.r.r.r.r.r.r.|   # # # # # $ $ $ $ ; ; + @ ; * ; * * $ # # # # #   O.r.r.r.r.r.r.r.r.r.",
"r.r.r.r.r.r.r.r.r.r.r.6...@.+.O.O.O.O.O.O.O.+.+.O.+.+.O.O.+.O.O.X.O.O.O.@...q.r.r.r.r.r.r.r.r.r.",
"r.r.r.r.r.r.r.r.r.r.r.r.r.r.r.r.r.r.r.r.r.r.r.r.r.r.r.r.r.r.r.r.r.r.r.r.r.r.r.r.r.r.r.r.r.r.r.r.",
"r.r.r.r.r.r.r.r.r.r.r.r.r.r.r.r.r.r.r.r.r.r.r.r.r.r.r.r.r.r.r.r.r.r.r.r.r.r.r.r.r.r.r.r.r.r.r.r.",
"r.r.r.r.r.r.r.r.r.r.r.r.r.r.r.r.r.r.r.r.r.r.r.r.r.r.r.r.r.r.r.r.r.r.r.r.r.r.r.r.r.r.r.r.r.r.r.r.",
"r.r.r.r.r.r.r.r.r.r.r.r.r.r.r.r.r.r.r.r.r.r.r.r.r.r.r.r.r.r.r.r.r.r.r.r.r.r.r.r.r.r.r.r.r.r.r.r.",
"r.r.r.r.r.r.r.r.r.r.r.r.r.r.r.r.r.r.r.r.r.r.r.r.r.r.r.r.r.r.r.r.r.r.r.r.r.r.r.r.r.r.r.r.r.r.r.r.",
"r.r.r.r.r.r.r.r.r.r.r.r.r.r.r.r.r.r.r.r.r.r.r.r.r.r.r.r.r.r.r.r.r.r.r.r.r.r.r.r.r.r.r.r.r.r.r.r.",
"r.r.r.r.r.r.r.r.r.r.r.r.r.r.r.r.r.r.r.r.r.r.r.r.r.r.r.r.r.r.r.r.r.r.r.r.r.r.r.r.r.r.r.r.r.r.r.r."
};
