/* XPM */
static char *cc56b4e3ce6c4f2b9a2eec0a1a2ca2c5jQBp92tWVxxT13L1[] = {
/* columns rows colors chars-per-pixel */
"34 33 4 1 ",
"  c #656C17",
". c #72751B",
"X c #787B21",
"o c #7F8226",
/* pixels */
"..................................",
"..................................",
"..................................",
"o.................................",
"..................................",
"..................................",
"..................................",
"..................................",
"..................................",
"...........oX.....................",
"......oX..Xo .....................",
"...... XX.XX......................",
"....... XXX ......................",
"....... XX .......................",
"........ X........................",
"..................................",
"..................................",
"..................................",
"...........................Xoo....",
"..........................XXo.....",
"..........................XX .....",
"..........................  ......",
"..................................",
"..................................",
"..................................",
"..................................",
"..................................",
"..................................",
"..................................",
"..................................",
"..................................",
"..................................",
".................................."
};
