/* XPM */
static char *_133d8a79aaa4ffde2f8e5e67f1835acA5eEGM4CO0KjfKOp[] = {
/* columns rows colors chars-per-pixel */
"48 48 119 2 ",
"   c #350900",
".  c #3B0E00",
"X  c #3C1400",
"o  c #3E1800",
"O  c #421700",
"+  c #421C03",
"@  c #44230E",
"#  c #4A230C",
"$  c #52280F",
"%  c #472611",
"&  c #482611",
"*  c #4E2A14",
"=  c #502610",
"-  c #512C15",
";  c #532F19",
":  c #55321B",
">  c #5E381F",
",  c #4D3525",
"<  c #4C3A2C",
"1  c #593722",
"2  c #523827",
"3  c #5C3922",
"4  c #543C2C",
"5  c #5B3E2A",
"6  c #503F32",
"7  c #613D25",
"8  c #544234",
"9  c #5D4533",
"0  c #564639",
"q  c #5A4738",
"w  c #5C4B3C",
"e  c #62422C",
"r  c #614531",
"t  c #6A4631",
"y  c #624A36",
"u  c #644D3C",
"i  c #6E4E3B",
"p  c #6C503D",
"a  c #5C4E42",
"s  c #5D5246",
"d  c #5E554A",
"f  c #5E594F",
"g  c #5F5950",
"h  c #614E41",
"j  c #645243",
"k  c #6B5545",
"l  c #64564A",
"z  c #6B5748",
"x  c #665B4D",
"c  c #6E5D4E",
"v  c #715542",
"b  c #755C4A",
"n  c #7B5E4C",
"m  c #635C54",
"M  c #6A5F52",
"N  c #635E58",
"B  c #676057",
"V  c #6B6155",
"C  c #66625A",
"Z  c #6B645B",
"A  c #6E695E",
"S  c #716354",
"D  c #7B6555",
"F  c #726658",
"G  c #706A5E",
"H  c #6D6760",
"J  c #6F6C63",
"K  c #736D62",
"L  c #796D61",
"P  c #747166",
"I  c #7C7265",
"U  c #757269",
"Y  c #79746A",
"T  c #7C796E",
"R  c #7E7B71",
"E  c #856756",
"W  c #886C5C",
"Q  c #886F60",
"!  c #8B7466",
"~  c #817669",
"^  c #847B6F",
"/  c #8E7969",
"(  c #907668",
")  c #917B6C",
"_  c #827D74",
"`  c #897F73",
"'  c #957F72",
"]  c #838076",
"[  c #888277",
"{  c #868379",
"}  c #89867B",
"|  c #87887E",
" . c #8B897E",
".. c #958073",
"X. c #8D8C82",
"o. c #928E85",
"O. c #8F9087",
"+. c #8F9389",
"@. c #929187",
"#. c #94938A",
"$. c #99968D",
"%. c #96988E",
"&. c #9A988F",
"*. c #9C9A92",
"=. c #A2A49C",
"-. c #C4BAB1",
";. c #CEC3BC",
":. c #D6CCC7",
">. c #D8CFCA",
",. c #DBD3CE",
"<. c #DED7D2",
"1. c #E1DAD6",
"2. c #E3DEDA",
"3. c #E6E1DE",
"4. c #E8E2DF",
"5. c #F1EDEB",
"6. c #F7F5F3",
"7. c #F9F6F5",
"8. c #FFFFFF",
/* pixels */
"8.8.8.8.8.8.8.8.8.8.8.8.8.8.8.8.8.8.8.8.8.8.8.8.8.8.8.8.8.8.8.8.8.8.8.8.8.8.8.8.8.8.8.8.8.8.8.8.",
"8.8.8.8.8.8.8.8.8.8.8.8.8.8.8.8.8.8.8.8.8.8.8.8.8.8.8.8.8.8.8.8.8.8.8.8.8.8.8.8.8.8.8.8.8.8.8.8.",
"8.8.8.8.8.8.8.8.8.8.8.8.8.8.8.8.8.8.8.8.8.-.& 1 ; * o ;.7.8.8.8.8.8.8.8.8.8.8.8.8.8.8.8.8.8.8.8.",
"8.8.8.8.8.8.8.8.8.8.8.8.8.8.8.8.8.8.8.:.* b *.&.+.X.#.e X ,.8.8.8.8.8.8.8.8.8.8.8.8.8.8.8.8.8.8.",
"8.8.8.8.8.8.8.8.8.8.8.8.8.8.8.8.8.8.>.y =.*.o.o. .| | [ X.o <.8.8.8.8.8.8.8.8.8.8.8.8.8.8.8.8.8.",
"8.8.8.8.8.8.8.8.8.8.8.8.8.8.8.8.8.,.y =.*.%.#.o. .[ | ^ R P @ <.8.8.8.8.8.8.8.8.8.8.8.8.8.8.8.8.",
"8.8.8.8.8.8.8.8.8.8.8.8.8.8.<.,.<.* %.*.$.$.$.$.#. . .[ T A J @ 4.>.,.8.8.8.8.8.8.8.8.8.8.8.8.8.",
"8.8.8.8.8.8.8.8.8.8.8.8.8.<.u r y b X.*.*.*.o.#.#. . .[ } A A p 9 5 u 2.8.8.8.8.8.8.8.8.8.8.8.8.",
"8.8.8.8.8.8.8.8.8.8.8.8.8.7 o.X. . .o.*.o.} G K G F A ^ } I V X. .X.} p 8.8.8.8.8.8.8.8.8.8.8.8.",
"8.8.8.8.8.8.8.8.8.8.8.8.8.v  . .} } #. .A K L L I G K A A Y L } { } ] b 8.8.8.8.8.8.8.8.8.8.8.8.",
"8.8.8.8.8.8.8.8.8.8.8.8.8.v  .{ } [  .G K K K K G K G A K H P { { } [ n 8.8.8.8.8.8.8.8.8.8.8.8.",
"8.8.8.8.8.8.8.8.8.8.8.8.8.i o.$.#.$.H I K K K K L K K K A L K o.o.o.} b 8.8.8.8.8.8.8.8.8.8.8.8.",
"8.8.8.8.8.8.8.8.8.8.8.8.8.7  .` [ ] G L K K K K K K K K A P K { _ _ ^ i 8.8.8.8.8.8.8.8.8.8.8.8.",
"8.8.8.8.8.8.8.8.8.8.8.8.8.> T Z V A A J K F k j k j l H K K K K Z C K t 8.8.8.8.8.8.8.8.8.8.8.8.",
"8.8.8.8.8.8.8.8.8.8.8.8.8.> ~ Z A A A j h u z L I I z u u h H K Z Z I t 8.8.8.8.8.8.8.8.8.8.8.8.",
"8.8.8.8.8.8.8.8.8.8.8.8.8.3 Y Z A G V u _ S z _ R _ z M I : M Z V Z A t 8.8.8.8.8.8.8.8.8.8.8.8.",
"8.8.8.8.8.8.8.8.8.8.8.8.8.7 P Z A A Z u e 3 y Y U Y 9 3 e q Z V Z B M t 8.8.8.8.8.8.8.8.8.8.8.8.",
"8.8.8.8.8.8.8.8.8.8.8.8.8.$ P Z A Z Z M q w 9 > 3 3 9 w q M Z C B C M 3 8.8.8.8.8.8.8.8.8.8.8.8.",
"8.8.8.8.8.8.8.8.8.8.8.8.8.5.# J P A A Z Z A M w a w M Z C Z Z N J A ; 5.8.8.8.8.8.8.8.8.8.8.8.8.",
"8.8.8.8.8.8.8.8.8.8.8.8.8.8.6.o : U Z A A A C B C Z C Z Z Z M P * # 7.8.8.8.8.8.8.8.8.8.8.8.8.8.",
"8.8.8.8.8.8.8.8.8.8.8.8.8.8.8.8.X T A A H Z Z Z Z Z Z Z Z Z C P O 8.8.8.8.8.8.8.8.8.8.8.8.8.8.8.",
"8.8.8.8.8.8.8.8.8.8.8.8.8.8.8.8.. T V 4 2 w A a 2 , l w 2 , C P O 8.8.8.8.8.8.8.8.8.8.8.8.8.8.8.",
"8.8.8.8.8.8.8.8.8.8.8.8.8.8.8.8.. Y N q ] V 0 K l x H 0 Z P , U O 8.8.8.8.8.8.8.8.8.8.8.8.8.8.8.",
"8.8.8.8.8.8.8.8.8.8.8.8.8.8.8.8.. U N q 8 w B B s d N a 6 < U U O 8.8.8.8.8.8.8.8.8.8.8.8.8.8.8.",
"8.8.8.8.8.8.8.8.8.8.8.8.8.8.8.o - P m a T l a s 8 8 d 0 Z T m K # + 8.8.8.8.8.8.8.8.8.8.8.8.8.8.",
"8.8.8.8.8.8.8.8.8.8.8.b @ # @ R = U M K m H U Z U K Z Z B m g U ; x . X   b 8.8.8.8.8.8.8.8.8.8.",
"8.8.8.8.8.8.8.8.8.8.D L O.O.1 T = U N M N N l m m g m f g g d U ; x : G Y F ! 8.8.8.8.8.8.8.8.8.",
"8.8.8.8.8.8.8.8.8.8.( I  .X.1 R * J m m m m m m m m m m g g d J : G * G { F ..8.8.8.8.8.8.8.8.8.",
"8.8.8.8.8.8.8.8.8.8./ I | X.3 T * K N m m m m m m m m f g g f J > Z * K X.V ..8.8.8.8.8.8.8.8.8.",
"8.8.8.8.8.8.8.8.8.8./ I  .X.3 T 1 M l l s d d d d s s s s s a B r V * K  .V ..8.8.8.8.8.8.8.8.8.",
"8.8.8.8.8.8.8.8.8.8.) I  .X.1 P R 5 r y u u u u u u u u u y 9 9 Y M * P | F ..8.8.8.8.8.8.8.8.8.",
"8.8.8.8.8.8.8.8.8.8.) I  .X.3 ] o.O.+.O.X.X.X. . .X.X.X.X.X.O.X. .P * K | F ' 8.8.8.8.8.8.8.8.8.",
"8.8.8.8.8.8.8.8.8.8.) ~  . .e #. . .} X._ _ _ _ { _ { X.} _ X.` X.X.* P { Z ' 8.8.8.8.8.8.8.8.8.",
"8.8.8.8.8.8.8.8.8.8.) ~  .@.e K C Z M C N N Z Z Z Z N N Z N N N N Z ; U X.S ' 8.8.8.8.8.8.8.8.8.",
"8.8.8.8.8.8.8.8.8.8.) ^  .O.e P Z H A H H H H H H H H H Z N H N H H : Y  .S ' 8.8.8.8.8.8.8.8.8.",
"8.8.8.8.8.8.8.8.8.8.) ^ O. .D z j j j u h h h j h h h h h h h h a h S R  .M ' 8.8.8.8.8.8.8.8.8.",
"8.8.8.8.8.8.8.8.8.8.) ^  .[  .S S S D S V b S V M c c c c D c c c c { R X.M ' 8.8.8.8.8.8.8.8.8.",
"8.8.8.8.8.8.8.8.8.8.( [ &.&.&.%.#.#.#.@.#.@.@.#.O.#.o.O.O.O.O.O.O.#.#.#.$.L ' 8.8.8.8.8.8.8.8.8.",
"8.8.8.8.8.8.8.8.8.8.W F  .T T T Y Y Y Y Y U U U U U U U U U U U P U Y R R l ( 8.8.8.8.8.8.8.8.8.",
"8.8.8.8.8.8.8.8.8.8.E x H C C V C C N N C m g N N m m m m N m m N m m Z U a ( 8.8.8.8.8.8.8.8.8.",
"8.8.8.8.8.8.8.8.8.8.n @ # * @ * % % % % @ @ @ % @ % @ @ @ @ @ @ @ % @ @ % X Q 8.8.8.8.8.8.8.8.8.",
"8.8.8.8.8.8.8.8.8.8.1.:.:.:.:.:.:.:.:.:.:.:.:.:.:.:.:.:.:.:.:.:.:.:.:.:.:.:.3.8.8.8.8.8.8.8.8.8.",
"8.8.8.8.8.8.8.8.8.8.8.8.8.8.8.8.8.8.8.8.8.8.8.8.8.8.8.8.8.8.8.8.8.8.8.8.8.8.8.8.8.8.8.8.8.8.8.8.",
"8.8.8.8.8.8.8.8.8.8.8.8.8.8.8.8.8.8.8.8.8.8.8.8.8.8.8.8.8.8.8.8.8.8.8.8.8.8.8.8.8.8.8.8.8.8.8.8.",
"8.8.8.8.8.8.8.8.8.8.8.8.8.8.8.8.8.8.8.8.8.8.8.8.8.8.8.8.8.8.8.8.8.8.8.8.8.8.8.8.8.8.8.8.8.8.8.8.",
"8.8.8.8.8.8.8.8.8.8.8.8.8.8.8.8.8.8.8.8.8.8.8.8.8.8.8.8.8.8.8.8.8.8.8.8.8.8.8.8.8.8.8.8.8.8.8.8.",
"8.8.8.8.8.8.8.8.8.8.8.8.8.8.8.8.8.8.8.8.8.8.8.8.8.8.8.8.8.8.8.8.8.8.8.8.8.8.8.8.8.8.8.8.8.8.8.8.",
"8.8.8.8.8.8.8.8.8.8.8.8.8.8.8.8.8.8.8.8.8.8.8.8.8.8.8.8.8.8.8.8.8.8.8.8.8.8.8.8.8.8.8.8.8.8.8.8."
};
