/* XPM */
static char *_9cbaa3208bb4b2ddec16917e4b9abdapIGZa2HcxHSvkVFc[] = {
/* columns rows colors chars-per-pixel */
"48 48 71 1 ",
"  c #46200A",
". c #4B2712",
"X c #4F2D19",
"o c #51301B",
"O c #4F3421",
"+ c #523321",
"@ c #543723",
"# c #5A3F2E",
"$ c #5B422F",
"% c #5B4030",
"& c #584636",
"* c #5E4535",
"= c #5D4939",
"- c #624F3E",
"; c #64503D",
": c #67513E",
"> c #644F40",
", c #654F41",
"< c #665143",
"1 c #665244",
"2 c #675244",
"3 c #635547",
"4 c #655647",
"5 c #685748",
"6 c #6A5B4C",
"7 c #6C5E4F",
"8 c #6C6051",
"9 c #6D6457",
"0 c #6A6358",
"q c #706657",
"w c #776A5A",
"e c #7B6A5D",
"r c #726D60",
"t c #7A7163",
"y c #7E766A",
"u c #7E7C6F",
"i c #816454",
"p c #826555",
"a c #856A5B",
"s c #866A5B",
"d c #80796C",
"f c #827E71",
"g c #818174",
"h c #828276",
"j c #828377",
"k c #848377",
"l c #858478",
"z c #86867A",
"x c #87877B",
"c c #89837B",
"v c #88887C",
"b c #89897E",
"n c #898B7F",
"m c #8D8981",
"M c #8C8A81",
"N c #8A8D82",
"B c #8D8E83",
"V c #8D8E84",
"C c #908D85",
"Z c #918F87",
"A c #8F9288",
"S c #929089",
"D c #909389",
"F c #91948A",
"G c #95948D",
"H c #989A93",
"J c #EAE6E3",
"K c #EBE7E4",
"L c #ECE9E6",
"P c #EDEBE8",
"I c white",
/* pixels */
"IIIIIIIIIIIIIIIIIIIIpun:6OLIIIIIIIIIIIIIIIIIIIII",
"IIIIIIIIIIIIIIIIIIIIpuzNw#KIIIIIIIIIIIIIIIIIIIII",
"IIIIIIIIIIIIIIIIIIIIpuzkA>KIIIIIIIIIIIIIIIIIIIII",
"IIIIIIIIIIIIIIIIIIIIpuzkV>KIIIIIIIIIIIIIIIIIIIII",
"IIIIIIIIIIIIIIIIIIIIpuzzV-JIIIIIIIIIIIIIIIIIIIII",
"IIIIIIIIIIIIIIIIIIIIpuzkV>JIIIIIIIIIIIIIIIIIIIII",
"IIIIIIIIIIIIIIIIIIIIpuzkB>JIIIIIIIIIIIIIIIIIIIII",
"IIIIIIIIIIIIIIIIIIIIpuzzV-JIIIIIIIIIIIIIIIIIIIII",
"IIIIIIIIIIIIIIIIIIIIpuzkV>JIIIIIIIIIIIIIIIIIIIII",
"IIIIIIIIIIIIIIIIIIIIpuzhV>JIIIIIIIIIIIIIIIIIIIII",
"IIIIIIIIIIIIIIIIIIIIpcSZG-KIIIIIIIIIIIIIIIIIIIII",
"IIIIIIIIIIIIIIIIIIIIs@775.LIIIIIIIIIIIIIIIIIIIII",
"IIIIIIIIIIIIIIIIIIIIphMnD2JIIIIIIIIIIIIIIIIIIIII",
"IIIIIIIIIIIIIIIIIIIIpuzhV>JIIIIIIIIIIIIIIIIIIIII",
"IIIIIIIIIIIIIIIIIIIIpuzlB>JIIIIIIIIIIIIIIIIIIIII",
"IIIIIIIIIIIIIIIIIIIIpuzlV-JIIIIIIIIIIIIIIIIIIIII",
"IIIIIIIIIIIIIIIIIIIIpuzlV>JIIIIIIIIIIIIIIIIIIIII",
"IIIIIIIIIIIIIIIIIIIIpuzkV-JIIIIIIIIIIIIIIIIIIIII",
"IIIIIIIIIIIIIIIIIIIIpuzlV-KIIIIIIIIIIIIIIIIIIIII",
"IIIIIIIIIIIIIIIIIIIIiuzlB>KIIIIIIIIIIIIIIIIIIIII",
"IIIIIIIIIIIIIIIIIIIIpMVkN>JIIIIIIIIIIIIIIIIIIIII",
"IIIIIIIIIIIIIIIIIIIIp4yDD<JIIIIIIIIIIIIIIIIIIIII",
"IIIIIIIIIIIIIIIIIIIIsr03e+LIIIIIIIIIIIIIIIIIIIII",
"IIIIIIIIIIIIIIIIIIIIpw0=d#KIIIIIIIIIIIIIIIIIIIII",
"IIIIIIIIIIIIIIIIIIIIs&-fD>JIIIIIIIIIIIIIIIIIIIII",
"IIIIIIIIIIIIIIIIIIIIs-tzV,JIIIIIIIIIIIIIIIIIIIII",
"IIIIIIIIIIIIIIIIIIIIphzzV>KIIIIIIIIIIIIIIIIIIIII",
"IIIIIIIIIIIIIIIIIIIIpuzkV>KIIIIIIIIIIIIIIIIIIIII",
"IIIIIIIIIIIIIIIIIIIIpuzzB>JIIIIIIIIIIIIIIIIIIIII",
"IIIIIIIIIIIIIIIIIIIIpuzkB>JIIIIIIIIIIIIIIIIIIIII",
"IIIIIIIIIIIIIIIIIIIIpuzkB>JIIIIIIIIIIIIIIIIIIIII",
"IIIIIIIIIIIIIIIIIIIIpuzzB>JIIIIIIIIIIIIIIIIIIIII",
"IIIIIIIIIIIIIIIIIIIIpuzhM:KIIIIIIIIIIIIIIIIIIIII",
"IIIIIIIIIIIIIIIIIIIIiMAZH2JIIIIIIIIIIIIIIIIIIIII",
"IIIIIIIIIIIIIIIIIIIIso87< PIIIIIIIIIIIIIIIIIIIII",
"IIIIIIIIIIIIIIIIIIIIphnxA2JIIIIIIIIIIIIIIIIIIIII",
"IIIIIIIIIIIIIIIIIIIIpuzlV>JIIIIIIIIIIIIIIIIIIIII",
"IIIIIIIIIIIIIIIIIIIIpuzlV>JIIIIIIIIIIIIIIIIIIIII",
"IIIIIIIIIIIIIIIIIIIIpuzlB>JIIIIIIIIIIIIIIIIIIIII",
"IIIIIIIIIIIIIIIIIIIIpuzlB>JIIIIIIIIIIIIIIIIIIIII",
"IIIIIIIIIIIIIIIIIIIIpuzlB>JIIIIIIIIIIIIIIIIIIIII",
"IIIIIIIIIIIIIIIIIIIIpuzlB-JIIIIIIIIIIIIIIIIIIIII",
"IIIIIIIIIIIIIIIIIIIIpuzlB>JIIIIIIIIIIIIIIIIIIIII",
"IIIIIIIIIIIIIIIIIIIIpuzkB-JIIIIIIIIIIIIIIIIIIIII",
"IIIIIIIIIIIIIIIIIIIIifckV>JIIIIIIIIIIIIIIIIIIIII",
"IIIIIIIIIIIIIIIIIIIIpdMnZ*JIIIIIIIIIIIIIIIIIIIII",
"IIIIIIIIIIIIIIIIIIIIs$9q8XLIIIIIIIIIIIIIIIIIIIII",
"IIIIIIIIIIIIIIIIIIIIihMzD2JIIIIIIIIIIIIIIIIIIIII"
};
