/* XPM */
static char *_5eff3db9e204b938ddd9e6aa104de1au2qulpEvm0k95ayF[] = {
/* columns rows colors chars-per-pixel */
"48 48 103 2 ",
"   c #421B05",
".  c #45200A",
"X  c #4F2C18",
"o  c #512C16",
"O  c #512E19",
"+  c #55321D",
"@  c #543624",
"#  c #523827",
"$  c #553B2A",
"%  c #583E2D",
"&  c #573F31",
"*  c #583F31",
"=  c #4D4235",
"-  c #4D453A",
";  c #554133",
":  c #5A4334",
">  c #5B4835",
",  c #52453A",
"<  c #5A4639",
"1  c #56493D",
"2  c #5C4A3C",
"3  c #60422D",
"4  c #604D3B",
"5  c #554D43",
"6  c #5D4D42",
"7  c #574F48",
"8  c #575147",
"9  c #5C5246",
"0  c #575048",
"q  c #5C544A",
"w  c #5D584F",
"e  c #5B5750",
"r  c #5F5A50",
"t  c #604E41",
"y  c #625346",
"u  c #61554B",
"i  c #64594F",
"p  c #6A5A4A",
"a  c #605750",
"s  c #635A52",
"d  c #685E54",
"f  c #665F58",
"g  c #666057",
"h  c #6A6156",
"j  c #67615A",
"k  c #6A655C",
"l  c #6C685E",
"z  c #776757",
"x  c #726659",
"c  c #716A5D",
"v  c #6B6760",
"b  c #6D6961",
"n  c #726D66",
"m  c #736F69",
"M  c #757367",
"N  c #787064",
"B  c #767369",
"V  c #797A70",
"C  c #7E7E72",
"Z  c #7F7C74",
"A  c #877769",
"S  c #807A6D",
"D  c #807C74",
"F  c #817E75",
"G  c #827F76",
"H  c #827E77",
"J  c #838078",
"K  c #838179",
"L  c #858279",
"P  c #86837B",
"I  c #85837C",
"U  c #86847C",
"Y  c #88897D",
"T  c #8A897E",
"R  c #8A897F",
"E  c #898B7F",
"W  c #8B8A7F",
"Q  c #8C8B80",
"!  c #8D8D82",
"~  c #8E8E83",
"^  c #8F9085",
"/  c #A5988D",
"(  c #DED7D3",
")  c #E0D8D5",
"_  c #E1DAD6",
"`  c #E2DAD7",
"'  c #E2DBD8",
"]  c #E2E1DF",
"[  c #E3E2E1",
"{  c #E4E1E0",
"}  c #E4E3E1",
"|  c #E5E4E2",
" . c #E5E5E2",
".. c #E4E4E3",
"X. c #E5E4E3",
"o. c #E5E5E4",
"O. c #E6E5E4",
"+. c #E5E6E5",
"@. c #EAEBE9",
"#. c #EEEAE8",
"$. c #F6F4F3",
"%. c #FBFAF9",
"&. c white",
/* pixels */
"%.( ' ' ' ' ' ' ` ` ` _ $.#._ _ ' _ ' _ _ ' ' ' ' ' _ ' ' ' ' ' ' ' ' _ &.( ' ' ' ' ' ' ` ` ` ` ",
"] $ 4 4 4 4 4 4 4 4 4 2 A z 2 4 4 4 4 4 4 4 4 4 4 4 4 4 4 4 4 4 4 4 4 > / : 4 4 4 4 4 4 4 2 4 4 ",
"@.C Y Y Y Y Y Y W W Y W h N Q Q Y Y Q Y Y Y Y Y Y Y Y Y Y Y Y Y Y Y Y ~ : ^ Y Y Y Y Y Y Y W W Y ",
"@.C Y Y Y Q Y Y W Y Q ^ z S Q Q W Q Q Y W W Q Q Y W W Y W Y W Q Y E Q Q p ^ Q Y Y Y Q Q W W W E ",
"#.m D D D D D D D D D U x N U D J J J D D J D D D D D D D D D D D D J Y 4 U J J D J D J D J F F ",
"X.q k k k k k k k k l l t s l k k k k k k h k k l k k k k k k k k k l l : l k j k l k k k k k j ",
"| a l l c l l l l k l b y d l l l l l k l l l k l l l l l l l l l l l b > n l l l k k l l l k c ",
"O.w l l l l l l l k l l y i l l k k k l l k k k l k c l l l l k k l l b : b k l l k l k l k k k ",
"O.w l l l k l l l l k l y i l k l l l l k k j l l k k k c k k k l k l v > v l l k k k l k k k l ",
"X.q k k k j j j j k l l 6 p l k k j g j j l j k k k k k k k k k k l j v ; v k j k k k g k k k j ",
"X.q k k j k k k k j j l 2 y l j j k l k k k k j k k k k h k k k k j j v + l j l h k l k k j l j ",
"X.0 k k k k j k j l j k 2 9 k j k g g k j j j k f k f k k k k f j l j v @ l j j k j g k k g j j ",
"X.0 f g g g g g j j g v 1 y k j g j j g j j f g f f j f d f f j g j j v # v j g g j j j j j j j ",
"O.w v k b k l l k l v b < q k l l l v k k l l l l v l v l v k l l l v b X b v k l k k k v v l k ",
"'   O + X X X X X + X X $ @ o + X + O X o O X X X X O O X + O X X X + o , o + o X + O X O O O O ",
"[ - q q q e w q q q q q q q q q q 1 ; w w q w w q e q q q q q q q q q q 9 w q w e # q q q u q q ",
"X.= 9 9 9 9 9 9 9 9 9 9 u 7 7 u q 1 : q 9 y 9 q 9 9 9 9 9 9 9 9 q 9 9 9 q 9 9 q q @ 0 9 y 9 9 y ",
"] = q 9 9 9 9 9 q 9 9 9 6 6 u 7 0 1 ; 9 9 9 9 9 9 9 9 9 q 9 q 9 9 9 9 9 9 9 9 9 q $ 9 9 9 9 9 9 ",
"] = 9 9 9 9 0 9 9 7 9 9 6 7 t t 9 1 ; q 9 9 9 6 9 9 9 9 9 9 9 9 q 9 9 q 9 9 9 9 q $ 9 0 9 9 9 9 ",
"| 1 s a a a a s a a a a s s d s s 9 1 a a s a s a a a s w i w i a a u u u a r i s ; i w s s a a ",
"X.q j j j v f j j f k f f v f f l i 6 v f j f j j j j j k k k j j j l j j j l j l ; j l j j j j ",
"[ , y q 6 6 6 u i i u i u a u < : % % : s u u u u y i y 9 2 y 9 q y u u u u 1 : % ; % 2 u q u u ",
"X.q l l b y k m m m m m m m m m M m m m n n n n m m m m b u v l j b j l b l l b l v v l v l j l ",
"O.8 j f f t B v v b b b v v b b b b b l b b v v b b l b k 9 j j f k f f f f j f j g j g j f j f ",
"O.0 g j j 4 B b b b v b x b b b b b b b b b b b b b b b f y f f f k f f f k j f j j j j g j j j ",
"O.0 j j j 0 B b v b b b b b b b v v b b b b b b b b b b v u f k k f f k f f f f g j g g j j g j ",
"O.q j j j 2 B b v b b n b b b b b b b b b b b b b b b b f : v j f k f f k k f k k j j j j g g g ",
"X.5 u s s O k s d d f h h h h h h d i d d d d i i d i d y * i i u u a u u s i i i i i i s d f s ",
"[ , y t t < % % * * < < < < < < < * @ $ $ $ $ @ $ @ @ @ $ * $ % $ $ $ $ % * * * ; # 6 y i s s f ",
"| w f j f j f f f f f f h f f f h u * t s a a a a a a a a a a a a a a a a a a a 6 % j j j g j j ",
"| 7 s f f f f f f f f f f f f f f a 6 s s a a a a a s a a a a a s a s a a a s s u : g f f f f g ",
"| 7 f f f f f f f f f h f f f f f s u a a a s s a a a a s s a s a s a s a a a r s < s f f f f g ",
"| 7 f f f f f f f f f f f f f f f f 9 s w s a s a e a a a a a s a s a s s a s a s 1 f f f f f f ",
"| 7 f f f f f f f f f f j f f j k y < s s w s s s s a s a a a s s s a s s s s s f $ f f f f f f ",
"] 1 u 9 y u y u a y 9 u u y u 6 : % @ ; < < 6 6 6 y 6 6 a a s < < < < < 4 * * * & X * t u u a y ",
"| 9 k k j 6 j j k k j j f k j d i f f f s d d f f f f k 6 f * f f s f f h f f s a s d f f f f f ",
"| 7 f f f 6 j f f f f f f f f f f f f f f f f f f f f f s @ s f f f f f f f f f f f f f f f f f ",
"| 7 f f f 6 f f f f f f f f f f f f f f f f f f f f f f s t j f f f f f f f f f f f f f f f f f ",
"| 7 f f f q f f f f f f f f f f g f f f f f f f f f f f s t f f f f f f f f f f f f f f f f f f ",
"| 7 f f f : j f f f f f f f f f f f f f f f g j f f f f s t f f f f f f f f f f f f f f f f f f ",
"X.q k k v ; b j f v j v f j j j j k k k k j j k j j j k j 2 l k j k j j g j k j k k f j j k j v ",
"( . + + + o + + @ O + + 6 & O @ + + + + + @ + + @ + + + + X + + @ + + + j + + + + + + + @ + + + ",
"@.b V V V V V V V V V D p c Z V V V V V V V V V V V V V V V V V V V V C 3 V V V Z V V V V V V V ",
"O.l B B B B M M B B N B h c B B B B B B B B M B B B B B B B M M B B M B i V M M B B B B B B B B ",
"O.k B M M M M M M M M B h c B M M M M M M M M M M M M M M M M M M M M B y B M M M M M M m B N B ",
"@.B J D J C J J C J J J c N J D J C J C J C J J D J J D J J F J D D D U p J J J J J J J D H J D ",
"] 8 w g s g s g s s d s i i d s s g i g s s g r s r s g s s g w j r j i i g w g i s s s u d s j ",
"X.8 g g g g g g g g g j > 9 j j g g g g g g g g g g g g g g g g g g g l + j g g g g g g j f f f "
};
