/* XPM */
static char *_791dfd8b343439983b35c83693c0e6dR9MW2xyyQvl0Napn[] = {
/* columns rows colors chars-per-pixel */
"65 64 137 2 ",
"   c None",
".  c #4F2913",
"X  c #512D19",
"o  c #512E19",
"O  c #512E1A",
"+  c #512F1B",
"@  c #522F1B",
"#  c #4F311E",
"$  c #52301C",
"%  c #52301D",
"&  c #52301E",
"*  c #52311E",
"=  c #53321E",
"-  c #53321F",
";  c #56321C",
":  c #4F3625",
">  c #533220",
",  c #533320",
"<  c #533321",
"1  c #543321",
"2  c #543422",
"3  c #543523",
"4  c #543624",
"5  c #553726",
"6  c #553827",
"7  c #553927",
"8  c #5A3B27",
"9  c #5E3B25",
"0  c #563929",
"q  c #563A28",
"w  c #563B2A",
"e  c #563C2C",
"r  c #563D2C",
"t  c #573C2D",
"y  c #573D2D",
"u  c #573D2E",
"i  c #573E2E",
"p  c #593D2A",
"a  c #583E2E",
"s  c #583F30",
"d  c #5B4231",
"f  c #594032",
"g  c #584132",
"h  c #5E4532",
"j  c #594234",
"k  c #594235",
"l  c #5B4435",
"z  c #5A4537",
"x  c #5A4538",
"c  c #5B4538",
"v  c #5A4638",
"b  c #5B473A",
"n  c #5B483B",
"m  c #5B493C",
"M  c #5C4B3E",
"N  c #624937",
"B  c #5D4C41",
"V  c #5C4D41",
"C  c #5D4D41",
"Z  c #5D4D42",
"A  c #5D4E42",
"S  c #5D4E43",
"D  c #5D4F43",
"F  c #5E4F44",
"G  c #5E4F45",
"H  c #5D5044",
"J  c #5C5147",
"K  c #5E5146",
"L  c #5C5247",
"P  c #5D5247",
"I  c #5D5248",
"U  c #5F5349",
"Y  c #655444",
"T  c #665444",
"R  c #675544",
"E  c #625449",
"W  c #62554A",
"Q  c #62554B",
"!  c #62564B",
"~  c #60554C",
"^  c #60554D",
"/  c #60564D",
"(  c #63564C",
")  c #63574D",
"_  c #60564E",
"`  c #60564F",
"'  c #61574F",
"]  c #615851",
"[  c #645850",
"{  c #655C55",
"}  c #655D56",
"|  c #675F56",
" . c #665F58",
".. c #666057",
"X. c #676159",
"o. c #676259",
"O. c #68625A",
"+. c #68635A",
"@. c #69635B",
"#. c #69645B",
"$. c #69645C",
"%. c #6A645C",
"&. c #6A655C",
"*. c #6B655D",
"=. c #6A665C",
"-. c #6B665D",
";. c #6B675D",
":. c #6C665E",
">. c #6C675E",
",. c #6C675F",
"<. c #6C685E",
"1. c #6D685F",
"2. c #6D695F",
"3. c #6D6861",
"4. c #736E66",
"5. c #726E67",
"6. c #736E67",
"7. c #746F67",
"8. c #736F68",
"9. c #746F69",
"0. c #747068",
"q. c #757068",
"w. c #747069",
"e. c #757169",
"r. c #74706A",
"t. c #75716A",
"y. c #75716B",
"u. c #76726B",
"i. c #767469",
"p. c #76726C",
"a. c #868579",
"s. c #86847B",
"d. c #88877B",
"f. c #918F88",
"g. c #929088",
"h. c #94928B",
"j. c #99978F",
/* pixels */
"                                                                                                                                  ",
"  8 8 8 8 8 8 8 8 8 8 8 8 8 8 8 8   8 8 8 8 8 8 8 8 8 8 8 8 8 8 8 8 8 8 8 8 8 8 8 8 8 8 8 8 8 8 8   8 8 8 8 8 8 8 8 8 8 8 8 8 8 8 ",
"  a.a.a.a.a.a.a.a.a.a.a.a.a.a.d.a.h a.a.a.a.a.a.a.a.a.a.a.a.a.a.a.a.a.a.a.a.a.a.a.a.a.a.a.a.a.d.a.h a.a.a.a.a.a.a.a.a.a.a.a.a.a.a.",
"  a.a.a.a.a.a.a.a.a.a.a.a.a.a.a.a.N a.a.a.a.a.a.a.a.a.a.a.a.a.a.a.a.a.a.a.a.a.a.a.a.a.a.a.a.a.a.a.N a.a.a.a.a.a.a.a.a.a.a.a.a.a.a.",
"  a.a.a.a.a.a.a.a.a.a.a.a.a.a.a.a.T a.a.a.a.a.d.a.a.a.a.a.a.a.a.a.a.a.a.a.a.a.a.a.a.a.a.a.a.a.a.a.R a.a.a.a.a.a.a.a.a.a.a.a.a.a.a.",
"  f.g.g.f.g.f.f.f.g.g.g.g.h.j.j.j.T h.j.j.j.h.h.h.h.h.h.h.h.h.h.g.f.g.g.g.f.f.f.g.g.g.f.g.h.j.j.j.R g.j.j.j.h.h.h.h.h.h.h.h.h.h.h.",
"  1.1.1.<.1.1.1.<.3.1.2.1.1.1.1.1.d 1.1.>.>.>.1.1.1.1.=.1.1.1.1.3.1.1.1.1.1.1.1.1.1.1.2.1.1.1.1.1.d 1.1.3.<.1.1.3.1.1.=.<.<.1.<.1.",
"  1.1.1.3.1.1.1.1.1.1.1.1.1.1.1.1.d 1.1.1.1.>.>.1.1.1.1.1.=.<.=.<.1.1.1.1.1.1.1.1.1.1.1.1.1.1.1.1.d 1.1.1.1.<.1.1.1.1.1.=.<.<.<.>.",
"  1.1.>.1.1.>.3.1.<.<.<.<.1.<.=.>.d >.>.>.>.>.>.>.>.>.>.>.>.>.>.<.1.1.1.3.>.1.1.1.<.<.<.>.>.1.>.>.d >.>.>.>.>.>.1.1.>.>.>.>.>.>.>.",
"  1.1.>.1.1.1.>.<.<.1.1.=.1.>.1.>.d >.>.>.>.>.=.=.>.>.>.>.>.>.>.=.3.<.<.>.>.1.1.1.<.<.<.>.>.>.>.>.d >.>.>.>.>.>.+.<.>.>.>.>.>.>.>.",
"  >.>.>.=.1.>.>.<.1.=.>.>.=.=.1.>.d =.>.>.=.>.>.>.=.>.>.=.>.>.=.=.>.<.=.>.>.>.>.>.>.=.1.>.=.>.=.>.d =.>.=.>.>.%.1.1.>.>.>.>.=.>.1.",
"  =.>.=.>.=.=.=.=.=.>.=.=.>.=.=.=.d >.>.=.>.=.*.>.O.=.=.=.+.>.+.=.>.=.>.%.>.=.>.>.=.>.=.%.>.=.>.=.d >.=.>.=.=.>.=.+.+.=.+.=.=.+.+.",
"  =.=.=.=.%.=.%.=.%.=.%.=.*.*.*.>.p *.>.=.>.%.*.%.>.%.%.>.O.>.>.=.=.%.=.%.=.=.=.+.=.%.=.%.>.>.*.*.p >.>.>.O.>.>.%.%.%.%.=.=.%.=.>.",
"  =.=.%.%.=.%.=.%.=.%.=.=.=.%.%.>.= O.O.O.+.O.%.O.+.+.O.=.+.O.+.%.=.=.=.=.%.=.=.=.=.=.=.>.O.=.%.O.= O.O.O.%.O.+.O.=.O.=.O.=.%.O.+.",
"  O.O.%.O.=.O.%.O.=.O.=.O.%.%.%.+.= =.+.O.%.=.O.O.=.=.O.+.=.+.+.O.%.O.%.%.O.%.O.O.%.O.%.O.O.=.=.=.= %.O.=.O.O.=.=.O.=.O.O.=.O.=.O.",
"  %.O.%.%.O.=.O.%.O.%.O.=.O.%.o.O.= O.+.O.O.+.+.+.+.+.+.+.+.+.O.%.O.=.O.O.%.O.%.%.O.=.O.O.%.O.O.O.= +.O.+.O.O.+.+.+.+.+.+.+.O.O.O.",
"  O.o.o.o.O.o.o.O.o.O.%.o.O.%.o.O.> O.O.O.O.O.O.O.O.O.+.+.O.O.O.O.O.o.o.o.o.o.o.O.o.O.O.O.O.+.O.O.= O.O.O.O.O.O.O.O.O.O.O.O.O.O.O.",
"  O.O. .o. .o.o.o.o. .o.o. . .o.o.* O. .o. .o.O.O...O...o.O.o.O.o. .o.O.o.o.o.o.o.O. .o.o.o.o.o.O.= o.O.o.o. .O. .o. .o.O.o.o.o.O.",
"  o.o.o. .o. .O.o.o.o.o.o. .%. .o.. o.o. .o. .O.+.O.....o.o.o. .o.o.o. . .O.o.o. .O. .O.o.o.o.o.o..  .O.o.o.o.o.O.o. .O.O. .o.o.O.",
"  . . . . . . . . . . . . . . . . J . . . . . . . . . . . . . . . . . . . . . . . . . . . . . . . J . . . . . . . . . . . . . . . ",
"  L L L I J J L L L L L L L L L L L L L I J J L # J J L J E L J I J J J L L L L J J J L L L L L J J L L L L L L # L L H J J J E I ",
"  L L L J J L L L L L L L L L L L L L L J J L L # L L L J L L J I J J J L L L L J J L L L L L L J J L L L L L L # L L E J J J J I ",
"  L L L L L L L L L L L L L L L L L L L L L L L : L L L L L L E I L L L L L L L L L L L L L L L J L L L L L L L : L L L L J L L I ",
"  L L L L L L L L L L L L L L L L L L L L L L L : L L H E L L L I L L L L L L L L L L L L L L J L L L L L L L L : L L L L J E L I ",
"  L L L J J L L L L L L J J J L L L L L J J J L : L L L J J J J I L J J J L L L J J J L L L J J L L L L L L L L : L J J J L L E J ",
"  L L L J J L L L L L L J I L L L L L L J J L L : J J L J J E J L L J J L L L L J I L L L L J J L L L I L L L L : L J J J J J J J ",
"  o.o.o.o. .o.o. .o.O.o.o. .o.o. .o.o.o. .O.o.o.s o.o.o. .O.o.o.O.o.o.O. .o.o.o.o. .o.| o.o.o.O.o. . .O. .o.o.o.g o.o.o.O.....O.O.",
"  o.o.o.o.o.o.O.O.o.o.o. .%. .o.O.o.o.o.o.O. .o.4 o.o.o.o.O. . .o.o.o. .O.o.o.o.O. .o.O.o.o.o. .o.o.o.O. .o. .o.3 ..o.o.O.O.O...O.",
"  J J E F J B B B J J J E E E I I E J E g g e w 4 w s I E I I E E J J J J F B B B F J J I E I E I E I I s g e w 6 4 s I L E I I I ",
"  1.>.>.>.>.1.B B u.y.u.y.u.y.y.y.y.u.u.u.6.7.7.7.7.7.6.6.7.6.6.7.7.u.i.u.7.7.B 3.3.>.3.3.=.3.>.3.>.3.3.>.>.3.3.3.>.3.>.1.1.>.3.3.",
"  O.o.o.O.O.O.B 7.3.3.3.3.3.3.3.3.3.3.3.>.3.3.3.3.3.3.3.3.3.3.3.>.3.3.3.3.3.3.B  .O.o.O.o. .o. .O. . .O.O.o. .o. .O.O.o. .o.O.o. .",
"  O. .O.O...| B u.3.3.3.3.3.3.3.3.3.3.3.3.3.3.3.3.3.3.3.3.3.3.3.3.3.3.3.3.3.3.B o.O. . .o.o.O. .o.o.O. . .o.O.O. .O. .o.O.O. .o.o.",
"  o. .%. .o.o.B y.3.3.3.3.3.3.3.3.3.3.3.3.3.3.3.3.3.3.3.3.3.3.3.3.3.3.3.3.3.3.B o. .O.O.o. .O.o. . .O.o.o. .o.%. .o. .o. . .%. .o.",
"   .o. .o.o.o.B y.3.3.3.3.3.3.3.3.3.3.3.3.3.3.3.3.3.3.3.3.3.3.3.3.3.3.3.3.3.3.B O. .o. .o.O. .o.O.o.O. . .%.o. .o. .%. .o.o. .o. .",
"  o.o.o.o. .o.B 9.3.3.3.3.3.3.3.3.3.3.3.3.3.3.3.3.3.3.3.3.3.3.3.3.3.3.3.3.3.3.B O.o. .o. . .O.O.o.O.o. .o. . .%.o. .o.o. .o.o.o.o.",
"  o. .o. .%.o.g 9.3.3.3.3.3.3.3.3.3.3.3.3.3.3.3.3.3.3.3.3.3.3.3.3.3.3.3.3.3.3.-  .o.O.o.O.o.o. . . .o.O.o. .o. . .%. .o.o. .%. .o.",
"   .o.o.o.o. .> 8.3.3.3.3.3.3.3.3.3.3.3.3.3.3.>.3.3.3.3.3.3.3.3.3.3.3.3.3.3.3.- o.o. .O.o.o.o.o.O.o. .%. . .o.o.O. .o.O.o. .O. .o.",
"  M n n t t 3 o o o * 1 7 4 l l c d c c c g c a * > 3 > > 1 > * @ * * o o o o c > > 1 > > > > 1 6 6 t t t t t t t t t c I ~ I E I ",
"  %.%.%.%.%.%.| [ ) ) ) ) ) Q ` ) E E E Q Q Q E e B M B B B B B B B B B B B B B B B B B B B B B Z B B B B B B B t 3.3.=.3.=.3.3.3.",
"   . . . . . . . . . . . . ... .O. . ... . . .o.e B B ] ] ] ] ] ] ] ] ] ] ] ] ] ] ] ] ] ] ] ] ] ] ] ] ] ] ] B B t  . . . . . . . .",
"   . . . . . . . . . . . . . . .|  . . . . . . .e ] ] ] ] ] ] ] ] ] ] ] ] ] ] ] ] ] ] ] ] ] ] ] ] ] ] ] ] ] ] B s  . . . . . . . .",
"   . . . . . . . . . . . . . . . . . . . . . . .F ] ] ] ] ] ] ] ] ] ] ] ] ] ] ] ] ] ] ] ] ] ] ] ] ] ] ] ] ] ] ] g {  . . . . . . .",
"   . . . . . . . . . . . . . . . . . . . . . . .F ] ] ] ] ] ] ] ] ] ] ] ] ] ] ] ] ] ] ] ] ] ] ] ] ] ] ] ] ] ] ] k }  . . . . . . .",
"   . . . . . . . . . . . . . . . . . . . . . . .F ] ] ] ] ] ] ] ] ] ] ] ] ] ] ] ] ] ] ] ] ] ] ] ] ] ] ] ] ] ] ] b  . . . . . . . .",
"   . . . . . . . . . . . . . . . . . . . . . . .3 ] ] ] ] ] ] ] ] ] ] ] ] ] ] ] ] ] ] ] ] ] ] ] ] ] ] ] ] ] ] ] 3  . . . . . . . .",
"   . . .|  . . . .|  . . . . . . . . .o. . . . .> ] ] ] ] ] ] ] ] ] ] ] ] ] ] ` ] ] ] ] ] ] ] ] ] ] ] ] ] ] ] ] @  . . . . . . .| ",
"  E I I M M M M M H B J L B F Z B B B F B > 4 1 o 6 4 7 7 a b M M M M M M M ` ` ` ` e a e e a e e e u 6 3 6 @ O O 3 > Z V V B Z B ",
"  3.3.=.3.3.=.M 3.<.3.=.3.<.=.3.<.3.=.3.3.3.>.3.3.>.3.3.>.>.>.3.3.>.3.=.3.>.M ` ` p >.>.3.>.>.3.3.=.3.3.=.3.3.3.=.3.3.=.3.3.=.3.3.",
"   . . . . . .M  . . . . . . . . . . . . . . . . . . . . . . . . . . . . . .| a a  . . . . . . . . . . . . . . . . . . . . . . . .",
"   . . . . . .M  . . . . . . . . . . . . . . . . . . . . . . . . . . . . . . .e |  . . . . . . . . . . . . . . . . . . . . . . . .",
"   . . . . . .I  . . . . . . . . . . . . . . . . . . . . . . . . . . . . . . .b  . . . . . . . . . . . . . . . . . . . . . . . . .",
"   . . . . . .I  . . . . . . . . . . . . . . . . . . . . . . . . . . . . . . .l  . . . . . . . . . . . . . . . . . . . . . . . . .",
"   . . . . . .d  . . . . . . . . . . . . . . . . . . . . . . . . . . . . . . .c  . . . . . . . . . . . . . . . . . . . . . . . . .",
"   . . . . .| a  . . . . . . . . . . . . . . . . . . . . . . . . . . . . . . .a  . . . . . . . . . . . . . . . . . . . . . . . .| ",
"  |  .|  . . .a  . . . . .|  . .|  . .|  . .| |  . . . . . . . . .|  . .|  .| a  .|  . .|  . ... . . .|  . . . . . . . . . . . ...",
"  = = ; ; ; ; ; ; ; ; ; ; ; ; = = | = ; ; = ; ; ; ; ; ; ; ; ; ; = ; ; = ; ; = ; = ; ; = ; ; = * =  .= ; ; ; ; ; ; ; ; ; ; ; ; ; = ",
"  i.i.i.i.i.i.i.i.i.i.i.i.i.i.i.i.8 i.i.i.i.i.i.i.i.i.i.i.i.i.i.i.i.i.i.i.i.i.i.i.i.i.i.i.i.i.i.i.9 i.i.i.i.i.i.i.i.i.i.i.i.i.i.i.",
"  i.i.i.i.i.i.i.i.i.i.i.i.i.i.i.i.Y i.i.i.i.i.i.i.i.i.i.i.i.i.i.i.i.i.i.i.i.i.i.i.i.i.i.i.i.i.i.i.E i.i.i.i.i.i.i.i.i.i.i.i.i.i.i.",
"  i.i.i.i.i.i.i.i.i.i.i.i.i.i.i.i.Y i.i.i.i.i.i.i.i.i.i.i.i.i.i.i.i.i.i.i.i.i.i.i.i.i.i.i.i.i.i.i.T i.i.i.i.i.i.i.i.i.i.i.i.i.i.i.",
"  i.i.i.i.i.i.i.i.i.i.i.i.i.i.i.i.Y i.i.i.i.i.i.i.i.i.i.i.i.i.i.i.i.i.i.i.i.i.i.i.i.i.i.i.i.i.i.i.T i.i.i.i.i.i.i.i.i.i.i.i.i.i.u.",
"  a.s.s.a.s.s.s.s.s.s.a.s.s.s.s.s.Y s.s.s.s.s.s.s.s.s.s.a.s.s.s.s.s.s.a.s.s.s.s.s.s.s.s.s.a.a.a.a.Y a.s.a.s.s.s.s.s.s.a.s.s.s.s.a.",
"  o... .....o.} o.} o... .| | o...Y ............o...........o.} o.} o...| | | o......... ...| ....Y o.| ....o.} | o. ...| O.| | ..",
"  ..............} ........} | o...Y ............................} ........} | o.........o.| ......E } ..........| o...............",
"  ........................o.| | ... ......................................o.| | ..........| ....... ..............} .............."
};
