/* XPM */
static char *_b029a9f8749431f9acfa4979bede6412if2TbjyH8YoEf1h[] = {
/* columns rows colors chars-per-pixel */
"50 48 212 2 ",
"   c #030404",
".  c #0C0906",
"X  c #0D0C0C",
"o  c #0A0603",
"O  c #1B0603",
"+  c #120E0C",
"@  c #150A06",
"#  c #15120D",
"$  c #1D130A",
"%  c #1D1608",
"&  c #020E17",
"*  c #0F1011",
"=  c #02111D",
"-  c #0C151C",
";  c #141312",
":  c #1B1A16",
">  c #1E1C1B",
",  c #171918",
"<  c #241C0C",
"1  c #28180A",
"2  c #241715",
"3  c #221A13",
"4  c #221D1A",
"5  c #291D1B",
"6  c #36170C",
"7  c #2D230B",
"8  c #3D2801",
"9  c #31250D",
"0  c #362606",
"q  c #24221D",
"w  c #2B251D",
"e  c #352712",
"r  c #051624",
"t  c #071826",
"y  c #02192C",
"u  c #091A28",
"i  c #141C22",
"p  c #242322",
"a  c #2A2623",
"s  c #2D2926",
"d  c #2D2B2A",
"f  c #322D2B",
"g  c #372D26",
"h  c #34302D",
"j  c #3B332E",
"k  c #2D2D33",
"l  c #363331",
"z  c #393532",
"x  c #3D3A36",
"c  c #3C3B3A",
"v  c #363839",
"b  c #112A38",
"n  c #4E150A",
"m  c #421108",
"M  c #5D1B0D",
"N  c #531E15",
"B  c #462B06",
"V  c #523408",
"C  c #533A18",
"Z  c #432D10",
"A  c #772411",
"S  c #653B13",
"D  c #47372D",
"F  c #5A3920",
"G  c #423E3A",
"H  c #473C34",
"J  c #613C21",
"K  c #5C440F",
"L  c #6D4902",
"P  c #664402",
"I  c #754E03",
"U  c #7B5204",
"Y  c #684619",
"T  c #6B5116",
"R  c #74591F",
"E  c #45413C",
"W  c #4B443D",
"Q  c #4F4136",
"!  c #5C4537",
"~  c #52453A",
"^  c #5B4739",
"/  c #55493E",
"(  c #5C4B3E",
")  c #544236",
"_  c #574D26",
"`  c #6A4325",
"'  c #664025",
"]  c #614D3F",
"[  c #7F6420",
"{  c #042A49",
"}  c #043257",
"|  c #05355C",
" . c #093354",
".. c #042E50",
"X. c #023761",
"o. c #3B5659",
"O. c #0B4B7C",
"+. c #0D4067",
"@. c #314863",
"#. c #4A4641",
"$. c #4F4A45",
"%. c #4D4B49",
"&. c #534B44",
"*. c #5D4D42",
"=. c #554F49",
"-. c #5C5045",
";. c #57514B",
":. c #5D544A",
">. c #5C5752",
",. c #5E5A56",
"<. c #475242",
"1. c #624F41",
"2. c #615146",
"3. c #62554B",
"4. c #64584E",
"5. c #6B5D4E",
"6. c #685749",
"7. c #605750",
"8. c #655C53",
"9. c #6A5E52",
"0. c #665F58",
"q. c #685F58",
"w. c #4C645F",
"e. c #676057",
"r. c #6C6053",
"t. c #676059",
"y. c #69635B",
"u. c #6D685F",
"i. c #736A5D",
"p. c #70675A",
"a. c #6D6760",
"s. c #6F6A62",
"d. c #716C63",
"f. c #706760",
"g. c #757267",
"h. c #797266",
"j. c #767369",
"k. c #7A766C",
"l. c #7C786D",
"z. c #6B6274",
"x. c #7C7673",
"c. c #7E7C72",
"v. c #727176",
"b. c #4C6D70",
"n. c #862915",
"m. c #97301A",
"M. c #A63A23",
"N. c #A83B24",
"B. c #B53F25",
"V. c #845804",
"C. c #946A12",
"Z. c #A26D08",
"A. c #A77109",
"S. c #A87612",
"D. c #875632",
"F. c #B94A2D",
"G. c #B84628",
"H. c #BE512E",
"J. c #AA553B",
"K. c #B95131",
"L. c #AE492E",
"P. c #9A7928",
"I. c #8F6230",
"U. c #9C6B35",
"Y. c #8B722E",
"T. c #A86F33",
"R. c #C2532C",
"E. c #C46C34",
"W. c #C96E31",
"Q. c #B35B40",
"!. c #857E74",
"~. c #C17842",
"^. c #B38437",
"/. c #BB9235",
"(. c #B08B2F",
"). c #CB883C",
"_. c #D28738",
"`. c #C7973C",
"'. c #D6933A",
"]. c #DCAE3D",
"[. c #DBA23D",
"{. c #E0B13E",
"}. c #B1A05C",
"|. c #848175",
" X c #86857A",
".X c #87867B",
"XX c #868579",
"oX c #89887B",
"OX c #9E8A61",
"+X c #D19D45",
"@X c #D5A243",
"#X c #E3B440",
"$X c #0A4E85",
"%X c #0B5187",
"&X c #0D548B",
"*X c #0F5995",
"=X c #125C96",
"-X c #3D789C",
";X c #266590",
":X c #1565A4",
">X c #1A6CAC",
",X c #1968A8",
"<X c #1D71B2",
"1X c #2D72A7",
"2X c #2073B4",
"3X c #3273A5",
"4X c #567F8D",
"5X c #628282",
"6X c #8A8980",
"7X c #8C8A81",
"8X c #8D8B82",
"9X c #8E8D83",
/* pixels */
"XXXX X X X|.XXXXXX.XXX|.k.h.!.XX.XXX.XXXXXXXXXXXXX.X X X X X X X.X X X X Xk.p.!.!.oX|.oXXXXXXXXXXXXX",
"XXXX X X X XXXXXXXoX.XXXh.!.!. X.X.X.X.X.X.X.X.X.X.X X X X X X X.X.X.X.X.Xk.i.!.|.oX XoXXXXX.X.X.X.X",
"6X6X6X6X6X6X6X6X7X7X9XoX|.!.oX8X7X7X6X8X7X7X8X6X6X6X6X6X6X6X6X6X6X6X9XoX9X|.h.|.8X8XoX8X6X8X8X8X7X6X",
"l.l.x.k.k.k.l.l.l.l.c.l.h.i.l.!.c.x.x.x.x.l.x.l.x.l.l.l.k.x.k.x.l.l.l.c.l.g.r.i.x.!.l.x.x.l.l.l.l.l.",
"d.s.s.s.s.s.s.d.s.s.d.u.r.r.u.u.d.s.d.s.e.>.$.#.W $.;.e.a.s.s.s.s.s.s.d.u.r.4.r.d.d.s.s.d.s.s.u.s.s.",
"u.u.s.u.a.s.u.s.u.u.u.y.e.r.u.u.u.u.y.;.G a : ; * : a x ;.t.u.u.u.u.u.u.u.e.6.r.u.u.u.u.u.u.u.u.u.s.",
"u.u.u.u.u.u.u.u.u.u.u.r.e.r.y.u.u.u.;.h , X $ $ % $ # a h &.e.u.u.u.u.y.u.e.:.r.u.u.u.u.u.u.y.u.u.u.",
"u.u.y.u.u.u.u.u.u.u.u.u.4.8.y.u.y.;.h # @ 7 C ' ` F e < X d %.t.y.u.u.u.u.5.6.5.u.y.u.y.y.u.u.y.u.y.",
"u.u.y.u.u.u.y.y.u.u.u.q.5.4.y.y.e.E ; # e ` D.D.D.D.` e . ; x ,.y.u.u.u.y.5.] 8.u.u.y.u.y.u.u.u.y.u.",
"y.y.u.y.y.u.y.u.y.y.u.q.4.4.r.u.8.E ; % C I.U.T.U.D.D.Y @ . d :.y.y.y.y.u.4.] 4.y.y.y.y.y.y.y.y.y.y.",
"y.y.y.y.y.y.y.y.y.y.y.8.4.4.e.y.8.x : 7 R /.`.`.`.^.U.` X   a >.y.y.y.y.y.4.] 4.y.y.y.y.y.y.y.y.y.y.",
"y.y.t.y.y.y.y.u.y.y.u.8.3.3.e.y.8.x # 7 I.{.{.{.#X@X^.` . . s :.e.y.y.e.y.:.( 4.y.e.y.t.y.y.r.e.y.y.",
"8.8.8.8.8.q.8.8.8.8.8.8.2.2.4.8.>.x : w _ /.].{.#X#XP.C . + h -.8.r.e.r.r.:.( :.e.8.8.8.5.e.e.e.e.8.",
"2.2.2.-.2.2.2.-.2.2.2.-.( *.2.-.-.Q w q e K P.(.(.P.T 6 o # g / ] :.:.-.:.] / ( -.:.:.] 2.-.-.-.2.-.",
"( ( ( ( ( ( ( ( ( ( ( ( ( -.( ( ( ) g 7 q 1 C S S S B 1 O + 4 H / / ( ] ( ( ( ( ( ( ( ^ ^ ( ( ( ( ( ",
"-.-.-.-.-.-.-.-.-.-.-.-.-.-.-.-.-.( H a 2 O M A n.n.n.A m 1 q H / &.-.] :.] -.:.-.] ( / / ] -.-.-.-.",
"-.:.:.:.:.-.:.-.:.-.-.:.:.:.:.-.-.-.Q h + 6 m.B.G.R.R.R.m.m s z W -.-.-.:.:.:.-.:.:.] ( ( -.:.-.-.:.",
":.:.-.-.:.:.:.:.:.:.:.:.:.2.:.:.:.( Q h O n M.B.R.R.W.W.B.M 5 s E -.:.:.:.:.:.:.:.:.:./ ( :.:.:.:.:.",
":.:.:.:.2.:.:.:.:.:.:.:.3.:.3.:.:.-.~ h O n N.G.R.W.@X_.R.M 2 5 G =.:.:.:.:.:.:.:.:.:.( ( :.:.:.3.:.",
"8.8.8.8.8.8.8.8.8.8.8.8.8.8.8.8.8.2./ h O n N.F.F._.#X'.H.M 2 p W :.4.,.e.8.e.8.8.8.4.:.2.>.8.4.8.8.",
"8.8.8.8.8.8.8.8.8.7.q.8.0.0.8.8.3.2.~ h O n N.F.E.'.@X+XH.M 2 p W >.8.8.8.e.8.8.4.4.:.] -.3.e.e.8.8.",
"4.8.8.4.3.2.6.8.8.y.q.y.q.y.q.3.6.-./ h O n L.T.W.@X_.K.J.M 2 5 E :.4.8.e.8.8.8.4.2.] ] ] -.4.8.8.8.",
"y.y.y.y.8.8.a.s.d.d.d.d.s.d.d.s.y.u.>.l O N J.~.@X@X~.Q.Q.M 2 p #.8.y.y.u.y.u.t.y.y.y.e.y.y.y.y.y.y.",
"y.e.y.e.8.8.a.s.s.d.d.d.s.s.s.a.u.,.#.k u @.j.OX}.oXv.z.z.k i p #.8.e.t.y.t.y.y.y.y.y.y.y.e.e.y.e.y.",
"y.e.y.e.8.8.u.s.s.s.d.d.s.s.a.y.0.=.l u | ,X-X4X5X-X3X1X1X .i p #.8.0.t.y.y.y.y.t.y.t.t.t.t.t.y.y.t.",
"y.y.y.e.8.8.s.s.s.s.d.s.s.a.a.8.E i - { &X<X>X=X$X>X<X2X2X .i p W ,.0.t.y.y.y.y.u.t.u.y.y.u.t.y.t.y.",
"e.y.y.e.4.6.u.s.s.s.s.d.s.d.a.>.c a t O.<X<X*X} r $X,X<X2X} i p #.8.0.y.y.y.y.t.t.y.u.t.y.y.y.8.y.y.",
"e.e.e.8.6.2.e.y.p.y.a.p.a.a.a.>.c p t &X>X,X} = & $X:X<X<X} i > G :.8.8.t.8.t.e.e.8.e.8.e.e.y.y.e.t.",
"4.4.2.2.( ^ ] ( ] 1.2.2.6.2.2.~ h a t $X:X%Xy   & X.*X:X,X| = * a D H ) H ^ ] *.( *.( ( 2.3.4.7.e.8.",
"q.0.q.0.8.4.4.2.4.7.7.8.7.7.4.#.s X t %X:X$Xy     = | *X>X*X| = + 4 D ~ 1.*.*.2.2.2.*.] 3.8.y.y.t.y.",
"q.y.y.q.q.0.q.q.0.q.0.0.y.0.0.=.a o t %X:X%Xy ; a * r ..&X=X*X+.u , : f ~ ;.7.7.7.7.2.2.4.e.t.t.t.y.",
"0.0.t.t.t.0.y.0.0.y.y.y.q.8.8.%.s ; r %X:X%Xy k ,.>.x t { O.;Xw._ Z 1 5 f G =.7.8.8.7.2.4.e.t.t.t.t.",
"0.0.q.t.y.8.t.0.0.y.0.0.0.8.=.l ; # : o.b.o.i v k.k.s.v * b <.Y.S.I 7 # 4 z =.7.7.8.7.7.7.q.q.q.t.t.",
"y.0.0.t.q.e.y.y.y.q.0.0.8.>.#.s % 0 P C.Y.R 7 c x.d.v.,.X 7 T S.Z.L 7 X 5 H >.7.8.7.7.2.3.q.q.q.t.t.",
"8.0.0.8.q.q.8.8.0.0.8.8.>.$.l q 8 L Z.A.Z.U 7 c x.d.x.%.X B V.Z.U B % q j &.:.3.7.7.2.*.1.7.8.8.8.8.",
"0.8.8.8.7.4.q.8.8.8.8.8.:.W f 3 0 P L I L V % x x.a.x.v o 8 S L 8 % : j &.-.:.3.2.2.2.1.1.7.8.8.8.8.",
"q.q.0.q.7.4.8.y.y.t.0.8.>.#.d > < 9 9 e 9 7 ; s x.y.x.p * 2 9 9 < > h :.8.8.8.8.q.8.8.8.8.8.q.q.e.e.",
"y.y.0.y.8.4.q.y.y.y.t.0.8.=.G l k l h l c E E x j.y.j.c f f a f h G ;.,.0.0.y.y.q.q.q.y.q.a.q.q.t.y.",
"0.q.t.q.8.4.q.y.0.y.t.t.8.,.>.;.;.;.;.>.s.s.s.s.a.q.a.a.=.$.H W ;.>.8.e.t.t.y.t.q.y.0.0.0.a.q.q.t.t.",
"0.0.t.0.8.4.q.q.y.0.t.t.0.0.0.8.,.0.0.0.0.y.t.t.0.0.0.y.0.>.*.3.,.e.e.t.t.t.t.y.y.q.a.q.0.q.q.0.t.e.",
"e.y.y.e.4.:.e.y.0.y.q.y.q.q.q.0.e.e.e.e.e.e.e.y.t.y.t.e.e.4.( 3.y.0.y.y.y.y.t.e.q.a.q.q.y.q.q.q.y.e.",
"7.4.8.4.2.] 3.4.8.7.8.9.9.8.8.8.8.8.8.8.4.e.e.r.8.9.8.5.e.4.( 6.7.9.7.r.7.8.e.8.8.8.8.8.8.8.8.8.4.4.",
"] ] ] ] ^ ! ] ] 1.] ] ] 1.1.1.1.] ] ] ] ] ] ] ] 1.1.] 6.] ] ! ] 2.] ] ] ] 2.6.2.1.] ] ] ] ] ] ] ( ] ",
"5.5.5.5.5.5.4.5.9.5.r.5.5.5.9.9.r.r.r.r.r.r.r.r.r.r.r.r.r.5.r.r.r.r.r.r.5.5.6.r.9.5.9.5.5.5.5.5.5.r.",
"j.g.g.g.g.g.g.g.j.g.g.g.d.i.h.h.j.j.j.j.k.j.j.j.h.k.g.j.k.g.j.g.h.h.j.j.j.i.r.i.j.g.j.j.h.h.g.g.g.g.",
"k.k.k.j.k.k.k.k.k.k.k.j.h.d.j.l.k.l.k.k.k.k.l.l.l.l.l.l.l.k.k.k.k.k.k.k.k.g.u.i.k.k.k.k.l.l.j.k.k.k.",
"c.c.c.c.c.c.c.c.c.!.!.l.h.h.l.!.c.c.c.c.c.c.c.|.c.c.c.c.c.c.c.c.c.c.l.|.c.j.i.j.c.c.c.|.|.c.c.c.c.c.",
"d.s.g.d.d.s.g.d.d.s.d.d.y.u.s.s.d.d.d.d.d.d.d.d.d.d.d.d.d.s.g.d.g.d.d.d.i.u.r.u.d.s.d.d.s.d.d.d.d.s."
};
