/* XPM */
static char *_45ecc7a24de49c8fa999cf6751b2531AeDBpm1QsAk3Iy87[] = {
/* columns rows colors chars-per-pixel */
"48 46 123 2 ",
"   c #573E2E",
".  c #583E2E",
"X  c #573E30",
"o  c #583F31",
"O  c #5A402F",
"+  c #564436",
"@  c #5A4334",
"#  c #5B4639",
"$  c #5C493B",
"%  c #604D3F",
"&  c #5C4D41",
"*  c #5C5247",
"=  c #5F5249",
"-  c #604F43",
";  c #625246",
":  c #62564B",
">  c #685748",
",  c #64594E",
"<  c #685849",
"1  c #615750",
"2  c #635A52",
"3  c #695E53",
"4  c #665F58",
"5  c #666057",
"6  c #6A6257",
"7  c #696157",
"8  c #6D6154",
"9  c #6C6255",
"0  c #666058",
"q  c #676058",
"w  c #676159",
"e  c #676259",
"r  c #676059",
"t  c #696158",
"y  c #686059",
"u  c #686159",
"i  c #696159",
"p  c #686259",
"a  c #6A6258",
"s  c #6A6259",
"d  c #68615A",
"f  c #68625A",
"g  c #69625A",
"h  c #68635A",
"j  c #69635B",
"k  c #6A625A",
"l  c #6B635A",
"z  c #6A635B",
"x  c #6B635B",
"c  c #69645B",
"v  c #69635C",
"b  c #6B635C",
"n  c #6A645C",
"m  c #6B645C",
"M  c #6A655C",
"N  c #6B655D",
"B  c #6A665C",
"V  c #6B665D",
"C  c #6B675D",
"Z  c #6C675E",
"A  c #68615A",
"S  c #6C685E",
"D  c #6D685F",
"F  c #6F685F",
"G  c #726455",
"H  c #70665A",
"J  c #756859",
"K  c #756A5B",
"L  c #726A5E",
"P  c #786D5F",
"I  c #6D6861",
"U  c #6E6860",
"Y  c #6E6861",
"T  c #6F6861",
"R  c #6E6961",
"E  c #6F6A61",
"W  c #6E6962",
"Q  c #6E6963",
"!  c #6F6A62",
"~  c #6E6A63",
"^  c #6F6A63",
"/  c #6F6A64",
"(  c #756E64",
")  c #756E65",
"_  c #716C63",
"`  c #7A6F62",
"'  c #747165",
"]  c #797062",
"[  c #7C7365",
"{  c #7C7367",
"}  c #77736B",
"|  c #77746B",
" . c #767469",
".. c #78746B",
"X. c #78746C",
"o. c #78756C",
"O. c #79756C",
"+. c #79766C",
"@. c #79766D",
"#. c #7A766D",
"$. c #7C776D",
"%. c #7C786D",
"&. c #817A6E",
"*. c #807B6F",
"=. c #807C6F",
"-. c #817D70",
";. c #827D71",
":. c #807E74",
">. c #868579",
",. c #86857A",
"<. c #87857A",
"1. c #87867A",
"2. c #89847A",
"3. c #8A857A",
"4. c #8B8981",
"5. c #8B8A81",
"6. c #8C8A81",
"7. c #8D8B82",
"8. c #8D8C83",
"9. c #8E8C83",
"0. c #8F8D84",
"q. c #8F8E85",
"w. c #908E85",
/* pixels */
">.>.>.>.>.>.>.>.>.>.>.%.[ =.>.>.>.>.>.>.>.>.>.>.>.>.>.>.>.>.>.>.>.>.>.>.G K >.>.>.>.>.>.>.>.>.>.",
">.>.>.>.>.,.,.,.>.>.3.-.[ -.>.>.3.>.1.1.>.3.1.1.>.>.>.>.>.,.,.,.>.3.>.>.J ` 3.>.1.1.1.1.3.>.1.1.",
"5.5.5.5.4.4.5.5.6.8.w.3.&.3.w.w.0.6.8.8.6.8.8.6.8.5.5.5.4.4.5.5.6.6.w.w.[ { w.w.0.6.8.8.6.8.8.6.",
"X.X.} } } } } } } @.@.( H ( @.@.@.} @...| | | | X.| } } } } } } } } @.@.< 9 @.@.X.X.X.X.| | | X.",
"U S U S I Z I Z S L S 6 , 6 S S N S S S S Z S Z U S U S I Z I Z S S L S ; ; S S C U U C S S C S ",
"S U S S I Z S S S S S 6 , 6 S C Z Z S C Z Z C C S U S S I Z S S S S S Z > , S S S C S C Z S C C ",
"S Z S S Z S Z Z B S B 7 3 6 B C N N C N N N C C Z Z S Z Z Z Z Z B S B B ; , C C N N C N N N C C ",
"Z Z N N N N N Z B B B 7 , 6 B B N N N N N N N B Z Z C N N N N Z S B S B ; ; B n N N N N N N N B ",
"n n n n N c N c N c I 2 < 3 B h c c c c c c B B N n N n n n n n B c B I & * n n N N N c N N c B ",
"z N n n c c c N c N N 2 * 3 h B c c c c c B e e n n v v n n n n B B c c $ $ h n h h h h h c h h ",
"e z n n c h c c n n h 2 * 2 B B c c h h h h B B z z e z e n n n e e B B $ % n n h h h h h h h h ",
"e e e 5 e e e e 5 h h , * 2 5 B e e e e e e B B e e e e e e e 5 e 5 B B $ % 5 h e e e e h h h h ",
": : , = , , = 2 : : = = % * = = , : , : = = = = 2 = = = : , : : = = 2 = + # 2 = : : , : = , : : ",
"$ $ # # $ $ # # $ $ # # $ $ $ $ # + # $ $ $ % $ $ $ $ # $ $ $ $ $ $ $ $ $ $ $ # $ # + # $ $ $ $ ",
"& & & & & & & & & & & & & & & & # + # & & & & & * % & & & & & & & $ & & * * & & & + + $ & & & & ",
"* * * * * * * * * * * * * * * * * + & * * * * * * * * * * * * * * * * & * * * * * & # * * * * * ",
"* * * * * * * * * * * * * * * * * + * * * * * = * * = * * * * * * * * * * * * * * $ $ * * * * * ",
"* * * * * * * = * * * * * * * * * + & * * = * * * * * = * * * * * * * * * * * * * & + * * = * = ",
"2 2 2 2 2 2 2 2 2 2 2 2 2 2 2 2 2 $ * 2 2 2 2 2 2 , 2 = 2 2 2 2 2 2 2 2 2 2 2 5 2 * * 1 2 2 2 2 ",
"2 2 2 2 2 2 2 2 2 5 2 2 2 2 2 : = # * 1 2 2 2 2 5 2 5 2 2 2 2 5 2 2 2 2 5 2 2 = = & & * 2 2 2 2 ",
"= 2 , , : - , 2 2 e 2 2 2 2 : - * % $ : 2 2 2 2 2 2 3 2 = * , , : 2 2 , , 2 : & * $ # $ 2 2 , 2 ",
"B B h h 2 , U _ ~ ~ / _ _ T _ _ I I S I E _ ~ ~ _ E / E B * h h z v z z e z z z e e e e z e z z ",
"e e h 5 2 3 ~ I I I / / I I I I I I I I U U U ~ U U U U n * e e z 4 4 e e e z 4 e e e e e 4 e e ",
"e e e 5 2 2 U I I I ~ ~ I I I I I I I I U U ~ ~ U U S S n * e e 4 e e e 4 e 4 e e e e e e e e 4 ",
"e e e 4 2 3 _ I I I I I I I I I I I I I I I I I ~ ~ Z I z ; z 2 d 4 I 4 4 r z 4 e 4 4 z e 4 4 e ",
"4 e z 4 : : U I T T I I I I I I I I I Q I I I I I I _ Z 4 @ e z 4 4 4 4 r r 4 v e e e z e e e e ",
"2 2 e 2 - - v z 4 b b b x z x x v 4 h h 4 4 I 4 e z 4 4 , o 2 2 4 2 2 2 4 2 2 2 2 2 2 4 4 4 e e ",
": : ; & # @ @ @ # # - - - % & % - o X X X X X X   X     . $ o o o o o X + + # # # @ # - : 2 2 2 ",
"z 4 x 4 6 4 2 2 2 2 2 2 2 2 2 2 2 & & - * * 1 * = = = = : = = = 1 * * = = = = = - $ : 4 v v v v ",
"4 4 4 4 4 4 4 4 4 4 4 4 4 4 4 4 4 - = : 1 1 1 1 1 1 2 1 1 1 2 1 1 1 2 1 1 1 1 1 1 & : 2 4 4 4 4 ",
"4 4 4 4 4 4 4 4 4 4 4 4 4 4 4 4 4 : 1 1 2 1 2 1 2 1 1 1 1 1 1 1 1 1 1 2 1 2 1 1 1 = : 2 4 4 5 5 ",
"4 4 4 4 4 4 4 4 4 4 4 4 4 4 4 4 4 : 1 1 1 2 1 2 1 2 1 1 1 1 1 2 2 1 2 2 1 1 1 1 1 = : 4 e e 2 5 ",
"4 4 4 4 4 4 4 4 4 4 4 4 4 4 4 4 4 & : 1 1 1 1 1 1 1 1 1 1 1 1 1 1 1 1 1 1 2 1 1 1 = = 4 d 4 4 4 ",
"2 2 2 2 2 : 2 2 2 2 2 2 2 2 2 : : @ & & & = ; : 1 = = 1 1 1 1 = = * * = - ; - * * o o ; 1 2 2 2 ",
"4 4 3 2 : : 2 2 2 3 3 2 2 3 2 : : - ; : : : 2 3 2 2 2 2 : = = ; : 1 : : , : : : ; - - = 1 4 2 4 ",
"4 4 4 4 2 2 v 4 4 4 4 v 4 v 4 v 4 e 4 z 4 4 4 4 4 v 4 4 1 # ; 3 4 4 4 4 4 4 4 4 d d d d 4 b 4 4 ",
"4 4 4 4 : : 4 4 4 4 4 4 4 4 4 4 4 4 4 4 4 4 z 2 4 4 4 4 2 # 2 4 4 4 4 4 4 4 4 4 4 4 4 4 4 4 4 4 ",
"4 4 4 3 2 1 4 4 4 4 4 4 4 4 4 4 4 4 4 4 4 4 4 e 4 4 4 4 2 - 4 4 4 4 4 4 4 4 4 4 4 4 4 4 4 4 4 4 ",
"4 4 4 4 : ; 4 4 4 4 4 4 4 4 4 4 4 4 4 4 4 4 5 5 4 4 4 4 2 $ 4 4 4 4 4 4 4 4 4 4 4 4 4 4 4 4 4 4 ",
"4 4 4 4 : & 4 4 4 4 4 4 4 4 4 4 4 4 4 4 4 4 5 5 4 4 4 4 2 @ 4 4 4 4 4 4 4 4 4 4 4 4 4 4 4 4 4 4 ",
"% $ $ # @ O # $ % % $ % ; % # % $ $ $ $ % # $ $ # % # $ @   $ $ % % # $ ; ; % # % % $ % # % # % ",
"> > > > > > < < > > < > ; > > > > > > > > > > > > < > > > > > , > < < < > % > , > > < < > > > > ",
"' ' ' ' ' ' ' ' ( _ ' L C L P ' ' ' ' ' ' ' ' ' ' ' ' ' ' '  .' P ' ' ' 8 8 ' ' ) ( ( ' ' ' ( ( ",
" . . . .| { | | } } | _ K '  . . . . .| {  . . . .{  . . .{ X.@. . . . .8 H | | ) } } |  .| { ' ",
"-.-.:.:.:.:.:.:.:.:.:.%.' %.:.:.:.:.:.:.:.:.:.:.:.:.:.:.%.>.%.%.:.:.:.:.K K :.:.:.:.:.:.%.:.:.:.",
"_ _ _ _ _ _ _ _ _ _ _ S 9 L _ _ _ _ _ _ _ _ _ _ _ _ _ _ _ _ ' _ _ _ _ _ 7 6 _ _ _ _ _ / ' _ _ _ "
};
